<svg width="60" height="63" viewBox="0 0 60 63" fill="none" xmlns="http://www.w3.org/2000/svg" >
<path d="M32.9155 51.9042C24.1624 51.9042 15.8651 48.8698 9.66495 43.4398C3.46479 38.0098 0 30.7432 0 23.0774C0 15.4115 3.46479 8.14494 9.66495 2.71497L12.3091 5.03069C6.83841 9.82185 3.73833 16.2899 3.73833 23.0774C3.73833 29.9447 6.74723 36.3329 12.3091 41.1241C17.7799 45.9152 25.1653 48.6302 32.9155 48.6302C40.7569 48.6302 48.0512 45.9951 53.5219 41.1241L56.1661 43.4398C49.966 48.8698 41.7599 51.9042 32.9155 51.9042Z" fill="#27a19a"/>
<path d="M33.9184 44.6376C19.8768 44.6376 8.47949 34.656 8.47949 22.3587C8.47949 10.0614 19.8768 0 33.9184 0C47.9599 0 59.3573 9.98157 59.3573 22.2789C59.3573 34.5762 47.9599 44.6376 33.9184 44.6376ZM33.9184 5.50983C23.3416 5.50983 14.6797 13.0958 14.6797 22.3587C14.6797 31.6216 23.3416 39.2076 33.9184 39.2076C44.4951 39.2076 53.2483 31.6216 53.2483 22.3587C53.2483 13.0958 44.5863 5.50983 33.9184 5.50983Z" fill="#27a19a"/>
<path d="M47.5549 6.62329L15.9634 34.2905L20.3475 38.1301L51.939 10.4628L47.5549 6.62329Z" fill="#27a19a"/>
<path d="M35.0127 48.7899H31.2744V61.0872H35.0127V48.7899Z" fill="#27a19a"/>
<path d="M44.9512 59.1708H21.3359V62.4447H44.9512V59.1708Z" fill="#27a19a"/>
</svg>