<svg width="56" height="50" viewBox="0 0 56 50" fill="none" xmlns="http://www.w3.org/2000/svg">
<g opacity="0.5">
<path d="M55.8424 42.7656H0.68457V49.4342H55.8424V42.7656Z" fill="#376180"/>
<path d="M13.3832 0.625L4.10742 28.4522H10.8292L17.1254 8.78339L20.2823 18.6089H16.1854L14.5537 24.2311H22.0736L23.4393 28.4522H30.3384L21.0627 0.625H13.3832Z" fill="#376180"/>
<path d="M40.8907 0.625H31.2603V28.4345H37.9288V6.24719H40.6069C43.7284 6.24719 45.502 7.73698 45.502 10.4151C45.502 13.0577 43.7284 14.5829 40.6069 14.5829H40.1813V20.1874H40.9084C48.1091 20.1874 52.3124 16.5693 52.3124 10.3973C52.2947 4.13665 48.0736 0.625 40.8907 0.625Z" fill="#376180"/>
</g>
</svg>