<svg width="103" height="31" viewBox="0 0 103 31" fill="none" xmlns="http://www.w3.org/2000/svg">
<g opacity="0.5">
<path fill-rule="evenodd" clip-rule="evenodd" d="M102.094 30.2199V0.158203H70.7465V30.2199H102.094ZM94.9501 8.79152C92.5354 7.40389 90.1197 6.6844 87.8585 6.6844C85.4438 6.6844 83.4389 7.45525 81.8977 8.99693C80.3047 10.4873 79.483 12.3371 79.483 14.6496C79.483 16.8589 80.3047 18.76 81.8469 20.3028C83.4907 21.7407 85.4438 22.4607 87.8077 22.4607C90.3256 22.4607 92.7922 21.6899 95.2074 20.1476V23.3856C92.9457 24.6186 90.4278 25.2354 87.6531 25.2354C85.2892 25.2354 83.3361 24.7732 81.6912 23.8483C80.1172 22.8897 78.7958 21.5679 77.8376 19.9936C76.9127 18.2476 76.3986 16.4999 76.3986 14.6496C76.3986 11.5662 77.4775 9.04828 79.6874 6.99252C81.8464 4.93677 84.5189 3.85781 87.6531 3.85781C89.9137 3.85781 92.3289 4.42324 94.9496 5.60491V8.79152H94.9501ZM67.2528 0.158203H35.9056V30.2199H67.2528V0.158203ZM45.5152 4.62865H50.9624C52.7095 4.62865 54.0464 4.83406 55.0215 5.29679C55.9983 5.81086 56.7173 6.4271 57.1805 7.19848C57.6935 8.02067 57.9514 8.94557 57.9514 10.0245C57.9514 12.0798 56.9232 13.5187 54.7648 14.3928C56.3064 14.6496 57.5395 15.2664 58.4135 16.294C59.2866 17.2189 59.6985 18.4011 59.7493 19.7368C59.6985 20.765 59.4412 21.7407 58.9276 22.5634C58.3617 23.3856 57.5908 24.0543 56.5119 24.6192C55.4329 25.1332 54.148 25.39 52.5549 25.39H45.5152V4.62865Z" fill="#376180"/>
<path fill-rule="evenodd" clip-rule="evenodd" d="M50.4483 13.5193C52.0408 13.5193 53.1716 13.2111 53.8398 12.6457C54.5079 11.9776 54.8668 11.2067 54.8668 10.2305C54.8668 8.27798 53.583 7.24984 51.0645 7.24984H48.4958V13.5193H50.4483ZM51.2705 16.1913H48.4958V22.7169H51.4764C52.8635 22.7169 53.9944 22.6148 54.7133 22.4088C55.3815 22.0488 55.8442 21.638 56.1523 21.1758C56.4604 20.6617 56.6664 20.0968 56.6664 19.48C56.6145 18.8633 56.4604 18.2973 56.1004 17.7843C55.7923 17.2183 55.2787 16.8075 54.5587 16.5502C53.8917 16.294 52.7608 16.1399 51.2705 16.1913ZM32.3081 0.158203H0.960938V30.2199H32.3081V0.158203ZM10.5197 25.3895V4.62865H15.9669C17.714 4.62865 18.9989 4.83406 19.9752 5.29679C20.9515 5.75897 21.7223 6.4271 22.185 7.24929C22.6985 8.02014 22.9559 8.94503 23.0072 10.024C22.9559 12.0792 21.9282 13.5182 19.7698 14.4431C21.3628 14.7004 22.5445 15.3166 23.4186 16.2929C24.2921 17.2178 24.7548 18.4 24.7548 19.7357C24.7548 20.8147 24.4981 21.7915 23.9326 22.5623C23.3672 23.4353 22.5964 24.104 21.5688 24.6181C20.4898 25.1322 19.1535 25.3889 17.5605 25.3889H10.5197V25.3895Z" fill="#376180"/>
<path fill-rule="evenodd" clip-rule="evenodd" d="M16.0693 7.25H13.5V13.5194H15.5039C17.0455 13.5194 18.1759 13.2113 18.8445 12.6459C19.5121 12.0291 19.8721 11.2069 19.8721 10.282C19.8716 8.27761 18.5872 7.25 16.0693 7.25ZM16.2747 16.1914H13.5V22.7171H16.4288C17.9704 22.7171 19.1008 22.6149 19.7689 22.409C20.3343 22.1522 20.7965 21.7922 21.156 21.2781C21.4646 20.7132 21.6187 20.1473 21.67 19.4802C21.6187 18.7602 21.4127 18.1953 21.1046 17.7845C20.752 17.2155 20.2038 16.7949 19.5629 16.6017C18.844 16.2941 17.7137 16.1914 16.2747 16.1914Z" fill="#376180"/>
</g>
</svg>