<svg width="91" height="36" viewBox="0 0 91 36" fill="none" xmlns="http://www.w3.org/2000/svg">
<path opacity="0.5" d="M7.037 7.51764C6.61842 7.23153 6.15981 7.09794 5.38236 7.05975C5.02348 7.04071 4.82426 7.04071 4.5252 7.04071C4.44548 7.04071 4.40569 7.0789 4.40569 7.1742V11.6941C4.40569 12.9529 4.4655 13.2772 5.10331 13.525C5.64151 13.7349 6.1 13.7539 6.55849 13.7539C7.45569 13.7539 8.97068 13.296 8.97068 11.3126C8.97068 10.1302 8.5521 8.52828 7.037 7.51764ZM4.40569 5.99189C4.40569 6.14452 4.4655 6.1826 4.54521 6.20164C4.72465 6.23993 5.0236 6.25886 5.4822 6.25886C6.14003 6.25886 6.57862 6.18271 6.91737 5.8966C7.43567 5.49604 7.73474 4.80959 7.73474 3.87511C7.73474 2.59717 6.95728 0.918907 5.24284 0.918907C4.96379 0.918907 4.78435 0.918907 4.58501 0.957092C4.44537 0.995277 4.40557 1.07154 4.40557 1.28128V5.99189H4.40569ZM2.0134 5.6676C2.0134 2.76873 2.0134 2.23469 1.97348 1.62439C1.93357 0.976129 1.77414 0.670869 1.11632 0.537387C0.956893 0.499312 0.617914 0.480164 0.338863 0.480164C0.119626 0.480164 0 0.441979 0 0.308497C0 0.175015 0.139525 0.13694 0.43859 0.136719C1.49509 0.136719 2.75105 0.194052 3.14973 0.194052C4.12652 0.194052 4.90409 0.136719 5.58182 0.13694C9.19003 0.13694 9.82796 1.98676 9.82796 2.99762C9.82796 4.56144 8.89097 5.49582 7.79455 6.33512C9.42928 6.86894 11.4227 8.22324 11.4227 10.4546C11.4227 12.4953 9.76803 14.6121 6.1 14.6121C5.86087 14.6121 5.28275 14.5739 4.70452 14.5548C4.1065 14.5167 3.50849 14.4976 3.20942 14.4976C2.99007 14.4976 2.55148 14.4976 2.07309 14.5167C1.6146 14.5167 1.09642 14.5548 0.697626 14.5548C0.438475 14.5548 0.298834 14.4976 0.298834 14.3641C0.298834 14.2688 0.378661 14.2115 0.617914 14.2115C0.916863 14.2115 1.15611 14.1734 1.33555 14.1353C1.73423 14.0589 1.83396 13.6394 1.91367 13.0863C2.01328 12.2854 2.01328 10.7785 2.01328 9.02402V5.6676H2.0134ZM14.1131 6.9836C14.1131 4.52337 14.1331 4.06559 14.0932 3.55059C14.0533 2.97847 13.8939 2.82595 13.3356 2.67332C13.1961 2.63503 12.8971 2.6161 12.6579 2.6161C12.4585 2.6161 12.359 2.55877 12.359 2.44443C12.359 2.32999 12.4785 2.2918 12.7376 2.2918C13.6746 2.2918 14.8507 2.32999 15.3689 2.32999C15.8076 2.32999 16.9838 2.2918 17.6217 2.2918C17.8809 2.2918 18.0004 2.32999 18.0004 2.44443C18.0004 2.55877 17.9008 2.6161 17.7214 2.6161C17.522 2.6161 17.4224 2.63514 17.2032 2.67332C16.7446 2.74958 16.6051 2.97847 16.5651 3.55059C16.5253 4.06548 16.5253 4.52337 16.5253 6.9836V9.25313C16.5253 11.618 17.0037 12.5334 17.8608 13.1818C18.6383 13.7732 19.4757 13.8302 20.0738 13.8302C20.8311 13.8302 21.7283 13.6204 22.4259 12.9719C23.4027 12.0947 23.4427 10.6834 23.4427 9.02413V6.9836C23.4427 4.52337 23.4228 4.06559 23.4027 3.55059C23.3628 2.99762 23.2233 2.82595 22.6652 2.67332C22.5257 2.63503 22.2266 2.6161 22.0272 2.6161C21.8278 2.6161 21.7282 2.55877 21.7282 2.44443C21.7282 2.32999 21.8478 2.2918 22.0871 2.2918C22.9842 2.2918 24.1603 2.32999 24.1802 2.32999C24.3798 2.32999 25.5559 2.2918 26.2335 2.2918C26.4728 2.2918 26.5925 2.32999 26.5925 2.44443C26.5925 2.55877 26.4928 2.6161 26.2934 2.6161C26.0941 2.6161 25.9944 2.63514 25.7751 2.67332C25.2966 2.74958 25.1772 2.97847 25.1372 3.55059C25.1173 4.06548 25.0973 4.52337 25.0973 6.9836V8.71909C25.0973 10.5308 24.8979 12.4381 23.4228 13.6014C22.1867 14.5931 20.8511 14.7646 19.7148 14.7646C18.7977 14.7646 16.9838 14.7266 15.7079 13.6586C14.8108 12.9147 14.113 11.7134 14.113 9.36758V6.9836H14.1131ZM28.2265 14.345C27.9474 14.2307 27.8877 14.1542 27.8877 13.792C27.8877 12.9146 27.9673 11.904 27.9872 11.637C27.9872 11.3891 28.0669 11.2173 28.2065 11.2173C28.3661 11.2173 28.386 11.3699 28.386 11.4844C28.386 11.6941 28.4458 12.0373 28.5455 12.3234C28.9243 13.5249 30.2399 13.9256 31.3365 13.9256C32.8515 13.9256 33.7684 13.0101 33.7684 11.8659C33.7684 11.1602 33.5889 10.4546 32.0341 9.57721L31.0174 9.00498C28.9442 7.84172 28.2665 6.75449 28.2665 5.32426C28.2665 3.34084 30.2599 2.06302 32.6919 2.06302C33.8281 2.06302 34.7254 2.21565 35.1838 2.32999C35.3434 2.36806 35.423 2.42529 35.423 2.53984C35.423 2.74969 35.3633 3.20736 35.3633 4.48518C35.3633 4.82841 35.2834 4.99996 35.1439 4.99996C35.0243 4.99996 34.9646 4.90467 34.9646 4.71396C34.9646 4.56133 34.8848 4.06548 34.506 3.64588C34.2468 3.34084 33.6888 2.88318 32.5523 2.88318C31.2966 2.88318 30.1601 3.5124 30.1601 4.61855C30.1601 5.34341 30.4392 5.91541 32.014 6.7546L32.7317 7.1359C35.0441 8.35661 35.7618 9.59624 35.7618 11.0648C35.7618 12.2661 35.2832 13.239 34.0075 14.0971C33.1702 14.6693 32.014 14.7644 31.0771 14.7644C30.0606 14.7645 28.984 14.6695 28.2265 14.345ZM38.712 6.9836C38.712 4.52337 38.712 4.06559 38.6922 3.55059C38.6523 2.99762 38.4728 2.8068 38.0941 2.69236C37.8947 2.63503 37.6754 2.61621 37.4561 2.61621C37.2768 2.61621 37.177 2.57803 37.177 2.4254C37.177 2.3301 37.3165 2.29191 37.5957 2.29191C38.2536 2.29191 39.4495 2.3301 39.9479 2.3301C40.3866 2.3301 41.5228 2.29191 42.2007 2.29191C42.4199 2.29191 42.5596 2.3301 42.5596 2.4254C42.5596 2.57803 42.4599 2.61621 42.2804 2.61621C42.1011 2.61621 41.9615 2.63514 41.7622 2.67343C41.2837 2.74969 41.1442 2.97858 41.1043 3.5507C41.0645 4.06559 41.0645 4.52348 41.0645 6.98371V9.84439C41.0645 11.4082 41.0645 12.7052 41.1441 13.3919C41.2039 13.8304 41.3236 14.0783 41.8418 14.1546C42.0809 14.1929 42.4797 14.2119 42.7389 14.2119C42.9382 14.2119 43.0179 14.3072 43.0179 14.3837C43.0179 14.498 42.8784 14.5552 42.679 14.5552C41.5228 14.5552 40.3267 14.498 39.8482 14.498C39.4495 14.498 38.2535 14.5552 37.5557 14.5552C37.3364 14.5552 37.2169 14.498 37.2169 14.3837C37.2169 14.3073 37.2767 14.2119 37.4959 14.2119C37.7551 14.2119 37.9544 14.1929 38.1138 14.1546C38.4727 14.0784 38.5724 13.8495 38.6321 13.3728C38.7117 12.7053 38.7117 11.4083 38.7117 9.8445V6.9836H38.712ZM47.0845 12.3426C47.1243 13.6013 47.3437 13.9827 47.6825 14.0972C47.9816 14.1925 48.3205 14.2116 48.5995 14.2116C48.7989 14.2116 48.8986 14.2879 48.8986 14.3833C48.8986 14.5168 48.739 14.5549 48.4999 14.5549C47.3637 14.5549 46.5461 14.4977 46.2272 14.4977C46.0678 14.4977 45.2306 14.5549 44.3335 14.5549C44.0942 14.5549 43.9348 14.536 43.9348 14.3833C43.9348 14.288 44.0544 14.2116 44.2138 14.2116C44.4531 14.2116 44.7719 14.1925 45.0114 14.1354C45.4698 14.021 45.5296 13.5822 45.5495 12.1709L45.7091 2.55888C45.7091 2.23469 45.8286 2.0058 46.0081 2.0058C46.2274 2.0058 46.4666 2.25373 46.7656 2.53984C46.9849 2.74969 49.6163 5.32426 52.1678 7.70824C53.3641 8.83343 55.6964 11.1221 55.9556 11.3509H56.0353L55.8556 4.14174C55.836 3.15003 55.6764 2.86392 55.258 2.7114C54.9988 2.6161 54.5799 2.6161 54.3408 2.6161C54.1215 2.6161 54.0616 2.53984 54.0616 2.44443C54.0616 2.31095 54.241 2.2918 54.5002 2.2918C55.4173 2.2918 56.3542 2.32999 56.733 2.32999C56.9324 2.32999 57.5901 2.2918 58.4474 2.2918C58.6866 2.2918 58.8459 2.31084 58.8459 2.44443C58.8459 2.53973 58.7463 2.6161 58.547 2.6161C58.3674 2.6161 58.228 2.6161 58.0087 2.67332C57.5302 2.80681 57.3908 3.09292 57.3707 4.00837L57.1714 14.2307C57.1714 14.593 57.0319 14.7456 56.8922 14.7456C56.5933 14.7456 56.3542 14.5739 56.1746 14.4022C55.0781 13.4296 52.8852 11.4271 51.0515 9.72973C49.1377 7.97509 47.2837 6.0106 46.9447 5.7246H46.885L47.0845 12.3426ZM61.9155 6.9836C61.9155 4.52337 61.9155 4.06559 61.8954 3.55059C61.8556 2.99762 61.6961 2.82595 61.1378 2.67332C60.9984 2.63503 60.6994 2.6161 60.4403 2.6161C60.2607 2.6161 60.1412 2.55877 60.1412 2.44443C60.1412 2.32999 60.2808 2.2918 60.5399 2.2918C61.4569 2.2918 62.5733 2.32999 63.0716 2.32999C63.6297 2.32999 67.517 2.34891 67.856 2.32999C68.1749 2.31084 68.4541 2.25373 68.5935 2.23469C68.6932 2.21565 68.7928 2.15843 68.8725 2.15843C68.9723 2.15843 68.9922 2.23469 68.9922 2.31095C68.9922 2.4254 68.8926 2.61621 68.8525 3.35999C68.8327 3.53166 68.7927 4.23737 68.753 4.42796C68.733 4.50411 68.6932 4.69493 68.5537 4.69493C68.4341 4.69493 68.4139 4.61867 68.4139 4.48518C68.4139 4.37074 68.3941 4.08463 68.2945 3.89381C68.1548 3.60781 68.0154 3.37903 67.1382 3.30266C66.8392 3.26436 64.7461 3.2264 64.3873 3.2264C64.3077 3.2264 64.2676 3.28362 64.2676 3.37903V7.38394C64.2676 7.47935 64.2877 7.55572 64.3873 7.55572C64.7859 7.55572 67.0586 7.55572 67.4573 7.51764C67.876 7.47935 68.135 7.44127 68.2945 7.26971C68.4341 7.15516 68.4939 7.05986 68.5737 7.05986C68.6533 7.05986 68.7132 7.13612 68.7132 7.23164C68.7132 7.32694 68.6731 7.5939 68.5737 8.41405C68.5336 8.73835 68.4939 9.38672 68.4939 9.50106C68.4939 9.63454 68.4739 9.86343 68.3146 9.86343C68.1949 9.86343 68.1548 9.8061 68.1548 9.72995C68.135 9.55817 68.135 9.34854 68.0951 9.13858C67.9955 8.81439 67.776 8.56646 67.1183 8.50935C66.7993 8.47105 64.8058 8.43298 64.3675 8.43298C64.2877 8.43298 64.2676 8.50935 64.2676 8.60476V9.90162C64.2676 10.4547 64.2479 11.8278 64.2676 12.3045C64.3077 13.4107 64.8456 13.6586 66.64 13.6586C67.0985 13.6586 67.8361 13.6396 68.2947 13.4487C68.7331 13.258 68.9325 12.9148 69.052 12.2474C69.0921 12.0756 69.1318 11.9995 69.2516 11.9995C69.3911 11.9995 69.4111 12.2093 69.4111 12.3808C69.4111 12.7431 69.2715 13.8494 69.1717 14.1736C69.0521 14.5931 68.8928 14.5931 68.2348 14.5931C66.9192 14.5931 65.8626 14.574 65.0055 14.536C64.1482 14.5168 63.4903 14.4977 62.9721 14.4977C62.7725 14.4977 62.3939 14.5168 61.9754 14.5168C61.5567 14.536 61.1181 14.5549 60.7593 14.5549C60.54 14.5549 60.4204 14.4977 60.4204 14.3833C60.4204 14.307 60.4802 14.2116 60.6996 14.2116C60.9586 14.2116 61.1579 14.1925 61.3175 14.1542C61.6764 14.0781 61.7758 13.773 61.8357 13.296C61.9155 12.6096 61.9155 11.3317 61.9155 9.84406V6.9836ZM71.6031 14.345C71.3241 14.2307 71.2641 14.1542 71.2641 13.792C71.2641 12.9146 71.3438 11.904 71.3639 11.637C71.3639 11.3891 71.4435 11.2173 71.5831 11.2173C71.7426 11.2173 71.7625 11.3699 71.7625 11.4844C71.7625 11.6941 71.8226 12.0373 71.9222 12.3234C72.3007 13.5249 73.6166 13.9256 74.7129 13.9256C76.228 13.9256 77.1449 13.0101 77.1449 11.8659C77.1449 11.1602 76.9656 10.4546 75.4107 9.57721L74.3941 9.00498C72.3209 7.84172 71.6429 6.75449 71.6429 5.32426C71.6429 3.34084 73.6365 2.06302 76.0686 2.06302C77.2048 2.06302 78.1019 2.21565 78.5604 2.32999C78.7199 2.36806 78.7997 2.42529 78.7997 2.53984C78.7997 2.74969 78.7398 3.20736 78.7398 4.48518C78.7398 4.82841 78.66 4.99996 78.5205 4.99996C78.401 4.99996 78.3412 4.90467 78.3412 4.71396C78.3412 4.56133 78.2615 4.06548 77.8826 3.64588C77.6235 3.34084 77.0653 2.88318 75.929 2.88318C74.673 2.88318 73.5367 3.5124 73.5367 4.61855C73.5367 5.34341 73.8157 5.91541 75.3907 6.7546L76.1082 7.1359C78.4208 8.35661 79.1383 9.59624 79.1383 11.0648C79.1383 12.2661 78.6598 13.239 77.384 14.0971C76.5468 14.6693 75.3907 14.7644 74.4536 14.7644C73.4371 14.7645 72.3607 14.6695 71.6031 14.345ZM81.5303 14.345C81.2514 14.2307 81.1915 14.1542 81.1915 13.792C81.1915 12.9146 81.2711 11.904 81.2911 11.637C81.2911 11.3891 81.3708 11.2173 81.5104 11.2173C81.6699 11.2173 81.6898 11.3699 81.6898 11.4844C81.6898 11.6941 81.7497 12.0373 81.8493 12.3234C82.228 13.5249 83.5437 13.9256 84.6402 13.9256C86.1553 13.9256 87.0722 13.0101 87.0722 11.8659C87.0722 11.1602 86.8929 10.4546 85.338 9.57721L84.3213 9.00498C82.248 7.84172 81.5703 6.75449 81.5703 5.32426C81.5703 3.34084 83.5638 2.06302 85.9957 2.06302C87.1322 2.06302 88.0291 2.21565 88.4879 2.32999C88.6472 2.36806 88.7268 2.42529 88.7268 2.53984C88.7268 2.74969 88.6669 3.20736 88.6669 4.48518C88.6669 4.82841 88.5872 4.99996 88.4476 4.99996C88.328 4.99996 88.2683 4.90467 88.2683 4.71396C88.2683 4.56133 88.1884 4.06548 87.8097 3.64588C87.5505 3.34084 86.9925 2.88318 85.8561 2.88318C84.6002 2.88318 83.4639 3.5124 83.4639 4.61855C83.4639 5.34341 83.7428 5.91541 85.3178 6.7546L86.0354 7.1359C88.3478 8.35661 89.0655 9.59624 89.0655 11.0648C89.0655 12.2661 88.5869 13.239 87.3111 14.0971C86.474 14.6693 85.3178 14.7644 84.3807 14.7644C83.3643 14.7645 82.2878 14.6695 81.5303 14.345ZM2.83042 26.0397C2.83042 23.1407 2.83042 22.6068 2.7905 21.9966C2.75059 21.348 2.55125 21.0239 2.11278 20.9285C1.89342 20.8712 1.63427 20.8521 1.39514 20.8521C1.19568 20.8521 1.07617 20.8141 1.07617 20.6617C1.07617 20.5471 1.2356 20.5089 1.55456 20.5089C2.31211 20.5089 3.56796 20.5662 4.14607 20.5662C4.64447 20.5662 5.8206 20.5089 6.57804 20.5089C6.83719 20.5089 6.99673 20.5471 6.99673 20.6617C6.99673 20.8141 6.87711 20.8521 6.67777 20.8521C6.47832 20.8521 6.31889 20.8713 6.07964 20.9097C5.54144 21.0048 5.3819 21.3292 5.3421 21.9967C5.30219 22.607 5.30219 23.1408 5.30219 26.0398V29.3962C5.30219 31.2461 5.30219 32.753 5.38178 33.5729C5.44171 34.0878 5.58124 34.431 6.17937 34.5074C6.45842 34.5455 6.89701 34.5835 7.19596 34.5835C7.41531 34.5835 7.51492 34.6409 7.51492 34.7362C7.51492 34.8696 7.3555 34.9269 7.13626 34.9269C5.82049 34.9269 4.56465 34.8696 4.02633 34.8696C3.56784 34.8696 2.312 34.9269 1.51453 34.9269C1.25549 34.9269 1.11585 34.8696 1.11585 34.7362C1.11585 34.6409 1.19557 34.5835 1.43482 34.5835C1.73388 34.5835 1.97314 34.5453 2.15257 34.5074C2.55114 34.431 2.67076 34.1068 2.73069 33.5537C2.8303 32.753 2.8303 31.246 2.8303 29.3962V26.0397H2.83042ZM12.977 32.7147C13.0169 33.9733 13.2361 34.3548 13.5751 34.4693C13.8741 34.5646 14.2131 34.5836 14.4921 34.5836C14.6914 34.5836 14.7912 34.6599 14.7912 34.7554C14.7912 34.8889 14.6317 34.927 14.3925 34.927C13.2563 34.927 12.4389 34.8698 12.1198 34.8698C11.9604 34.8698 11.1231 34.927 10.2261 34.927C9.98681 34.927 9.82738 34.9078 9.82738 34.7554C9.82738 34.66 9.94701 34.5836 10.1064 34.5836C10.3457 34.5836 10.6646 34.5646 10.9039 34.5075C11.3624 34.393 11.4222 33.9545 11.4421 32.5431L11.6016 22.9311C11.6016 22.6069 11.7212 22.3781 11.9006 22.3781C12.1199 22.3781 12.3591 22.6259 12.6581 22.9119C12.8775 23.1218 15.5089 25.6963 18.0605 28.0803C19.2567 29.2055 21.589 31.4941 21.8482 31.723H21.9278L21.7485 24.5138C21.7284 23.5221 21.569 23.2361 21.1503 23.0834C20.8912 22.9883 20.4726 22.9883 20.2332 22.9883C20.014 22.9883 19.9542 22.9119 19.9542 22.8165C19.9542 22.683 20.1337 22.6639 20.3928 22.6639C21.3099 22.6639 22.2467 22.7022 22.6255 22.7022C22.825 22.7022 23.4827 22.6639 24.3401 22.6639C24.5792 22.6639 24.7386 22.683 24.7386 22.8165C24.7386 22.9118 24.6389 22.9883 24.4396 22.9883C24.26 22.9883 24.1206 22.9883 23.9013 23.0454C23.4229 23.179 23.2833 23.4651 23.2633 24.3804L23.0639 34.6028C23.0639 34.965 22.9245 35.1177 22.7849 35.1177C22.4859 35.1177 22.2467 34.9461 22.0672 34.7742C20.9709 33.8017 18.7779 31.7992 16.944 30.1018C15.0303 28.3473 13.1763 26.3828 12.8374 26.0968H12.7775L12.977 32.7147ZM28.5254 34.7172C28.2464 34.6028 28.1865 34.5263 28.1865 34.164C28.1865 33.2868 28.2662 32.2761 28.2861 32.0091C28.2861 31.7613 28.3658 31.5895 28.5055 31.5895C28.6649 31.5895 28.6849 31.742 28.6849 31.8564C28.6849 32.0663 28.7447 32.4096 28.8443 32.6956C29.223 33.8971 30.5388 34.2975 31.6353 34.2975C33.1503 34.2975 34.0673 33.3822 34.0673 32.2379C34.0673 31.5324 33.8878 30.8267 32.333 29.9494L31.3162 29.3773C29.243 28.2137 28.5653 27.1268 28.5653 25.6963C28.5653 23.7129 30.5587 22.4351 32.9908 22.4351C34.1271 22.4351 35.0242 22.5876 35.4827 22.7022C35.6422 22.7404 35.7219 22.7975 35.7219 22.9119C35.7219 23.1218 35.662 23.5793 35.662 24.8573C35.662 25.2006 35.5824 25.372 35.4426 25.372C35.3231 25.372 35.2632 25.2767 35.2632 25.086C35.2632 24.9335 35.1836 24.4378 34.8047 24.0181C34.5455 23.7129 33.9874 23.2553 32.8511 23.2553C31.5953 23.2553 30.4589 23.8846 30.4589 24.9907C30.4589 25.7155 30.738 26.2877 32.3127 27.1268L33.0304 27.5082C35.3429 28.7287 36.0604 29.9684 36.0604 31.4368C36.0604 32.6384 35.582 33.6111 34.3063 34.4692C33.469 35.0413 32.3127 35.1367 31.3758 35.1367C30.3597 35.1368 29.283 35.0414 28.5254 34.7172ZM40.6855 27.3555C40.6855 24.8952 40.6855 24.4378 40.6657 23.9227C40.6258 23.3697 40.4463 23.1789 40.0675 23.0644C39.8682 23.0072 39.6489 22.9883 39.4296 22.9883C39.2501 22.9883 39.1505 22.95 39.1505 22.7975C39.1505 22.7022 39.29 22.6639 39.5691 22.6639C40.2271 22.6639 41.423 22.7022 41.9214 22.7022C42.3601 22.7022 43.4962 22.6639 44.1742 22.6639C44.3934 22.6639 44.533 22.7022 44.533 22.7975C44.533 22.95 44.4334 22.9883 44.2539 22.9883C44.0746 22.9883 43.935 23.0073 43.7357 23.0454C43.2572 23.1218 43.1177 23.3507 43.0777 23.9228C43.0379 24.4378 43.0379 24.8953 43.0379 27.3556V30.2165C43.0379 31.7804 43.038 33.0773 43.1175 33.7638C43.1774 34.2026 43.2971 34.4504 43.8153 34.5265C44.0544 34.5648 44.4532 34.5839 44.7124 34.5839C44.9117 34.5839 44.9913 34.6792 44.9913 34.7556C44.9913 34.87 44.8519 34.9272 44.6524 34.9272C43.4962 34.9272 42.3002 34.87 41.8217 34.87C41.423 34.87 40.227 34.9272 39.5292 34.9272C39.3099 34.9272 39.1903 34.87 39.1903 34.7556C39.1903 34.6793 39.2501 34.5839 39.4694 34.5839C39.7286 34.5839 39.9278 34.5648 40.0873 34.5265C40.4462 34.4504 40.5459 34.2215 40.6056 33.7448C40.6852 33.0774 40.6852 31.7805 40.6852 30.2166V27.3555H40.6855ZM51.9884 29.1482C51.9884 30.8647 52.0083 32.1044 52.0283 32.4286C52.0481 32.8291 52.0883 33.4012 52.2276 33.5729C52.447 33.878 53.1446 34.2213 54.5201 34.2213C56.1148 34.2213 57.291 33.9544 58.3477 33.1151C59.4839 32.2188 59.8429 30.7693 59.8429 29.0912C59.8429 27.0315 58.9856 25.6963 58.2081 25.0481C56.5933 23.6749 54.6796 23.5033 53.3042 23.5033C52.945 23.5033 52.367 23.5414 52.2275 23.6176C52.0681 23.6749 52.0082 23.7512 52.0082 23.9418C51.9883 24.495 51.9883 25.83 51.9883 27.1076V29.1482H51.9884ZM49.6361 27.3555C49.6361 24.8952 49.6361 24.4378 49.616 23.9227C49.5761 23.3697 49.4167 23.1979 48.8586 23.0453C48.7189 23.0072 48.4198 22.9882 48.1608 22.9882C47.9814 22.9882 47.8619 22.9308 47.8619 22.8164C47.8619 22.7021 48.0014 22.6638 48.2605 22.6638C49.1776 22.6638 50.2938 22.7021 50.7924 22.7021C51.3304 22.7021 52.5865 22.6638 53.6431 22.6638C55.8359 22.6638 58.7861 22.6638 60.6999 24.5137C61.5771 25.353 62.3545 26.707 62.3545 28.6334C62.3545 30.6741 61.4376 32.2188 60.4408 33.1533C59.6434 33.916 57.7893 35.0603 54.5599 35.0603C53.922 35.0603 53.1645 35.0031 52.4669 34.9649C51.7691 34.9076 51.1311 34.8696 50.6926 34.8696C50.4932 34.8696 50.1144 34.8888 49.6959 34.8888C49.2774 34.9077 48.8387 34.9269 48.4797 34.9269C48.2605 34.9269 48.1409 34.8696 48.1409 34.7553C48.1409 34.6789 48.2007 34.5835 48.4198 34.5835C48.679 34.5835 48.8785 34.5645 49.038 34.5262C49.3969 34.4501 49.4965 34.145 49.5563 33.6681C49.636 32.9816 49.636 31.7038 49.636 30.2161V27.3555H49.6361ZM66.8391 27.3555C66.8391 24.8952 66.8391 24.4378 66.8192 23.9227C66.7793 23.3697 66.62 23.1979 66.0617 23.0453C65.9223 23.0072 65.6231 22.9882 65.3639 22.9882C65.1847 22.9882 65.065 22.9308 65.065 22.8164C65.065 22.7021 65.2046 22.6638 65.4637 22.6638C66.3808 22.6638 67.497 22.7021 67.9955 22.7021C68.5536 22.7021 72.4408 22.721 72.7798 22.7021C73.0989 22.6829 73.3778 22.6258 73.5174 22.6068C73.6172 22.5875 73.7167 22.5304 73.7965 22.5304C73.8961 22.5304 73.9162 22.6068 73.9162 22.683C73.9162 22.7975 73.8165 22.9883 73.7765 23.7321C73.7567 23.9036 73.7166 24.6093 73.6769 24.7999C73.657 24.8762 73.6172 25.067 73.4776 25.067C73.3581 25.067 73.3379 24.9907 73.3379 24.8572C73.3379 24.7428 73.3179 24.4567 73.2184 24.2659C73.0788 23.9799 72.9393 23.7511 72.0622 23.6746C71.7631 23.6364 69.67 23.5985 69.3111 23.5985C69.2315 23.5985 69.1916 23.6556 69.1916 23.7511V27.7561C69.1916 27.8514 69.2115 27.9277 69.3111 27.9277C69.7098 27.9277 71.9825 27.9277 72.3813 27.8896C72.7997 27.8514 73.0589 27.8134 73.2184 27.6418C73.3581 27.5274 73.4178 27.4319 73.4977 27.4319C73.5773 27.4319 73.6371 27.5082 73.6371 27.6035C73.6371 27.6989 73.5971 27.9658 73.4977 28.786C73.4574 29.1103 73.4178 29.7587 73.4178 29.8731C73.4178 30.0065 73.3979 30.2355 73.2385 30.2355C73.1188 30.2355 73.0788 30.1783 73.0788 30.1019C73.0589 29.9304 73.0589 29.7206 73.0191 29.5108C72.9195 29.1865 72.7 28.9385 72.0423 28.8813C71.7234 28.8431 69.7298 28.8051 69.2915 28.8051C69.2115 28.8051 69.1916 28.8813 69.1916 28.9767V30.2736C69.1916 30.8267 69.1717 32.1998 69.1916 32.6766C69.2317 33.7826 69.7696 34.0306 71.564 34.0306C72.0223 34.0306 72.76 34.0115 73.2185 33.8207C73.6571 33.6302 73.8567 33.2868 73.976 32.6194C74.016 32.4477 74.0557 32.3716 74.1755 32.3716C74.3149 32.3716 74.3351 32.5813 74.3351 32.753C74.3351 33.115 74.1954 34.2213 74.0956 34.5453C73.9761 34.9649 73.8168 34.9649 73.159 34.9649C71.8432 34.9649 70.7866 34.946 69.9295 34.9076C69.0722 34.8887 68.4142 34.8695 67.8961 34.8695C67.6965 34.8695 67.3179 34.8887 66.8994 34.8887C66.4808 34.9076 66.0422 34.9268 65.683 34.9268C65.464 34.9268 65.3445 34.8695 65.3445 34.7552C65.3445 34.6788 65.4042 34.5834 65.6233 34.5834C65.8825 34.5834 66.082 34.5644 66.2414 34.5261C66.6002 34.4499 66.6998 34.1449 66.7597 33.668C66.8394 32.9816 66.8394 31.7038 66.8394 30.2161L66.8391 27.3555ZM80.9927 28.6144C80.9927 28.7859 81.0325 28.8431 81.1521 28.9004C81.5308 29.0149 82.0491 29.053 82.4879 29.053C83.1856 29.053 83.4247 28.9958 83.7236 28.7859C84.2621 28.4237 84.8601 27.7179 84.8601 26.3829C84.8601 24.0943 83.2254 23.5032 82.1886 23.5032C81.7503 23.5032 81.3316 23.5221 81.1521 23.5604C81.0325 23.5986 80.9927 23.6556 80.9927 23.7892V28.6144ZM78.76 27.3555C78.76 24.8952 78.76 24.4378 78.74 23.9227C78.7 23.3697 78.5406 23.1979 77.9823 23.0453C77.8428 23.0072 77.5439 22.9882 77.2848 22.9882C77.1053 22.9882 76.9858 22.9308 76.9858 22.8164C76.9858 22.7021 77.1254 22.6638 77.3844 22.6638C78.3014 22.6638 79.4178 22.7021 79.7766 22.7021C80.3746 22.7021 81.9695 22.6638 82.5076 22.6638C83.624 22.6638 84.8999 22.7593 85.8368 23.3504C86.3352 23.6746 87.0728 24.4948 87.0728 25.5818C87.0728 26.7833 86.3551 27.8513 84.6407 29.1672C86.1956 30.998 87.4316 32.4667 88.4882 33.4774C89.465 34.4118 90.0829 34.4881 90.3621 34.5452C90.5415 34.5834 90.6411 34.5834 90.7806 34.5834C90.9202 34.5834 91 34.6787 91 34.7552C91 34.8887 90.8804 34.9268 90.661 34.9268H88.9866C88.0097 34.9268 87.5313 34.8315 87.0728 34.6026C86.3151 34.2403 85.6576 33.4774 84.6806 32.2187C83.9827 31.3413 83.2454 30.2542 83.0259 30.0063C82.9263 29.911 82.8263 29.892 82.7068 29.892L81.1321 29.8539C81.0524 29.8539 80.9926 29.892 80.9926 29.9874V30.2161C80.9926 31.7227 81.0124 32.9815 81.0922 33.6681C81.152 34.145 81.2317 34.4501 81.7699 34.5262C82.0291 34.5645 82.4079 34.5835 82.6271 34.5835C82.7666 34.5835 82.8465 34.6788 82.8465 34.7553C82.8465 34.8696 82.7068 34.9269 82.4877 34.9269C81.4709 34.9269 80.0156 34.8696 79.7565 34.8696C79.4177 34.8696 78.3012 34.9269 77.6035 34.9269C77.3843 34.9269 77.2646 34.8696 77.2646 34.7553C77.2646 34.6789 77.3245 34.5835 77.5438 34.5835C77.8028 34.5835 78.0023 34.5645 78.1617 34.5262C78.5207 34.4501 78.6201 34.145 78.6799 33.6681C78.7597 32.9816 78.7597 31.7038 78.7597 30.2161V27.3555" fill="#376180"/>
</svg>