<svg width="65" height="65" viewBox="0 0 65 65" fill="none" xmlns="http://www.w3.org/2000/svg">
<g opacity="0.5">
<path fill-rule="evenodd" clip-rule="evenodd" d="M27.5774 41.1586L26.7733 43.0349C25.2098 43.839 23.6909 44.4197 22.172 44.7771C20.6531 45.1345 19.0449 45.3132 17.258 45.3132C15.2031 45.3132 13.2374 45.0452 11.4952 44.5091C9.70829 43.973 8.14473 43.2582 6.84922 42.2754C5.50903 41.2926 4.43688 40.2205 3.5881 39.0143C2.73931 37.8081 2.11389 36.5126 1.66716 35.0831C1.22043 33.6982 0.99707 32.1347 0.99707 30.4371C0.99707 26.1485 2.47128 22.6194 5.46436 19.8496C8.45744 17.0352 12.5227 15.6504 17.6601 15.6504C18.8662 15.6504 19.9831 15.7397 21.0552 15.8738C22.0827 16.0078 23.3782 16.2758 24.8524 16.6779C26.3266 17.0799 27.2647 17.3033 27.5774 17.3926C27.3094 18.1521 27.086 18.8668 26.952 19.5816C26.7287 20.7431 26.5946 22.0386 26.55 23.5575H25.2991V21.1898C25.1651 19.8943 24.4503 18.9115 23.1102 18.2414C21.77 17.616 19.849 17.2586 17.3027 17.2586C15.3817 17.3033 13.7735 17.5267 12.4333 17.9734C11.0931 18.4201 9.93165 19.1795 8.90417 20.1624C7.8767 21.1452 7.07258 22.396 6.40249 23.9595C5.77707 25.4784 5.41969 27.3994 5.41969 29.7224C5.41969 33.7876 6.67053 37.004 9.12754 39.5057C11.5845 41.9627 14.8903 43.2136 18.9556 43.2136C20.7872 43.2136 22.4847 42.9455 24.0483 42.4541C25.1204 42.0967 26.1926 41.5607 27.2201 40.8459L27.5774 41.1586Z" fill="#376180"/>
<path fill-rule="evenodd" clip-rule="evenodd" d="M28.2021 17.4823V16.1421C30.8825 16.2314 33.0268 16.2761 34.5904 16.2761C35.6178 16.2761 36.7347 16.2761 37.8962 16.2314L41.0233 16.0974C41.3807 16.0974 41.6934 16.0527 42.0061 16.0527C44.1504 16.0527 45.8033 16.2761 47.0094 16.7675C48.2156 17.2589 49.1537 17.9737 49.8685 19.0011C50.5386 20.0286 50.896 21.1901 50.896 22.5303C50.896 23.7365 50.6279 24.898 50.0472 26.0595C49.4664 27.221 48.6623 28.2038 47.5902 29.0525C46.518 29.8567 45.3565 30.4374 44.195 30.7948C43.3909 31.0182 42.4975 31.1522 41.47 31.1522C40.6212 31.1522 39.6831 31.0628 38.7003 30.8841L38.2536 29.3653C39.4597 29.6333 40.3532 29.7673 41.0679 29.7673C42.0507 29.7673 43.0335 29.544 43.927 29.0079C44.8205 28.5165 45.5352 27.757 46.0266 26.7742C46.518 25.7914 46.7861 24.6746 46.7861 23.5131C46.7861 22.3516 46.5627 21.3241 46.0713 20.386C45.5799 19.4479 44.8205 18.7331 43.8377 18.2417C42.8549 17.7503 41.6487 17.5269 40.2192 17.5269C38.9683 17.5269 37.5835 17.7503 36.1093 18.197C36.0199 19.6266 35.9752 21.8602 35.9752 24.8533V34.994C35.9752 36.8256 36.0199 38.5679 36.1093 40.3101C36.1539 41.561 36.2433 42.3204 36.3773 42.5884C36.5113 42.8118 36.7793 42.9905 37.0921 43.1245C37.4048 43.2585 38.3429 43.3032 39.8618 43.3479V44.6881C37.4048 44.5987 35.6178 44.554 34.4564 44.554C34.0096 44.554 31.9547 44.5987 28.2468 44.6881V43.3479C29.7657 43.3032 30.7038 43.2585 31.0165 43.1245C31.3292 42.9905 31.5973 42.8565 31.7313 42.6331C31.8653 42.3651 31.9993 41.7396 31.9993 40.6675C31.9993 40.3995 32.044 38.4785 32.1334 34.994V25.7914C32.1334 23.9598 32.0887 22.2176 31.9993 20.4754C31.9547 19.2245 31.8653 18.4651 31.7313 18.2417C31.5973 18.0183 31.3292 17.8397 31.0165 17.7056C30.6592 17.5716 29.721 17.4823 28.2021 17.4823Z" fill="#376180"/>
<path fill-rule="evenodd" clip-rule="evenodd" d="M48.2607 64.0314L48.3054 62.6466V62.3785C48.3054 62.0658 48.3054 61.5744 48.2607 60.949L48.6628 60.6809C49.0649 60.949 49.4222 61.1724 49.7349 61.2617C50.0477 61.351 50.4497 61.4404 50.8518 61.4404C51.5665 61.4404 52.1473 61.3064 52.5047 60.9937C52.9067 60.7256 53.1748 60.2789 53.3535 59.6535C53.5321 59.028 53.6215 57.4198 53.6215 54.8288V25.7914C53.6215 23.9598 53.5768 22.1729 53.4875 20.4307C53.4428 19.1798 53.3981 18.4204 53.2194 18.1524C53.0854 17.929 52.8174 17.7503 52.5047 17.6163C52.192 17.4823 51.2538 17.4376 49.7349 17.3929V16.0527C51.7899 16.1421 53.7555 16.1868 55.5424 16.1868C57.4634 16.1868 59.3843 16.1421 61.3946 16.0527V17.3929C59.8757 17.4376 58.9376 17.4823 58.6249 17.6163C58.3121 17.7503 58.0441 17.8843 57.9548 18.1077C57.7761 18.3757 57.6867 19.0458 57.6421 20.0733C57.6421 20.3413 57.5974 22.2623 57.508 25.7914V40.2208C57.508 42.4097 57.3293 55.7669 56.9273 57.0178C56.5699 58.2686 55.8998 59.5195 55.051 60.6363C54.1576 61.7978 53.1748 62.6466 52.1473 63.2273C51.1198 63.808 50.0923 64.1208 49.1095 64.1208C48.8415 64.1654 48.5735 64.1208 48.2607 64.0314Z" fill="#376180"/>
<path fill-rule="evenodd" clip-rule="evenodd" d="M50.6281 13.7295C50.1367 13.9528 49.0198 8.10067 51.9682 5.86702C53.7552 4.48216 55.4527 3.49936 55.8101 0.104217C55.8548 -0.16382 57.8204 2.24852 57.195 6.31375C57.195 6.31375 58.7585 2.06983 64.0746 1.48908C64.566 1.4444 59.6967 4.30347 58.9819 9.97693C58.9819 9.97693 60.9028 10.1109 63.0024 8.45805C63.0024 8.45805 62.6897 11.8085 57.1056 13.2827C57.0609 13.2381 53.9338 12.0766 50.6281 13.7295Z" fill="#376180"/>
</g>
</svg>