<svg width="255" height="45" viewBox="0 0 255 45" fill="none" xmlns="http://www.w3.org/2000/svg">
<path d="M57.8728 30.2055C56.7933 29.6306 55.9451 28.864 55.3282 27.829C54.7498 26.8324 54.4414 25.6442 54.4414 24.341V17.9781C54.4414 16.6365 54.7498 15.4866 55.3282 14.49C55.9065 13.4934 56.7547 12.6885 57.8728 12.1519C58.9523 11.6152 60.2247 11.3086 61.6897 11.3086C63.1163 11.3086 64.35 11.5769 65.4681 12.1135C66.5477 12.6502 67.3959 13.3784 68.0127 14.3367C68.6296 15.295 68.8995 16.4065 68.8995 17.6715C68.8995 17.8248 68.7839 17.9398 68.5525 17.9781L65.3139 18.1698H65.2753C65.0826 18.1698 65.0055 18.0548 65.0055 17.8631C65.0055 16.9048 64.697 16.0999 64.1187 15.5249C63.5018 14.95 62.7307 14.6433 61.7283 14.6433C60.7259 14.6433 59.9162 14.95 59.3379 15.5249C58.721 16.0999 58.4511 16.9048 58.4511 17.8631V24.5326C58.4511 25.4909 58.7596 26.2575 59.3379 26.8324C59.9548 27.4074 60.7259 27.714 61.7283 27.714C62.6922 27.714 63.5018 27.4074 64.1187 26.8324C64.7356 26.2575 65.0055 25.4525 65.0055 24.5326C65.0055 24.341 65.1211 24.226 65.3525 24.226L68.5911 24.3793C68.6682 24.3793 68.7453 24.4176 68.8224 24.456C68.8995 24.4943 68.9381 24.5709 68.9381 24.6476C68.9381 25.9125 68.6296 27.0241 68.0513 28.0207C67.4344 28.979 66.6248 29.7456 65.5067 30.2822C64.4271 30.8188 63.1548 31.0871 61.7283 31.0871C60.2247 31.0488 58.9523 30.7805 57.8728 30.2055Z" fill="white"/>
<path d="M84.2054 24.6085C84.2054 24.8385 84.0512 24.9535 83.8584 24.9535H75.2992C75.1835 24.9535 75.145 24.9918 75.1835 25.1068C75.2221 25.4901 75.3378 25.8351 75.492 26.2184C75.9546 27.2533 76.9571 27.7516 78.4222 27.7516C79.6174 27.7516 80.5427 27.2533 81.2367 26.3334C81.3138 26.2184 81.3909 26.18 81.468 26.18C81.5066 26.18 81.5837 26.2184 81.6608 26.295L83.6656 28.2499C83.7427 28.3265 83.8198 28.4415 83.8198 28.4799C83.8198 28.5182 83.7813 28.5949 83.7042 28.7099C83.0873 29.4765 82.3162 30.0514 81.3523 30.4731C80.3885 30.8947 79.3475 31.0863 78.1908 31.0863C76.6101 31.0863 75.2607 30.7414 74.1426 30.0131C73.0245 29.2848 72.2534 28.2882 71.7522 27.0233C71.3666 26.1034 71.1738 24.9151 71.1738 23.4202C71.1738 22.4236 71.328 21.5037 71.5979 20.7371C72.022 19.4339 72.7546 18.3989 73.8341 17.6323C74.9137 16.8657 76.1474 16.4824 77.6125 16.4824C79.4631 16.4824 80.9668 17.019 82.0849 18.0923C83.203 19.1656 83.897 20.5838 84.1283 22.3853C84.2054 22.9603 84.244 23.7652 84.2054 24.6085ZM75.2992 21.3887C75.2221 21.6187 75.145 21.9254 75.1064 22.2703C75.1064 22.347 75.145 22.4236 75.2606 22.4236H80.08C80.1957 22.4236 80.2342 22.3853 80.1957 22.2703C80.1186 21.7337 80.0415 21.4654 80.0415 21.5037C79.8872 20.9671 79.5788 20.5071 79.1547 20.2388C78.7306 19.9705 78.2294 19.7788 77.6125 19.7788C76.4559 19.7788 75.6848 20.3155 75.2992 21.3887Z" fill="white"/>
<path d="M97.6229 17.7861C98.5482 18.7061 98.9723 19.8943 98.9723 21.4659V30.5119C98.9723 30.5885 98.9338 30.6652 98.8566 30.7419C98.7795 30.8185 98.7024 30.8568 98.6253 30.8568H95.3867C95.3096 30.8568 95.2325 30.8185 95.1554 30.7419C95.0783 30.6652 95.0397 30.5885 95.0397 30.5119V22.2325C95.0397 21.5042 94.8469 20.8909 94.4228 20.431C93.9987 19.971 93.459 19.741 92.765 19.741C92.071 19.741 91.5312 19.971 91.1071 20.431C90.683 20.8909 90.4902 21.5042 90.4902 22.2325V30.4735C90.4902 30.5502 90.4517 30.6269 90.3746 30.7035C90.2974 30.7802 90.2203 30.8185 90.1432 30.8185H86.9046C86.8275 30.8185 86.7504 30.7802 86.6733 30.7035C86.5962 30.6269 86.5576 30.5502 86.5576 30.4735V16.9812C86.5576 16.9045 86.5962 16.8279 86.6733 16.7512C86.7504 16.6746 86.8275 16.6362 86.9046 16.6362H90.1432C90.2203 16.6362 90.2974 16.6746 90.3746 16.7512C90.4517 16.8279 90.4902 16.9045 90.4902 16.9812V17.9395C90.4902 17.9778 90.4902 18.0161 90.5288 18.0545C90.5673 18.0545 90.6059 18.0545 90.6059 18.0161C91.377 16.9429 92.4951 16.4062 93.9987 16.4062C95.5409 16.4446 96.7361 16.8662 97.6229 17.7861Z" fill="white"/>
<path d="M104.216 30.5114C103.291 30.1664 102.558 29.6681 102.057 29.0548C101.556 28.4415 101.286 27.7133 101.286 26.9466V26.6783C101.286 26.6017 101.325 26.525 101.402 26.4484C101.479 26.3717 101.556 26.3334 101.633 26.3334H104.718C104.795 26.3334 104.872 26.3717 104.949 26.4484C105.026 26.525 105.065 26.6017 105.065 26.6783V26.7167C105.065 27.1383 105.296 27.4833 105.758 27.7516C106.221 28.0199 106.799 28.1732 107.455 28.1732C108.072 28.1732 108.612 28.0582 108.997 27.7899C109.383 27.5599 109.575 27.215 109.575 26.87C109.575 26.525 109.421 26.295 109.074 26.1417C108.727 25.9884 108.187 25.7967 107.455 25.6051C106.568 25.3751 105.913 25.1834 105.412 24.9535C104.216 24.5318 103.291 24.0335 102.597 23.4586C101.903 22.8836 101.556 22.0403 101.556 20.9288C101.556 19.5489 102.096 18.4756 103.137 17.6707C104.216 16.8657 105.604 16.4824 107.378 16.4824C108.573 16.4824 109.614 16.6741 110.501 17.0574C111.388 17.4407 112.082 17.9773 112.583 18.6289C113.084 19.3189 113.315 20.0855 113.315 20.9288C113.315 21.0054 113.277 21.0821 113.2 21.1587C113.122 21.2354 113.045 21.2737 112.968 21.2737H110C109.922 21.2737 109.845 21.2354 109.768 21.1587C109.691 21.0821 109.653 21.0054 109.653 20.9288C109.653 20.5071 109.46 20.2005 109.036 19.8938C108.612 19.6255 108.072 19.4722 107.378 19.4722C106.761 19.4722 106.26 19.5872 105.874 19.8172C105.489 20.0472 105.296 20.3538 105.296 20.7371C105.296 21.1204 105.489 21.3887 105.874 21.5804C106.26 21.772 106.877 21.9637 107.763 22.1553C107.956 22.1937 108.187 22.2703 108.457 22.347C108.727 22.4236 108.997 22.5003 109.306 22.577C110.616 22.9603 111.657 23.4586 112.429 24.0719C113.2 24.6851 113.585 25.5667 113.585 26.7167C113.585 28.0966 113.045 29.1315 111.966 29.8981C110.886 30.6647 109.421 31.048 107.609 31.048C106.26 31.0097 105.142 30.8564 104.216 30.5114Z" fill="white"/>
<path d="M118.019 29.8227C116.901 29.0177 116.168 27.9061 115.744 26.5262C115.474 25.6446 115.358 24.7247 115.358 23.7281C115.358 22.6549 115.474 21.6583 115.744 20.815C116.168 19.4351 116.939 18.4002 118.057 17.5952C119.175 16.8286 120.486 16.4453 122.067 16.4453C123.571 16.4453 124.881 16.8286 125.961 17.5952C127.041 18.3618 127.812 19.4351 128.236 20.7767C128.544 21.6966 128.698 22.6549 128.698 23.6898C128.698 24.6864 128.583 25.6063 128.313 26.4879C127.889 27.9061 127.156 29.056 126.038 29.861C124.92 30.6659 123.609 31.0876 122.067 31.0876C120.525 31.0876 119.137 30.6659 118.019 29.8227ZM123.571 27.1779C123.995 26.7945 124.303 26.2962 124.496 25.6446C124.65 25.0697 124.727 24.4181 124.727 23.7281C124.727 22.9615 124.65 22.3099 124.496 21.7733C124.303 21.16 123.995 20.6617 123.571 20.3167C123.146 19.9717 122.645 19.7801 122.028 19.7801C121.412 19.7801 120.872 19.9717 120.448 20.3167C120.024 20.6617 119.715 21.16 119.561 21.7733C119.407 22.2332 119.33 22.8848 119.33 23.7281C119.33 24.5714 119.407 25.1847 119.522 25.6446C119.715 26.2962 120.024 26.7945 120.448 27.1779C120.872 27.5612 121.412 27.7145 122.028 27.7145C122.645 27.7145 123.146 27.5228 123.571 27.1779Z" fill="white"/>
<path d="M139.879 16.8286C140.034 16.9053 140.072 17.0586 140.034 17.2503L139.455 20.3934C139.455 20.6233 139.301 20.6617 139.07 20.585C138.8 20.5083 138.453 20.4317 138.106 20.4317C137.952 20.4317 137.759 20.4317 137.489 20.47C136.834 20.5083 136.255 20.7767 135.793 21.1983C135.33 21.6199 135.099 22.1949 135.099 22.9232V30.4743C135.099 30.5509 135.06 30.6276 134.983 30.7043C134.906 30.7809 134.829 30.8192 134.752 30.8192H131.513C131.436 30.8192 131.359 30.7809 131.282 30.7043C131.205 30.6276 131.166 30.5509 131.166 30.4743V16.9819C131.166 16.9053 131.205 16.8286 131.282 16.752C131.359 16.6753 131.436 16.637 131.513 16.637H134.752C134.829 16.637 134.906 16.6753 134.983 16.752C135.06 16.8286 135.099 16.9053 135.099 16.9819V18.0169C135.099 18.0552 135.099 18.0935 135.137 18.1319C135.176 18.1319 135.214 18.1319 135.214 18.0935C135.985 16.9819 136.988 16.4453 138.26 16.4453C138.954 16.4453 139.494 16.5986 139.879 16.8286Z" fill="white"/>
<path d="M154.222 24.6085C154.222 24.8385 154.068 24.9535 153.875 24.9535H145.316C145.2 24.9535 145.162 24.9918 145.2 25.1068C145.239 25.4901 145.354 25.8351 145.509 26.2184C145.971 27.2533 146.974 27.7516 148.439 27.7516C149.634 27.7516 150.559 27.2533 151.253 26.3334C151.33 26.2184 151.407 26.18 151.485 26.18C151.523 26.18 151.6 26.2184 151.677 26.295L153.682 28.2499C153.759 28.3265 153.836 28.4415 153.836 28.4799C153.836 28.5182 153.798 28.5949 153.721 28.7099C153.104 29.4765 152.333 30.0514 151.369 30.4731C150.405 30.8947 149.364 31.0863 148.207 31.0863C146.627 31.0863 145.277 30.7414 144.159 30.0131C143.041 29.2848 142.27 28.2882 141.769 27.0233C141.383 26.1034 141.19 24.9151 141.19 23.4202C141.19 22.4236 141.345 21.5037 141.615 20.7371C142.039 19.4339 142.771 18.3989 143.851 17.6323C144.93 16.8657 146.164 16.4824 147.629 16.4824C149.48 16.4824 150.983 17.019 152.101 18.0923C153.22 19.1656 153.914 20.5838 154.145 22.3853C154.222 22.9603 154.222 23.7652 154.222 24.6085ZM145.316 21.3887C145.239 21.6187 145.162 21.9254 145.123 22.2703C145.123 22.347 145.162 22.4236 145.277 22.4236H150.097C150.212 22.4236 150.251 22.3853 150.212 22.2703C150.135 21.7337 150.058 21.4654 150.058 21.5037C149.904 20.9671 149.595 20.5071 149.171 20.2388C148.747 19.9705 148.246 19.7788 147.629 19.7788C146.472 19.7788 145.701 20.3155 145.316 21.3887Z" fill="white"/>
<path d="M165.556 11.615C165.634 11.5383 165.711 11.5 165.788 11.5H169.026C169.103 11.5 169.181 11.5383 169.258 11.615C169.335 11.6917 169.373 11.7683 169.373 11.845V30.5119C169.373 30.5886 169.335 30.6652 169.258 30.7419C169.181 30.8186 169.103 30.8569 169.026 30.8569H165.788C165.711 30.8569 165.634 30.8186 165.556 30.7419C165.479 30.6652 165.441 30.5886 165.441 30.5119V29.592C165.441 29.5537 165.441 29.5153 165.402 29.477C165.364 29.477 165.325 29.477 165.287 29.5153C164.515 30.5119 163.436 31.0486 162.086 31.0486C160.776 31.0486 159.657 30.7036 158.732 29.9753C157.807 29.247 157.113 28.2888 156.727 27.0238C156.419 26.0656 156.265 24.954 156.265 23.6891C156.265 22.3859 156.419 21.2359 156.766 20.2777C157.19 19.0894 157.845 18.1695 158.771 17.4796C159.696 16.7896 160.814 16.4446 162.164 16.4446C163.513 16.4446 164.515 16.9046 165.287 17.8245C165.325 17.8629 165.364 17.9012 165.402 17.8629C165.441 17.8629 165.441 17.8245 165.441 17.7479V11.845C165.479 11.7683 165.518 11.6917 165.556 11.615ZM165.441 23.7274C165.441 22.5009 165.248 21.5426 164.824 20.8143C164.4 20.086 163.783 19.7411 162.973 19.7411C162.086 19.7411 161.431 20.086 161.007 20.8143C160.544 21.5426 160.313 22.5009 160.313 23.7274C160.313 24.839 160.506 25.7589 160.891 26.4872C161.354 27.2922 162.048 27.6755 162.935 27.6755C163.783 27.6755 164.4 27.2922 164.862 26.4872C165.248 25.8356 165.441 24.9157 165.441 23.7274Z" fill="white"/>
<path d="M189.384 12.2275C190.309 12.7258 191.042 13.4158 191.543 14.3357C192.044 15.2557 192.314 16.2906 192.314 17.4788C192.314 18.6287 192.044 19.6637 191.504 20.5453C190.965 21.4269 190.232 22.1168 189.268 22.6151C188.304 23.1134 187.225 23.3434 185.991 23.3434H182.059C181.981 23.3434 181.904 23.3817 181.904 23.4967V30.5495C181.904 30.6262 181.866 30.7028 181.789 30.7795C181.712 30.8562 181.634 30.8945 181.557 30.8945H178.319C178.242 30.8945 178.164 30.8562 178.087 30.7795C178.01 30.7028 177.972 30.6262 177.972 30.5495V11.8059C177.972 11.7293 178.01 11.6526 178.087 11.5759C178.164 11.4993 178.242 11.4609 178.319 11.4609H186.145C187.379 11.4993 188.459 11.7293 189.384 12.2275ZM187.61 19.472C188.112 18.9737 188.382 18.3604 188.382 17.5555C188.382 16.7505 188.112 16.0989 187.61 15.6006C187.109 15.1023 186.415 14.8724 185.567 14.8724H182.059C181.981 14.8724 181.904 14.9107 181.904 15.0257V20.0853C181.904 20.162 181.943 20.2386 182.059 20.2386H185.567C186.415 20.2003 187.109 19.9703 187.61 19.472Z" fill="white"/>
<path d="M194.55 30.7419C194.473 30.6652 194.435 30.5886 194.435 30.5119V11.845C194.435 11.7683 194.473 11.6917 194.55 11.615C194.627 11.5383 194.704 11.5 194.782 11.5H198.02C198.097 11.5 198.174 11.5383 198.252 11.615C198.329 11.6917 198.367 11.7683 198.367 11.845V30.5119C198.367 30.5886 198.329 30.6652 198.252 30.7419C198.174 30.8186 198.097 30.8569 198.02 30.8569H194.782C194.704 30.8186 194.627 30.8186 194.55 30.7419Z" fill="white"/>
<path d="M210.127 17.0571C211.052 17.4788 211.823 18.0537 212.324 18.7437C212.825 19.4336 213.134 20.2769 213.134 21.1585V30.5111C213.134 30.5878 213.095 30.6645 213.018 30.7411C212.941 30.8178 212.864 30.8561 212.787 30.8561H209.548C209.471 30.8561 209.394 30.8178 209.317 30.7411C209.24 30.6645 209.201 30.5878 209.201 30.5111V29.5912C209.201 29.5529 209.201 29.5145 209.163 29.4762C209.124 29.4762 209.086 29.4762 209.047 29.5145C208.276 30.5111 207.004 31.0478 205.307 31.0478C203.881 31.0478 202.685 30.7028 201.799 30.0128C200.912 29.3229 200.449 28.288 200.449 26.9081C200.449 25.4898 200.95 24.3783 201.953 23.6116C202.955 22.845 204.382 22.4234 206.232 22.4234H209.047C209.124 22.4234 209.201 22.3851 209.201 22.2701V21.6568C209.201 21.0435 209.008 20.5835 208.661 20.2386C208.276 19.8936 207.736 19.7403 207.004 19.7403C206.425 19.7403 205.963 19.8553 205.577 20.0469C205.191 20.2386 204.96 20.5452 204.844 20.8902C204.806 21.0818 204.652 21.1968 204.497 21.1585L201.143 20.6985C200.912 20.6602 200.835 20.5835 200.835 20.4686C200.912 19.7019 201.22 19.012 201.76 18.3604C202.3 17.7471 203.032 17.2488 203.919 16.9038C204.806 16.5588 205.808 16.3672 206.926 16.3672C208.122 16.4438 209.201 16.6355 210.127 17.0571ZM208.392 27.5214C208.931 27.0997 209.24 26.5631 209.24 25.9115V24.9149C209.24 24.8382 209.201 24.7616 209.086 24.7616H207.081C206.232 24.7616 205.577 24.9149 205.114 25.2215C204.652 25.5282 204.42 25.9881 204.42 26.5631C204.42 27.0614 204.613 27.4447 204.96 27.7513C205.307 28.0197 205.77 28.173 206.387 28.173C207.158 28.173 207.813 27.943 208.392 27.5214Z" fill="white"/>
<path d="M226.897 17.7861C227.823 18.7061 228.247 19.8943 228.247 21.4659V30.5119C228.247 30.5885 228.208 30.6652 228.131 30.7419C228.054 30.8185 227.977 30.8568 227.9 30.8568H224.661C224.584 30.8568 224.507 30.8185 224.43 30.7419C224.353 30.6652 224.314 30.5885 224.314 30.5119V22.2325C224.314 21.5042 224.121 20.8909 223.697 20.431C223.273 19.971 222.733 19.741 222.039 19.741C221.345 19.741 220.806 19.971 220.382 20.431C219.957 20.8909 219.765 21.5042 219.765 22.2325V30.4735C219.765 30.5502 219.726 30.6269 219.649 30.7035C219.572 30.7802 219.495 30.8185 219.418 30.8185H216.179C216.102 30.8185 216.025 30.7802 215.948 30.7035C215.871 30.6269 215.832 30.5502 215.832 30.4735V16.9812C215.832 16.9045 215.871 16.8279 215.948 16.7512C216.025 16.6746 216.102 16.6362 216.179 16.6362H219.418C219.495 16.6362 219.572 16.6746 219.649 16.7512C219.726 16.8279 219.765 16.9045 219.765 16.9812V17.9395C219.765 17.9778 219.765 18.0161 219.803 18.0545C219.842 18.0545 219.88 18.0545 219.88 18.0161C220.651 16.9429 221.769 16.4062 223.273 16.4062C224.815 16.4446 226.011 16.8662 226.897 17.7861Z" fill="white"/>
<path d="M243.707 24.6085C243.707 24.8385 243.553 24.9535 243.36 24.9535H234.801C234.686 24.9535 234.647 24.9918 234.686 25.1068C234.724 25.4901 234.84 25.8351 234.994 26.2184C235.457 27.2533 236.459 27.7516 237.924 27.7516C239.119 27.7516 240.045 27.2533 240.739 26.3334C240.816 26.2184 240.893 26.18 240.97 26.18C241.009 26.18 241.086 26.2184 241.163 26.295L243.168 28.2499C243.245 28.3265 243.322 28.4415 243.322 28.4799C243.322 28.5182 243.283 28.5949 243.206 28.7099C242.589 29.4765 241.818 30.0514 240.854 30.4731C239.89 30.8947 238.849 31.0863 237.693 31.0863C236.112 31.0863 234.763 30.7414 233.645 30.0131C232.526 29.2848 231.755 28.2882 231.254 27.0233C230.869 26.1034 230.676 24.9151 230.676 23.4202C230.676 22.4236 230.83 21.5037 231.1 20.7371C231.524 19.4339 232.257 18.3989 233.336 17.6323C234.416 16.8657 235.649 16.4824 237.114 16.4824C238.965 16.4824 240.469 17.019 241.587 18.0923C242.705 19.1656 243.399 20.5838 243.63 22.3853C243.707 22.9603 243.746 23.7652 243.707 24.6085ZM234.84 21.3887C234.763 21.6187 234.685 21.9254 234.647 22.2703C234.647 22.347 234.686 22.4236 234.801 22.4236H239.621C239.736 22.4236 239.775 22.3853 239.736 22.2703C239.659 21.7337 239.582 21.4654 239.582 21.5037C239.428 20.9671 239.119 20.5071 238.695 20.2388C238.271 19.9705 237.77 19.7788 237.153 19.7788C235.996 19.7788 235.225 20.3155 234.84 21.3887Z" fill="white"/>
<path d="M253.886 19.6639C253.809 19.7406 253.732 19.7789 253.655 19.7789H250.995C250.917 19.7789 250.84 19.8172 250.84 19.9322V25.7968C250.84 26.4101 250.956 26.87 251.226 27.1383C251.457 27.445 251.881 27.5983 252.421 27.5983H253.346C253.424 27.5983 253.501 27.6366 253.578 27.7133C253.655 27.79 253.693 27.8666 253.693 27.9433V30.5498C253.693 30.7414 253.578 30.8564 253.346 30.8947C252.575 30.9331 251.997 30.9331 251.689 30.9331C250.146 30.9331 248.99 30.6647 248.257 30.1664C247.486 29.6681 247.101 28.7099 247.101 27.2917V19.8939C247.101 19.8172 247.062 19.7406 246.946 19.7406H245.366C245.288 19.7406 245.211 19.7022 245.134 19.6256C245.057 19.5489 245.019 19.4722 245.019 19.3956V16.9424C245.019 16.8658 245.057 16.7891 245.134 16.7124C245.211 16.6358 245.288 16.5975 245.366 16.5975H246.946C247.023 16.5975 247.101 16.5591 247.101 16.4441V13.1477C247.101 13.071 247.139 12.9944 247.216 12.9177C247.293 12.8411 247.37 12.8027 247.448 12.8027H250.57C250.648 12.8027 250.725 12.8411 250.802 12.9177C250.879 12.9944 250.917 13.071 250.917 13.1477V16.4441C250.917 16.5208 250.956 16.5975 251.072 16.5975H253.732C253.809 16.5975 253.886 16.6358 253.963 16.7124C254.04 16.7891 254.079 16.8658 254.079 16.9424V19.3956C254.002 19.5106 253.963 19.5872 253.886 19.6639Z" fill="white"/>
<path d="M32.6193 5.13555C29.5735 2.10744 25.5638 0.574219 21.554 0.574219C17.5443 0.574219 13.5346 2.10744 10.4502 5.13555C4.31998 11.2301 4.31998 21.081 10.4502 27.1756C13.4961 30.2037 17.5058 31.7369 21.554 31.7369C25.6023 31.7369 29.5735 30.2037 32.6579 27.1756C38.7495 21.081 38.7495 11.2301 32.6193 5.13555ZM13.9973 8.66195C16.0021 6.66877 18.701 5.55718 21.554 5.55718C23.5589 5.55718 25.4481 6.09381 27.106 7.12873L12.4551 21.6943C9.949 17.593 10.4502 12.1884 13.9973 8.66195ZM29.1108 23.6492C27.106 25.6424 24.4071 26.7539 21.554 26.7539C19.5492 26.7539 17.66 26.2173 16.0021 25.1824L30.6916 10.5785C33.1591 14.7182 32.6579 20.1228 29.1108 23.6492Z" fill="#28A199"/>
<path d="M37.5543 29.3995L36.2049 28.0579C35.8964 27.7513 35.3567 27.7513 35.0482 28.0579L34.2771 28.8245C30.8843 32.1976 26.3734 34.0758 21.554 34.0758C14.4213 34.0758 8.0212 29.9361 4.89825 23.2283C4.89825 23.1899 4.8597 23.1899 4.8597 23.1516C2.16085 16.0988 3.66449 8.58603 8.7923 3.48808L9.5634 2.72146C9.87184 2.41482 9.87184 1.87819 9.5634 1.57155L8.21398 0.229983C7.90554 -0.076661 7.36577 -0.076661 7.05733 0.229983L6.28623 0.996593C0.155994 7.12947 -1.65609 16.1371 1.58253 24.5315L1.62108 24.6465C5.01392 31.8526 11.5683 36.6056 19.0865 37.4489V41.2053H14.9611C14.537 41.2053 14.2286 41.5503 14.2286 42.0102V44.1567C14.2286 44.6167 14.5755 44.9617 14.9611 44.9617H28.1469C28.571 44.9617 28.8794 44.6167 28.8794 44.1567V42.0102C28.8794 41.5503 28.5324 41.2053 28.1469 41.2053H24.0215V37.4489C28.8409 36.9123 33.3133 34.7658 36.8218 31.316L37.5928 30.5494C37.8627 30.2428 37.8627 29.7061 37.5543 29.3995Z" fill="#28A199"/>
</svg>