<svg width="255" height="46" viewBox="0 0 255 46" fill="none" xmlns="http://www.w3.org/2000/svg">
<path d="M57.8728 31.0337C56.7933 30.4587 55.9451 29.6921 55.3282 28.6572C54.7498 27.6606 54.4414 26.4723 54.4414 25.1691V18.8062C54.4414 17.4647 54.7498 16.3147 55.3282 15.3181C55.9065 14.3216 56.7547 13.5166 57.8728 12.98C58.9523 12.4434 60.2247 12.1367 61.6897 12.1367C63.1163 12.1367 64.35 12.405 65.4681 12.9417C66.5477 13.4783 67.3959 14.2066 68.0127 15.1648C68.6296 16.1231 68.8995 17.2347 68.8995 18.4996C68.8995 18.6529 68.7839 18.7679 68.5525 18.8062L65.3139 18.9979H65.2753C65.0826 18.9979 65.0055 18.8829 65.0055 18.6912C65.0055 17.733 64.697 16.928 64.1187 16.3531C63.5018 15.7781 62.7307 15.4715 61.7283 15.4715C60.7259 15.4715 59.9162 15.7781 59.3379 16.3531C58.721 16.928 58.4511 17.733 58.4511 18.6912V25.3607C58.4511 26.319 58.7596 27.0856 59.3379 27.6606C59.9548 28.2355 60.7259 28.5422 61.7283 28.5422C62.6922 28.5422 63.5018 28.2355 64.1187 27.6606C64.7356 27.0856 65.0055 26.2807 65.0055 25.3607C65.0055 25.1691 65.1211 25.0541 65.3525 25.0541L68.5911 25.2074C68.6682 25.2074 68.7453 25.2457 68.8224 25.2841C68.8995 25.3224 68.9381 25.3991 68.9381 25.4757C68.9381 26.7406 68.6296 27.8522 68.0513 28.8488C67.4344 29.8071 66.6248 30.5737 65.5067 31.1103C64.4271 31.6469 63.1548 31.9153 61.7283 31.9153C60.2247 31.8769 58.9523 31.6086 57.8728 31.0337Z" fill="#2D4D63"/>
<path d="M84.2054 25.4366C84.2054 25.6666 84.0512 25.7816 83.8584 25.7816H75.2992C75.1835 25.7816 75.145 25.8199 75.1835 25.9349C75.2221 26.3182 75.3378 26.6632 75.492 27.0465C75.9546 28.0814 76.9571 28.5797 78.4222 28.5797C79.6174 28.5797 80.5427 28.0814 81.2367 27.1615C81.3138 27.0465 81.3909 27.0082 81.468 27.0082C81.5066 27.0082 81.5837 27.0465 81.6608 27.1232L83.6656 29.078C83.7427 29.1547 83.8198 29.2697 83.8198 29.308C83.8198 29.3463 83.7813 29.423 83.7042 29.538C83.0873 30.3046 82.3162 30.8795 81.3523 31.3012C80.3885 31.7228 79.3475 31.9145 78.1908 31.9145C76.6101 31.9145 75.2607 31.5695 74.1426 30.8412C73.0245 30.1129 72.2534 29.1163 71.7522 27.8514C71.3666 26.9315 71.1738 25.7433 71.1738 24.2484C71.1738 23.2518 71.328 22.3318 71.5979 21.5652C72.022 20.262 72.7546 19.2271 73.8341 18.4605C74.9137 17.6939 76.1474 17.3105 77.6125 17.3105C79.4631 17.3105 80.9668 17.8472 82.0849 18.9204C83.203 19.9937 83.897 21.4119 84.1283 23.2134C84.2054 23.7884 84.244 24.5933 84.2054 25.4366ZM75.2992 22.2168C75.2221 22.4468 75.145 22.7535 75.1064 23.0985C75.1064 23.1751 75.145 23.2518 75.2606 23.2518H80.08C80.1957 23.2518 80.2342 23.2134 80.1957 23.0985C80.1186 22.5618 80.0415 22.2935 80.0415 22.3318C79.8872 21.7952 79.5788 21.3352 79.1547 21.0669C78.7306 20.7986 78.2294 20.607 77.6125 20.607C76.4559 20.607 75.6848 21.1436 75.2992 22.2168Z" fill="#2D4D63"/>
<path d="M97.6229 18.6143C98.5482 19.5342 98.9723 20.7225 98.9723 22.294V31.34C98.9723 31.4167 98.9338 31.4933 98.8566 31.57C98.7795 31.6466 98.7024 31.685 98.6253 31.685H95.3867C95.3096 31.685 95.2325 31.6466 95.1554 31.57C95.0783 31.4933 95.0397 31.4167 95.0397 31.34V23.0606C95.0397 22.3323 94.8469 21.719 94.4228 21.2591C93.9987 20.7991 93.459 20.5691 92.765 20.5691C92.071 20.5691 91.5312 20.7991 91.1071 21.2591C90.683 21.719 90.4902 22.3323 90.4902 23.0606V31.3017C90.4902 31.3783 90.4517 31.455 90.3746 31.5316C90.2974 31.6083 90.2203 31.6466 90.1432 31.6466H86.9046C86.8275 31.6466 86.7504 31.6083 86.6733 31.5316C86.5962 31.455 86.5576 31.3783 86.5576 31.3017V17.8093C86.5576 17.7327 86.5962 17.656 86.6733 17.5794C86.7504 17.5027 86.8275 17.4644 86.9046 17.4644H90.1432C90.2203 17.4644 90.2974 17.5027 90.3746 17.5794C90.4517 17.656 90.4902 17.7327 90.4902 17.8093V18.7676C90.4902 18.8059 90.4902 18.8443 90.5288 18.8826C90.5673 18.8826 90.6059 18.8826 90.6059 18.8443C91.377 17.771 92.4951 17.2344 93.9987 17.2344C95.5409 17.2727 96.7361 17.6943 97.6229 18.6143Z" fill="#2D4D63"/>
<path d="M104.216 31.3395C103.291 30.9945 102.558 30.4962 102.057 29.883C101.556 29.2697 101.286 28.5414 101.286 27.7748V27.5065C101.286 27.4298 101.325 27.3531 101.402 27.2765C101.479 27.1998 101.556 27.1615 101.633 27.1615H104.718C104.795 27.1615 104.872 27.1998 104.949 27.2765C105.026 27.3531 105.065 27.4298 105.065 27.5065V27.5448C105.065 27.9664 105.296 28.3114 105.758 28.5797C106.221 28.848 106.799 29.0013 107.455 29.0013C108.072 29.0013 108.612 28.8864 108.997 28.618C109.383 28.3881 109.575 28.0431 109.575 27.6981C109.575 27.3531 109.421 27.1232 109.074 26.9698C108.727 26.8165 108.187 26.6249 107.455 26.4332C106.568 26.2032 105.913 26.0116 105.412 25.7816C104.216 25.36 103.291 24.8617 102.597 24.2867C101.903 23.7117 101.556 22.8685 101.556 21.7569C101.556 20.377 102.096 19.3037 103.137 18.4988C104.216 17.6939 105.604 17.3105 107.378 17.3105C108.573 17.3105 109.614 17.5022 110.501 17.8855C111.388 18.2688 112.082 18.8054 112.583 19.4571C113.084 20.147 113.315 20.9136 113.315 21.7569C113.315 21.8335 113.277 21.9102 113.2 21.9869C113.122 22.0635 113.045 22.1019 112.968 22.1019H110C109.922 22.1019 109.845 22.0635 109.768 21.9869C109.691 21.9102 109.653 21.8335 109.653 21.7569C109.653 21.3352 109.46 21.0286 109.036 20.722C108.612 20.4536 108.072 20.3003 107.378 20.3003C106.761 20.3003 106.26 20.4153 105.874 20.6453C105.489 20.8753 105.296 21.1819 105.296 21.5652C105.296 21.9485 105.489 22.2168 105.874 22.4085C106.26 22.6002 106.877 22.7918 107.763 22.9835C107.956 23.0218 108.187 23.0985 108.457 23.1751C108.727 23.2518 108.997 23.3284 109.306 23.4051C110.616 23.7884 111.657 24.2867 112.429 24.9C113.2 25.5133 113.585 26.3949 113.585 27.5448C113.585 28.9247 113.045 29.9596 111.966 30.7262C110.886 31.4928 109.421 31.8761 107.609 31.8761C106.26 31.8378 105.142 31.6845 104.216 31.3395Z" fill="#2D4D63"/>
<path d="M118.019 30.6508C116.901 29.8458 116.168 28.7343 115.744 27.3544C115.474 26.4728 115.358 25.5528 115.358 24.5562C115.358 23.483 115.474 22.4864 115.744 21.6431C116.168 20.2632 116.939 19.2283 118.057 18.4234C119.175 17.6567 120.486 17.2734 122.067 17.2734C123.571 17.2734 124.881 17.6567 125.961 18.4234C127.041 19.19 127.812 20.2632 128.236 21.6048C128.544 22.5247 128.698 23.483 128.698 24.5179C128.698 25.5145 128.583 26.4344 128.313 27.316C127.889 28.7343 127.156 29.8842 126.038 30.6891C124.92 31.4941 123.609 31.9157 122.067 31.9157C120.525 31.9157 119.137 31.4941 118.019 30.6508ZM123.571 28.006C123.995 27.6227 124.303 27.1244 124.496 26.4728C124.65 25.8978 124.727 25.2462 124.727 24.5562C124.727 23.7896 124.65 23.138 124.496 22.6014C124.303 21.9881 123.995 21.4898 123.571 21.1448C123.146 20.7998 122.645 20.6082 122.028 20.6082C121.412 20.6082 120.872 20.7998 120.448 21.1448C120.024 21.4898 119.715 21.9881 119.561 22.6014C119.407 23.0613 119.33 23.713 119.33 24.5562C119.33 25.3995 119.407 26.0128 119.522 26.4728C119.715 27.1244 120.024 27.6227 120.448 28.006C120.872 28.3893 121.412 28.5426 122.028 28.5426C122.645 28.5426 123.146 28.351 123.571 28.006Z" fill="#2D4D63"/>
<path d="M139.879 17.6567C140.034 17.7334 140.072 17.8867 140.034 18.0784L139.455 21.2215C139.455 21.4515 139.301 21.4898 139.07 21.4131C138.8 21.3365 138.453 21.2598 138.106 21.2598C137.952 21.2598 137.759 21.2598 137.489 21.2981C136.834 21.3365 136.255 21.6048 135.793 22.0264C135.33 22.4481 135.099 23.023 135.099 23.7513V31.3024C135.099 31.3791 135.06 31.4557 134.983 31.5324C134.906 31.609 134.829 31.6474 134.752 31.6474H131.513C131.436 31.6474 131.359 31.609 131.282 31.5324C131.205 31.4557 131.166 31.3791 131.166 31.3024V17.8101C131.166 17.7334 131.205 17.6567 131.282 17.5801C131.359 17.5034 131.436 17.4651 131.513 17.4651H134.752C134.829 17.4651 134.906 17.5034 134.983 17.5801C135.06 17.6567 135.099 17.7334 135.099 17.8101V18.845C135.099 18.8833 135.099 18.9216 135.137 18.96C135.176 18.96 135.214 18.96 135.214 18.9216C135.985 17.8101 136.988 17.2734 138.26 17.2734C138.954 17.2734 139.494 17.4268 139.879 17.6567Z" fill="#2D4D63"/>
<path d="M154.222 25.4366C154.222 25.6666 154.068 25.7816 153.875 25.7816H145.316C145.2 25.7816 145.162 25.8199 145.2 25.9349C145.239 26.3182 145.354 26.6632 145.509 27.0465C145.971 28.0814 146.974 28.5797 148.439 28.5797C149.634 28.5797 150.559 28.0814 151.253 27.1615C151.33 27.0465 151.407 27.0082 151.485 27.0082C151.523 27.0082 151.6 27.0465 151.677 27.1232L153.682 29.078C153.759 29.1547 153.836 29.2697 153.836 29.308C153.836 29.3463 153.798 29.423 153.721 29.538C153.104 30.3046 152.333 30.8795 151.369 31.3012C150.405 31.7228 149.364 31.9145 148.207 31.9145C146.627 31.9145 145.277 31.5695 144.159 30.8412C143.041 30.1129 142.27 29.1163 141.769 27.8514C141.383 26.9315 141.19 25.7433 141.19 24.2484C141.19 23.2518 141.345 22.3318 141.615 21.5652C142.039 20.262 142.771 19.2271 143.851 18.4605C144.93 17.6939 146.164 17.3105 147.629 17.3105C149.48 17.3105 150.983 17.8472 152.101 18.9204C153.22 19.9937 153.914 21.4119 154.145 23.2134C154.222 23.7884 154.222 24.5933 154.222 25.4366ZM145.316 22.2168C145.239 22.4468 145.162 22.7535 145.123 23.0985C145.123 23.1751 145.162 23.2518 145.277 23.2518H150.097C150.212 23.2518 150.251 23.2134 150.212 23.0985C150.135 22.5618 150.058 22.2935 150.058 22.3318C149.904 21.7952 149.595 21.3352 149.171 21.0669C148.747 20.7986 148.246 20.607 147.629 20.607C146.472 20.607 145.701 21.1436 145.316 22.2168Z" fill="#2D4D63"/>
<path d="M165.556 12.4431C165.634 12.3665 165.711 12.3281 165.788 12.3281H169.026C169.103 12.3281 169.181 12.3665 169.258 12.4431C169.335 12.5198 169.373 12.5964 169.373 12.6731V31.34C169.373 31.4167 169.335 31.4934 169.258 31.57C169.181 31.6467 169.103 31.685 169.026 31.685H165.788C165.711 31.685 165.634 31.6467 165.556 31.57C165.479 31.4934 165.441 31.4167 165.441 31.34V30.4201C165.441 30.3818 165.441 30.3435 165.402 30.3051C165.364 30.3051 165.325 30.3051 165.287 30.3435C164.515 31.34 163.436 31.8767 162.086 31.8767C160.776 31.8767 159.657 31.5317 158.732 30.8034C157.807 30.0751 157.113 29.1169 156.727 27.852C156.419 26.8937 156.265 25.7821 156.265 24.5172C156.265 23.214 156.419 22.0641 156.766 21.1058C157.19 19.9176 157.845 18.9976 158.771 18.3077C159.696 17.6177 160.814 17.2728 162.164 17.2728C163.513 17.2728 164.515 17.7327 165.287 18.6527C165.325 18.691 165.364 18.7293 165.402 18.691C165.441 18.691 165.441 18.6527 165.441 18.576V12.6731C165.479 12.5964 165.518 12.5198 165.556 12.4431ZM165.441 24.5556C165.441 23.329 165.248 22.3707 164.824 21.6424C164.4 20.9142 163.783 20.5692 162.973 20.5692C162.086 20.5692 161.431 20.9142 161.007 21.6424C160.544 22.3707 160.313 23.329 160.313 24.5556C160.313 25.6671 160.506 26.5871 160.891 27.3153C161.354 28.1203 162.048 28.5036 162.935 28.5036C163.783 28.5036 164.4 28.1203 164.862 27.3153C165.248 26.6637 165.441 25.7438 165.441 24.5556Z" fill="#2D4D63"/>
<path d="M189.384 13.0557C190.309 13.554 191.042 14.2439 191.543 15.1639C192.044 16.0838 192.314 17.1187 192.314 18.3069C192.314 19.4569 192.044 20.4918 191.504 21.3734C190.965 22.255 190.232 22.9449 189.268 23.4432C188.304 23.9415 187.225 24.1715 185.991 24.1715H182.059C181.981 24.1715 181.904 24.2098 181.904 24.3248V31.3776C181.904 31.4543 181.866 31.531 181.789 31.6076C181.712 31.6843 181.634 31.7226 181.557 31.7226H178.319C178.242 31.7226 178.164 31.6843 178.087 31.6076C178.01 31.531 177.972 31.4543 177.972 31.3776V12.634C177.972 12.5574 178.01 12.4807 178.087 12.4041C178.164 12.3274 178.242 12.2891 178.319 12.2891H186.145C187.379 12.3274 188.459 12.5574 189.384 13.0557ZM187.61 20.3001C188.112 19.8018 188.382 19.1886 188.382 18.3836C188.382 17.5787 188.112 16.9271 187.61 16.4288C187.109 15.9305 186.415 15.7005 185.567 15.7005H182.059C181.981 15.7005 181.904 15.7388 181.904 15.8538V20.9134C181.904 20.9901 181.943 21.0667 182.059 21.0667H185.567C186.415 21.0284 187.109 20.7984 187.61 20.3001Z" fill="#2D4D63"/>
<path d="M194.55 31.57C194.473 31.4934 194.435 31.4167 194.435 31.34V12.6731C194.435 12.5964 194.473 12.5198 194.55 12.4431C194.627 12.3665 194.704 12.3281 194.782 12.3281H198.02C198.097 12.3281 198.174 12.3665 198.252 12.4431C198.329 12.5198 198.367 12.5964 198.367 12.6731V31.34C198.367 31.4167 198.329 31.4934 198.252 31.57C198.174 31.6467 198.097 31.685 198.02 31.685H194.782C194.704 31.6467 194.627 31.6467 194.55 31.57Z" fill="#2D4D63"/>
<path d="M210.127 17.8853C211.052 18.3069 211.823 18.8819 212.324 19.5718C212.825 20.2618 213.134 21.105 213.134 21.9866V31.3393C213.134 31.4159 213.095 31.4926 213.018 31.5692C212.941 31.6459 212.864 31.6842 212.787 31.6842H209.548C209.471 31.6842 209.394 31.6459 209.317 31.5692C209.24 31.4926 209.201 31.4159 209.201 31.3393V30.4193C209.201 30.381 209.201 30.3427 209.163 30.3043C209.124 30.3043 209.086 30.3043 209.047 30.3427C208.276 31.3393 207.004 31.8759 205.307 31.8759C203.881 31.8759 202.685 31.5309 201.799 30.841C200.912 30.151 200.449 29.1161 200.449 27.7362C200.449 26.318 200.95 25.2064 201.953 24.4398C202.955 23.6732 204.382 23.2515 206.232 23.2515H209.047C209.124 23.2515 209.201 23.2132 209.201 23.0982V22.4849C209.201 21.8716 209.008 21.4117 208.661 21.0667C208.276 20.7217 207.736 20.5684 207.004 20.5684C206.425 20.5684 205.963 20.6834 205.577 20.875C205.191 21.0667 204.96 21.3733 204.844 21.7183C204.806 21.91 204.652 22.025 204.497 21.9866L201.143 21.5267C200.912 21.4883 200.835 21.4117 200.835 21.2967C200.912 20.5301 201.22 19.8401 201.76 19.1885C202.3 18.5752 203.032 18.0769 203.919 17.7319C204.806 17.387 205.808 17.1953 206.926 17.1953C208.122 17.272 209.201 17.4636 210.127 17.8853ZM208.392 28.3495C208.931 27.9279 209.24 27.3912 209.24 26.7396V25.743C209.24 25.6664 209.201 25.5897 209.086 25.5897H207.081C206.232 25.5897 205.577 25.743 205.114 26.0497C204.652 26.3563 204.42 26.8163 204.42 27.3912C204.42 27.8895 204.613 28.2728 204.96 28.5795C205.307 28.8478 205.77 29.0011 206.387 29.0011C207.158 29.0011 207.813 28.7711 208.392 28.3495Z" fill="#2D4D63"/>
<path d="M226.897 18.6143C227.823 19.5342 228.247 20.7225 228.247 22.294V31.34C228.247 31.4167 228.208 31.4933 228.131 31.57C228.054 31.6466 227.977 31.685 227.9 31.685H224.661C224.584 31.685 224.507 31.6466 224.43 31.57C224.353 31.4933 224.314 31.4167 224.314 31.34V23.0606C224.314 22.3323 224.121 21.719 223.697 21.2591C223.273 20.7991 222.733 20.5691 222.039 20.5691C221.345 20.5691 220.806 20.7991 220.382 21.2591C219.957 21.719 219.765 22.3323 219.765 23.0606V31.3017C219.765 31.3783 219.726 31.455 219.649 31.5316C219.572 31.6083 219.495 31.6466 219.418 31.6466H216.179C216.102 31.6466 216.025 31.6083 215.948 31.5316C215.871 31.455 215.832 31.3783 215.832 31.3017V17.8093C215.832 17.7327 215.871 17.656 215.948 17.5794C216.025 17.5027 216.102 17.4644 216.179 17.4644H219.418C219.495 17.4644 219.572 17.5027 219.649 17.5794C219.726 17.656 219.765 17.7327 219.765 17.8093V18.7676C219.765 18.8059 219.765 18.8443 219.803 18.8826C219.842 18.8826 219.88 18.8826 219.88 18.8443C220.651 17.771 221.769 17.2344 223.273 17.2344C224.815 17.2727 226.011 17.6943 226.897 18.6143Z" fill="#2D4D63"/>
<path d="M243.707 25.4366C243.707 25.6666 243.553 25.7816 243.36 25.7816H234.801C234.686 25.7816 234.647 25.8199 234.686 25.9349C234.724 26.3182 234.84 26.6632 234.994 27.0465C235.457 28.0814 236.459 28.5797 237.924 28.5797C239.119 28.5797 240.045 28.0814 240.739 27.1615C240.816 27.0465 240.893 27.0082 240.97 27.0082C241.009 27.0082 241.086 27.0465 241.163 27.1232L243.168 29.078C243.245 29.1547 243.322 29.2697 243.322 29.308C243.322 29.3463 243.283 29.423 243.206 29.538C242.589 30.3046 241.818 30.8795 240.854 31.3012C239.89 31.7228 238.849 31.9145 237.693 31.9145C236.112 31.9145 234.763 31.5695 233.645 30.8412C232.526 30.1129 231.755 29.1163 231.254 27.8514C230.869 26.9315 230.676 25.7433 230.676 24.2484C230.676 23.2518 230.83 22.3318 231.1 21.5652C231.524 20.262 232.257 19.2271 233.336 18.4605C234.416 17.6939 235.649 17.3105 237.114 17.3105C238.965 17.3105 240.469 17.8472 241.587 18.9204C242.705 19.9937 243.399 21.4119 243.63 23.2134C243.707 23.7884 243.746 24.5933 243.707 25.4366ZM234.84 22.2168C234.763 22.4468 234.685 22.7535 234.647 23.0985C234.647 23.1751 234.686 23.2518 234.801 23.2518H239.621C239.736 23.2518 239.775 23.2134 239.736 23.0985C239.659 22.5618 239.582 22.2935 239.582 22.3318C239.428 21.7952 239.119 21.3352 238.695 21.0669C238.271 20.7986 237.77 20.607 237.153 20.607C235.996 20.607 235.225 21.1436 234.84 22.2168Z" fill="#2D4D63"/>
<path d="M253.886 20.492C253.809 20.5687 253.732 20.607 253.655 20.607H250.995C250.917 20.607 250.84 20.6453 250.84 20.7603V26.6249C250.84 27.2382 250.956 27.6982 251.226 27.9665C251.457 28.2731 251.881 28.4264 252.421 28.4264H253.346C253.424 28.4264 253.501 28.4648 253.578 28.5414C253.655 28.6181 253.693 28.6947 253.693 28.7714V31.3779C253.693 31.5695 253.578 31.6845 253.346 31.7229C252.575 31.7612 251.997 31.7612 251.689 31.7612C250.146 31.7612 248.99 31.4929 248.257 30.9946C247.486 30.4963 247.101 29.538 247.101 28.1198V20.722C247.101 20.6453 247.062 20.5687 246.946 20.5687H245.366C245.288 20.5687 245.211 20.5303 245.134 20.4537C245.057 20.377 245.019 20.3004 245.019 20.2237V17.7706C245.019 17.6939 245.057 17.6172 245.134 17.5406C245.211 17.4639 245.288 17.4256 245.366 17.4256H246.946C247.023 17.4256 247.101 17.3872 247.101 17.2723V13.9758C247.101 13.8992 247.139 13.8225 247.216 13.7459C247.293 13.6692 247.37 13.6309 247.448 13.6309H250.57C250.648 13.6309 250.725 13.6692 250.802 13.7459C250.879 13.8225 250.917 13.8992 250.917 13.9758V17.2723C250.917 17.3489 250.956 17.4256 251.072 17.4256H253.732C253.809 17.4256 253.886 17.4639 253.963 17.5406C254.04 17.6172 254.079 17.6939 254.079 17.7706V20.2237C254.002 20.3387 253.963 20.4154 253.886 20.492Z" fill="#2D4D63"/>
<path d="M32.6193 5.96367C29.5735 2.93556 25.5638 1.40234 21.554 1.40234C17.5443 1.40234 13.5346 2.93556 10.4502 5.96367C4.31998 12.0582 4.31998 21.9092 10.4502 28.0037C13.4961 31.0318 17.5058 32.565 21.554 32.565C25.6023 32.565 29.5735 31.0318 32.6579 28.0037C38.7495 21.9092 38.7495 12.0582 32.6193 5.96367ZM13.9973 9.49008C16.0021 7.49689 18.701 6.38531 21.554 6.38531C23.5589 6.38531 25.4481 6.92194 27.106 7.95686L12.4551 22.5224C9.949 18.4211 10.4502 13.0165 13.9973 9.49008ZM29.1108 24.4773C27.106 26.4705 24.4071 27.5821 21.554 27.5821C19.5492 27.5821 17.66 27.0454 16.0021 26.0105L30.6916 11.4066C33.1591 15.5463 32.6579 20.9509 29.1108 24.4773Z" fill="#28A199"/>
<path d="M37.5543 30.2276L36.2049 28.886C35.8964 28.5794 35.3567 28.5794 35.0482 28.886L34.2771 29.6527C30.8843 33.0257 26.3734 34.9039 21.554 34.9039C14.4213 34.9039 8.0212 30.7642 4.89825 24.0564C4.89825 24.0181 4.8597 24.0181 4.8597 23.9797C2.16085 16.9269 3.66449 9.41416 8.7923 4.3162L9.5634 3.54959C9.87184 3.24295 9.87184 2.70632 9.5634 2.39968L8.21398 1.05811C7.90554 0.751464 7.36577 0.751464 7.05733 1.05811L6.28623 1.82472C0.155994 7.9576 -1.65609 16.9653 1.58253 25.3596L1.62108 25.4746C5.01392 32.6808 11.5683 37.4337 19.0865 38.277V42.0334H14.9611C14.537 42.0334 14.2286 42.3784 14.2286 42.8383V44.9849C14.2286 45.4448 14.5755 45.7898 14.9611 45.7898H28.1469C28.571 45.7898 28.8794 45.4448 28.8794 44.9849V42.8383C28.8794 42.3784 28.5324 42.0334 28.1469 42.0334H24.0215V38.277C28.8409 37.7404 33.3133 35.5939 36.8218 32.1441L37.5928 31.3775C37.8627 31.0709 37.8627 30.5343 37.5543 30.2276Z" fill="#28A199"/>
</svg>