<svg width="254" height="45" viewBox="0 0 254 45" fill="none" xmlns="http://www.w3.org/2000/svg">
<g clip-path="url(#clip0)">
<path d="M32.6176 5.13652C29.5718 2.10841 25.562 0.575195 21.5523 0.575195C17.5426 0.575195 13.5329 2.10841 10.4485 5.13652C4.31827 11.2311 4.31827 21.082 10.4485 27.1766C13.4943 30.2047 17.5041 31.7379 21.5523 31.7379C25.6006 31.7379 29.5718 30.2047 32.6562 27.1766C38.7478 21.082 38.7478 11.2311 32.6176 5.13652ZM13.9956 8.66293C16.0004 6.66974 18.6993 5.55816 21.5523 5.55816C23.5572 5.55816 25.4464 6.09479 27.1042 7.12971L12.4534 21.6953C9.94729 17.5939 10.4485 12.1893 13.9956 8.66293ZM29.1091 23.6502C27.1042 25.6433 24.4054 26.7549 21.5523 26.7549C19.5475 26.7549 17.6583 26.2183 16.0004 25.1834L30.6899 10.5795C33.1574 14.7191 32.6562 20.1237 29.1091 23.6502Z" fill="#28A199"/>
<path d="M37.5526 29.3995L36.2032 28.0579C35.8947 27.7513 35.355 27.7513 35.0465 28.0579L34.2754 28.8245C30.8826 32.1976 26.3717 34.0758 21.5523 34.0758C14.4196 34.0758 8.0195 29.9361 4.89654 23.2283C4.89654 23.1899 4.85799 23.1899 4.85799 23.1516C2.15914 16.0988 3.66279 8.58603 8.79059 3.48808L9.56169 2.72146C9.87013 2.41482 9.87013 1.87819 9.56169 1.57155L8.21227 0.229983C7.90383 -0.076661 7.36406 -0.076661 7.05562 0.229983L6.28452 0.996593C0.154285 7.12947 -1.6578 16.1371 1.58082 24.5315L1.61937 24.6465C5.01221 31.8526 11.5666 36.6056 19.0848 37.4489V41.2053H14.9594C14.5353 41.2053 14.2268 41.5503 14.2268 42.0102V44.1567C14.2268 44.6167 14.5738 44.9617 14.9594 44.9617H28.1452C28.5693 44.9617 28.8777 44.6167 28.8777 44.1567V42.0102C28.8777 41.5503 28.5307 41.2053 28.1452 41.2053H24.0198V37.4489C28.8392 36.9123 33.3115 34.7658 36.82 31.316L37.5911 30.5494C37.861 30.2428 37.861 29.7061 37.5526 29.3995Z" fill="#28A199"/>
<path d="M57.4314 31.8969C56.3519 31.322 55.5036 30.5554 54.8868 29.5204C54.3084 28.5238 54 27.3356 54 26.0324V19.6695C54 18.3279 54.3084 17.178 54.8868 16.1814C55.4651 15.1848 56.3133 14.3799 57.4314 13.8433C58.5109 13.3066 59.7832 13 61.2483 13C62.6749 13 63.9086 13.2683 65.0267 13.8049C66.1063 14.3416 66.9545 15.0698 67.5713 16.0281C68.1882 16.9864 68.4581 18.098 68.4581 19.3629C68.4581 19.5162 68.3424 19.6312 68.1111 19.6695L64.8725 19.8612H64.8339C64.6412 19.8612 64.5641 19.7462 64.5641 19.5545C64.5641 18.5963 64.2556 17.7913 63.6773 17.2164C63.0604 16.6414 62.2893 16.3348 61.2869 16.3348C60.2845 16.3348 59.4748 16.6414 58.8965 17.2164C58.2796 17.7913 58.0097 18.5963 58.0097 19.5545V26.224C58.0097 27.1823 58.3182 27.9489 58.8965 28.5238C59.5134 29.0988 60.2845 29.4055 61.2869 29.4055C62.2508 29.4055 63.0604 29.0988 63.6773 28.5238C64.2942 27.9489 64.5641 27.144 64.5641 26.224C64.5641 26.0324 64.6797 25.9174 64.9111 25.9174L68.1497 26.0707C68.2268 26.0707 68.3039 26.109 68.381 26.1474C68.4581 26.1857 68.4967 26.2624 68.4967 26.339C68.4967 27.6039 68.1882 28.7155 67.6099 29.7121C66.993 30.6704 66.1834 31.437 65.0653 31.9736C63.9857 32.5102 62.7134 32.7785 61.2869 32.7785C59.7832 32.7402 58.5109 32.4719 57.4314 31.8969Z" fill="#2D4D63"/>
<path d="M83.7645 26.3009C83.7645 26.5309 83.6103 26.6458 83.4175 26.6458H74.8583C74.7426 26.6458 74.7041 26.6842 74.7426 26.7992C74.7812 27.1825 74.8968 27.5274 75.0511 27.9108C75.5137 28.9457 76.5161 29.444 77.9812 29.444C79.1764 29.444 80.1018 28.9457 80.7957 28.0257C80.8729 27.9107 80.95 27.8724 81.0271 27.8724C81.0656 27.8724 81.1427 27.9107 81.2199 27.9874L83.2247 29.9423C83.3018 30.0189 83.3789 30.1339 83.3789 30.1723C83.3789 30.2106 83.3404 30.2872 83.2633 30.4022C82.6464 31.1688 81.8753 31.7438 80.9114 32.1654C79.9475 32.5871 78.9066 32.7787 77.7499 32.7787C76.1692 32.7787 74.8197 32.4338 73.7016 31.7055C72.5835 30.9772 71.8124 29.9806 71.3112 28.7157C70.9257 27.7958 70.7329 26.6075 70.7329 25.1126C70.7329 24.116 70.8871 23.1961 71.157 22.4295C71.5811 21.1263 72.3137 20.0913 73.3932 19.3247C74.4727 18.5581 75.7065 18.1748 77.1716 18.1748C79.0222 18.1748 80.5259 18.7114 81.644 19.7847C82.7621 20.8579 83.456 22.2762 83.6874 24.0777C83.7645 24.6527 83.803 25.4576 83.7645 26.3009ZM74.8583 23.0811C74.7812 23.3111 74.7041 23.6177 74.6655 23.9627C74.6655 24.0394 74.7041 24.116 74.8197 24.116H79.6391C79.7548 24.116 79.7933 24.0777 79.7548 23.9627C79.6777 23.4261 79.6005 23.1578 79.6005 23.1961C79.4463 22.6595 79.1379 22.1995 78.7138 21.9312C78.2897 21.6629 77.7885 21.4712 77.1716 21.4712C76.0149 21.4712 75.2438 22.0079 74.8583 23.0811Z" fill="#2D4D63"/>
<path d="M97.1816 19.4776C98.1069 20.3975 98.531 21.5857 98.531 23.1573V32.2033C98.531 32.2799 98.4925 32.3566 98.4154 32.4333C98.3383 32.5099 98.2611 32.5483 98.184 32.5483H94.9454C94.8683 32.5483 94.7912 32.5099 94.7141 32.4333C94.637 32.3566 94.5984 32.2799 94.5984 32.2033V23.9239C94.5984 23.1956 94.4056 22.5823 93.9815 22.1224C93.5574 21.6624 93.0177 21.4324 92.3237 21.4324C91.6297 21.4324 91.0899 21.6624 90.6658 22.1224C90.2417 22.5823 90.0489 23.1956 90.0489 23.9239V32.1649C90.0489 32.2416 90.0104 32.3183 89.9333 32.3949C89.8562 32.4716 89.7791 32.5099 89.7019 32.5099H86.4633C86.3862 32.5099 86.3091 32.4716 86.232 32.3949C86.1549 32.3183 86.1163 32.2416 86.1163 32.1649V18.6726C86.1163 18.596 86.1549 18.5193 86.232 18.4426C86.3091 18.366 86.3862 18.3276 86.4633 18.3276H89.7019C89.7791 18.3276 89.8562 18.366 89.9333 18.4426C90.0104 18.5193 90.0489 18.596 90.0489 18.6726V19.6309C90.0489 19.6692 90.0489 19.7075 90.0875 19.7459C90.126 19.7459 90.1646 19.7459 90.1646 19.7075C90.9357 18.6343 92.0538 18.0977 93.5574 18.0977C95.0996 18.136 96.2948 18.5576 97.1816 19.4776Z" fill="#2D4D63"/>
<path d="M103.774 32.2038C102.849 31.8588 102.117 31.3605 101.615 30.7472C101.114 30.1339 100.844 29.4056 100.844 28.639V28.3707C100.844 28.2941 100.883 28.2174 100.96 28.1407C101.037 28.0641 101.114 28.0257 101.191 28.0257H104.276C104.353 28.0257 104.43 28.0641 104.507 28.1407C104.584 28.2174 104.623 28.2941 104.623 28.3707V28.409C104.623 28.8307 104.854 29.1757 105.317 29.444C105.779 29.7123 106.358 29.8656 107.013 29.8656C107.63 29.8656 108.17 29.7506 108.555 29.4823C108.941 29.2523 109.134 28.9073 109.134 28.5624C109.134 28.2174 108.979 27.9874 108.632 27.8341C108.285 27.6808 107.746 27.4891 107.013 27.2975C106.126 27.0675 105.471 26.8758 104.97 26.6458C103.774 26.2242 102.849 25.7259 102.155 25.151C101.461 24.576 101.114 23.7327 101.114 22.6211C101.114 21.2412 101.654 20.168 102.695 19.363C103.774 18.5581 105.162 18.1748 106.936 18.1748C108.131 18.1748 109.172 18.3665 110.059 18.7498C110.946 19.1331 111.64 19.6697 112.141 20.3213C112.642 21.0113 112.873 21.7779 112.873 22.6211C112.873 22.6978 112.835 22.7745 112.758 22.8511C112.681 22.9278 112.603 22.9661 112.526 22.9661H109.558C109.481 22.9661 109.403 22.9278 109.326 22.8511C109.249 22.7745 109.211 22.6978 109.211 22.6211C109.211 22.1995 109.018 21.8929 108.594 21.5862C108.17 21.3179 107.63 21.1646 106.936 21.1646C106.319 21.1646 105.818 21.2796 105.432 21.5096C105.047 21.7395 104.854 22.0462 104.854 22.4295C104.854 22.8128 105.047 23.0811 105.432 23.2728C105.818 23.4644 106.435 23.6561 107.321 23.8477C107.514 23.886 107.746 23.9627 108.015 24.0394C108.285 24.116 108.555 24.1927 108.864 24.2694C110.175 24.6527 111.216 25.151 111.987 25.7642C112.758 26.3775 113.143 27.2591 113.143 28.409C113.143 29.7889 112.603 30.8239 111.524 31.5905C110.444 32.3571 108.979 32.7404 107.167 32.7404C105.818 32.7021 104.7 32.5487 103.774 32.2038Z" fill="#2D4D63"/>
<path d="M117.577 31.5141C116.459 30.7091 115.727 29.5975 115.302 28.2176C115.033 27.336 114.917 26.4161 114.917 25.4195C114.917 24.3463 115.033 23.3497 115.302 22.5064C115.727 21.1265 116.498 20.0916 117.616 19.2866C118.734 18.52 120.045 18.1367 121.625 18.1367C123.129 18.1367 124.44 18.52 125.519 19.2866C126.599 20.0532 127.37 21.1265 127.794 22.4681C128.103 23.388 128.257 24.3463 128.257 25.3812C128.257 26.3778 128.141 27.2977 127.871 28.1793C127.447 29.5975 126.715 30.7475 125.597 31.5524C124.478 32.3573 123.168 32.779 121.625 32.779C120.083 32.779 118.695 32.3573 117.577 31.5141ZM123.129 28.8693C123.553 28.486 123.862 27.9877 124.054 27.336C124.209 26.7611 124.286 26.1095 124.286 25.4195C124.286 24.6529 124.209 24.0013 124.054 23.4647C123.862 22.8514 123.553 22.3531 123.129 22.0081C122.705 21.6631 122.204 21.4715 121.587 21.4715C120.97 21.4715 120.43 21.6631 120.006 22.0081C119.582 22.3531 119.274 22.8514 119.119 23.4647C118.965 23.9246 118.888 24.5762 118.888 25.4195C118.888 26.2628 118.965 26.8761 119.081 27.336C119.274 27.9877 119.582 28.486 120.006 28.8693C120.43 29.2526 120.97 29.4059 121.587 29.4059C122.204 29.4059 122.705 29.2142 123.129 28.8693Z" fill="#2D4D63"/>
<path d="M139.438 18.52C139.592 18.5967 139.631 18.75 139.592 18.9417L139.014 22.0848C139.014 22.3147 138.859 22.3531 138.628 22.2764C138.358 22.1998 138.011 22.1231 137.664 22.1231C137.51 22.1231 137.317 22.1231 137.047 22.1614C136.392 22.1998 135.814 22.4681 135.351 22.8897C134.888 23.3113 134.657 23.8863 134.657 24.6146V32.1657C134.657 32.2423 134.618 32.319 134.541 32.3957C134.464 32.4723 134.387 32.5107 134.31 32.5107H131.071C130.994 32.5107 130.917 32.4723 130.84 32.3957C130.763 32.319 130.724 32.2423 130.724 32.1657V18.6733C130.724 18.5967 130.763 18.52 130.84 18.4434C130.917 18.3667 130.994 18.3284 131.071 18.3284H134.31C134.387 18.3284 134.464 18.3667 134.541 18.4434C134.618 18.52 134.657 18.5967 134.657 18.6733V19.7083C134.657 19.7466 134.657 19.7849 134.696 19.8233C134.734 19.8233 134.773 19.8233 134.773 19.7849C135.544 18.6733 136.546 18.1367 137.818 18.1367C138.512 18.1367 139.052 18.29 139.438 18.52Z" fill="#2D4D63"/>
<path d="M153.78 26.3009C153.78 26.5309 153.626 26.6458 153.433 26.6458H144.874C144.758 26.6458 144.72 26.6842 144.758 26.7992C144.797 27.1825 144.913 27.5274 145.067 27.9108C145.529 28.9457 146.532 29.444 147.997 29.444C149.192 29.444 150.118 28.9457 150.811 28.0257C150.889 27.9107 150.966 27.8724 151.043 27.8724C151.081 27.8724 151.158 27.9107 151.236 27.9874L153.24 29.9423C153.318 30.0189 153.395 30.1339 153.395 30.1723C153.395 30.2106 153.356 30.2872 153.279 30.4022C152.662 31.1688 151.891 31.7438 150.927 32.1654C149.963 32.5871 148.922 32.7787 147.766 32.7787C146.185 32.7787 144.835 32.4338 143.717 31.7055C142.599 30.9772 141.828 29.9806 141.327 28.7157C140.941 27.7958 140.749 26.6075 140.749 25.1126C140.749 24.116 140.903 23.1961 141.173 22.4295C141.597 21.1263 142.329 20.0913 143.409 19.3247C144.488 18.5581 145.722 18.1748 147.187 18.1748C149.038 18.1748 150.542 18.7114 151.66 19.7847C152.778 20.8579 153.472 22.2762 153.703 24.0777C153.78 24.6527 153.78 25.4576 153.78 26.3009ZM144.874 23.0811C144.797 23.3111 144.72 23.6177 144.681 23.9627C144.681 24.0394 144.72 24.116 144.835 24.116H149.655C149.771 24.116 149.809 24.0777 149.771 23.9627C149.693 23.4261 149.616 23.1578 149.616 23.1961C149.462 22.6595 149.154 22.1995 148.73 21.9312C148.305 21.6629 147.804 21.4712 147.187 21.4712C146.031 21.4712 145.26 22.0079 144.874 23.0811Z" fill="#2D4D63"/>
<path d="M165.115 13.3064C165.192 13.2297 165.27 13.1914 165.347 13.1914H168.585C168.662 13.1914 168.74 13.2297 168.817 13.3064C168.894 13.3831 168.932 13.4597 168.932 13.5364V32.2033C168.932 32.28 168.894 32.3567 168.817 32.4333C168.74 32.51 168.662 32.5483 168.585 32.5483H165.347C165.27 32.5483 165.192 32.51 165.115 32.4333C165.038 32.3567 165 32.28 165 32.2033V31.2834C165 31.2451 165 31.2067 164.961 31.1684C164.923 31.1684 164.884 31.1684 164.845 31.2067C164.074 32.2033 162.995 32.74 161.645 32.74C160.335 32.74 159.216 32.395 158.291 31.6667C157.366 30.9384 156.672 29.9802 156.286 28.7153C155.978 27.757 155.824 26.6454 155.824 25.3805C155.824 24.0773 155.978 22.9274 156.325 21.9691C156.749 20.7808 157.404 19.8609 158.33 19.171C159.255 18.481 160.373 18.136 161.723 18.136C163.072 18.136 164.074 18.596 164.845 19.5159C164.884 19.5543 164.923 19.5926 164.961 19.5543C165 19.5543 165 19.5159 165 19.4393V13.5364C165.038 13.4597 165.077 13.3831 165.115 13.3064ZM165 25.4188C165 24.1923 164.807 23.234 164.383 22.5057C163.959 21.7774 163.342 21.4325 162.532 21.4325C161.645 21.4325 160.99 21.7774 160.566 22.5057C160.103 23.234 159.872 24.1923 159.872 25.4188C159.872 26.5304 160.065 27.4503 160.45 28.1786C160.913 28.9836 161.607 29.3669 162.494 29.3669C163.342 29.3669 163.959 28.9836 164.421 28.1786C164.807 27.527 165 26.6071 165 25.4188Z" fill="#2D4D63"/>
<path d="M188.942 13.9199C189.868 14.4182 190.6 15.1082 191.101 16.0281C191.603 16.948 191.872 17.983 191.872 19.1712C191.872 20.3211 191.603 21.356 191.063 22.2376C190.523 23.1192 189.79 23.8092 188.827 24.3075C187.863 24.8058 186.783 25.0358 185.549 25.0358H181.617C181.54 25.0358 181.463 25.0741 181.463 25.1891V32.2419C181.463 32.3186 181.424 32.3952 181.347 32.4719C181.27 32.5486 181.193 32.5869 181.116 32.5869H177.877C177.8 32.5869 177.723 32.5486 177.646 32.4719C177.569 32.3952 177.53 32.3186 177.53 32.2419V13.4983C177.53 13.4216 177.569 13.345 177.646 13.2683C177.723 13.1917 177.8 13.1533 177.877 13.1533H185.704C186.937 13.1917 188.017 13.4216 188.942 13.9199ZM187.169 21.1644C187.67 20.6661 187.94 20.0528 187.94 19.2479C187.94 18.4429 187.67 17.7913 187.169 17.293C186.668 16.7947 185.974 16.5647 185.125 16.5647H181.617C181.54 16.5647 181.463 16.6031 181.463 16.7181V21.7777C181.463 21.8543 181.501 21.931 181.617 21.931H185.125C185.974 21.8927 186.668 21.6627 187.169 21.1644Z" fill="#2D4D63"/>
<path d="M194.109 32.4333C194.032 32.3567 193.993 32.28 193.993 32.2033V13.5364C193.993 13.4597 194.032 13.3831 194.109 13.3064C194.186 13.2297 194.263 13.1914 194.34 13.1914H197.579C197.656 13.1914 197.733 13.2297 197.81 13.3064C197.887 13.3831 197.926 13.4597 197.926 13.5364V32.2033C197.926 32.28 197.887 32.3567 197.81 32.4333C197.733 32.51 197.656 32.5483 197.579 32.5483H194.34C194.263 32.51 194.186 32.51 194.109 32.4333Z" fill="#2D4D63"/>
<path d="M209.685 18.7495C210.61 19.1712 211.381 19.7461 211.882 20.4361C212.384 21.126 212.692 21.9693 212.692 22.8509V32.2035C212.692 32.2802 212.654 32.3568 212.576 32.4335C212.499 32.5102 212.422 32.5485 212.345 32.5485H209.107C209.029 32.5485 208.952 32.5102 208.875 32.4335C208.798 32.3568 208.76 32.2802 208.76 32.2035V31.2836C208.76 31.2453 208.76 31.2069 208.721 31.1686C208.682 31.1686 208.644 31.1686 208.605 31.2069C207.834 32.2035 206.562 32.7401 204.865 32.7401C203.439 32.7401 202.244 32.3952 201.357 31.7052C200.47 31.0153 200.008 29.9804 200.008 28.6005C200.008 27.1822 200.509 26.0706 201.511 25.304C202.514 24.5374 203.94 24.1158 205.791 24.1158H208.605C208.682 24.1158 208.76 24.0775 208.76 23.9625V23.3492C208.76 22.7359 208.567 22.2759 208.22 21.9309C207.834 21.586 207.294 21.4327 206.562 21.4327C205.984 21.4327 205.521 21.5476 205.135 21.7393C204.75 21.9309 204.518 22.2376 204.403 22.5826C204.364 22.7742 204.21 22.8892 204.056 22.8509L200.702 22.3909C200.47 22.3526 200.393 22.2759 200.393 22.1609C200.47 21.3943 200.779 20.7044 201.318 20.0528C201.858 19.4395 202.591 18.9412 203.478 18.5962C204.364 18.2512 205.367 18.0596 206.485 18.0596C207.68 18.1362 208.76 18.3279 209.685 18.7495ZM207.95 29.2137C208.49 28.7921 208.798 28.2555 208.798 27.6039V26.6073C208.798 26.5306 208.76 26.4539 208.644 26.4539H206.639C205.791 26.4539 205.135 26.6073 204.673 26.9139C204.21 27.2206 203.979 27.6805 203.979 28.2555C203.979 28.7538 204.171 29.1371 204.518 29.4437C204.865 29.712 205.328 29.8654 205.945 29.8654C206.716 29.8654 207.372 29.6354 207.95 29.2137Z" fill="#2D4D63"/>
<path d="M226.456 19.4776C227.382 20.3975 227.806 21.5857 227.806 23.1573V32.2033C227.806 32.2799 227.767 32.3566 227.69 32.4333C227.613 32.5099 227.536 32.5483 227.459 32.5483H224.22C224.143 32.5483 224.066 32.5099 223.989 32.4333C223.912 32.3566 223.873 32.2799 223.873 32.2033V23.9239C223.873 23.1956 223.68 22.5823 223.256 22.1224C222.832 21.6624 222.292 21.4324 221.598 21.4324C220.904 21.4324 220.365 21.6624 219.94 22.1224C219.516 22.5823 219.324 23.1956 219.324 23.9239V32.1649C219.324 32.2416 219.285 32.3183 219.208 32.3949C219.131 32.4716 219.054 32.5099 218.977 32.5099H215.738C215.661 32.5099 215.584 32.4716 215.507 32.3949C215.43 32.3183 215.391 32.2416 215.391 32.1649V18.6726C215.391 18.596 215.43 18.5193 215.507 18.4426C215.584 18.366 215.661 18.3276 215.738 18.3276H218.977C219.054 18.3276 219.131 18.366 219.208 18.4426C219.285 18.5193 219.324 18.596 219.324 18.6726V19.6309C219.324 19.6692 219.324 19.7075 219.362 19.7459C219.401 19.7459 219.439 19.7459 219.439 19.7075C220.21 18.6343 221.328 18.0977 222.832 18.0977C224.374 18.136 225.57 18.5576 226.456 19.4776Z" fill="#2D4D63"/>
<path d="M243.266 26.3009C243.266 26.5309 243.112 26.6458 242.919 26.6458H234.36C234.244 26.6458 234.206 26.6842 234.244 26.7992C234.283 27.1825 234.399 27.5274 234.553 27.9108C235.015 28.9457 236.018 29.444 237.483 29.444C238.678 29.444 239.603 28.9457 240.297 28.0257C240.375 27.9107 240.452 27.8724 240.529 27.8724C240.567 27.8724 240.644 27.9107 240.722 27.9874L242.726 29.9423C242.804 30.0189 242.881 30.1339 242.881 30.1723C242.881 30.2106 242.842 30.2872 242.765 30.4022C242.148 31.1688 241.377 31.7438 240.413 32.1654C239.449 32.5871 238.408 32.7787 237.252 32.7787C235.671 32.7787 234.321 32.4338 233.203 31.7055C232.085 30.9772 231.314 29.9806 230.813 28.7157C230.427 27.7958 230.235 26.6075 230.235 25.1126C230.235 24.116 230.389 23.1961 230.659 22.4295C231.083 21.1263 231.815 20.0913 232.895 19.3247C233.974 18.5581 235.208 18.1748 236.673 18.1748C238.524 18.1748 240.028 18.7114 241.146 19.7847C242.264 20.8579 242.958 22.2762 243.189 24.0777C243.266 24.6527 243.305 25.4576 243.266 26.3009ZM234.399 23.0811C234.321 23.3111 234.244 23.6177 234.206 23.9627C234.206 24.0394 234.244 24.116 234.36 24.116H239.179C239.295 24.116 239.334 24.0777 239.295 23.9627C239.218 23.4261 239.141 23.1578 239.141 23.1961C238.987 22.6595 238.678 22.1995 238.254 21.9312C237.83 21.6629 237.329 21.4712 236.712 21.4712C235.555 21.4712 234.784 22.0079 234.399 23.0811Z" fill="#2D4D63"/>
<path d="M253.445 21.3563C253.368 21.4329 253.291 21.4713 253.213 21.4713H250.553C250.476 21.4713 250.399 21.5096 250.399 21.6246V27.4892C250.399 28.1024 250.515 28.5624 250.784 28.8307C251.016 29.1374 251.44 29.2907 251.98 29.2907H252.905C252.982 29.2907 253.059 29.329 253.136 29.4057C253.213 29.4823 253.252 29.559 253.252 29.6357V32.2421C253.252 32.4338 253.136 32.5488 252.905 32.5871C252.134 32.6254 251.556 32.6254 251.247 32.6254C249.705 32.6254 248.548 32.3571 247.816 31.8588C247.045 31.3605 246.659 30.4023 246.659 28.984V21.5863C246.659 21.5096 246.621 21.4329 246.505 21.4329H244.924C244.847 21.4329 244.77 21.3946 244.693 21.3179C244.616 21.2413 244.577 21.1646 244.577 21.088V18.6348C244.577 18.5581 244.616 18.4815 244.693 18.4048C244.77 18.3282 244.847 18.2898 244.924 18.2898H246.505C246.582 18.2898 246.659 18.2515 246.659 18.1365V14.8401C246.659 14.7634 246.698 14.6868 246.775 14.6101C246.852 14.5334 246.929 14.4951 247.006 14.4951H250.129C250.206 14.4951 250.283 14.5334 250.36 14.6101C250.438 14.6868 250.476 14.7634 250.476 14.8401V18.1365C250.476 18.2132 250.515 18.2898 250.63 18.2898H253.291C253.368 18.2898 253.445 18.3282 253.522 18.4048C253.599 18.4815 253.638 18.5581 253.638 18.6348V21.088C253.56 21.203 253.522 21.2796 253.445 21.3563Z" fill="#2D4D63"/>
</g>
<defs>
<clipPath id="clip0">
<rect width="254" height="45" fill="white"/>
</clipPath>
</defs>
</svg>
