<svg width="222" height="50" viewBox="0 0 222 50" fill="none" xmlns="http://www.w3.org/2000/svg">
<g clip-path="url(#clip0)">
<path d="M18.6535 0.419922H12.4355V6.61753H18.6535V0.419922Z" fill="#92ABBB"/>
<path d="M18.6535 43.8027H12.4355V50.0003H18.6535V43.8027Z" fill="#92ABBB"/>
<path d="M12.4357 6.61719H6.21777V12.8139H12.4357V6.61719Z" fill="#92ABBB"/>
<path d="M12.4357 37.6045H6.21777V43.8021H12.4357V37.6045Z" fill="#92ABBB"/>
<path d="M6.21796 12.8145H0V37.6049H6.21796V12.8145Z" fill="#92ABBB"/>
<path d="M82.978 5.98847V5.95532C82.978 3.98126 81.5255 2.33622 79.4775 2.33622C77.4305 2.33622 76.0103 3.94811 76.0103 5.92386V5.95532C76.0103 7.93107 77.4629 9.57696 79.5108 9.57696C81.5587 9.57696 82.978 7.96252 82.978 5.98847ZM73.3525 5.98847V5.95532C73.3525 2.68053 75.9446 0 79.5117 0C83.077 0 85.6367 2.64992 85.6367 5.92386V5.95532C85.6367 9.2318 83.0445 11.914 79.4784 11.914C75.9114 11.914 73.3525 9.26326 73.3525 5.98847Z" fill="#92ABBB"/>
<path d="M95.3459 6.04249C96.6167 6.04249 97.3588 5.28585 97.3588 4.29798V4.26397C97.3588 3.12902 96.5673 2.52116 95.2955 2.52116H93.3303V6.04249H95.3459ZM90.7886 0.233398H95.5105C98.2672 0.233398 99.9356 1.86229 99.9356 4.21636V4.24782C99.9356 6.91559 97.8544 8.29794 95.2631 8.29794H93.3303V11.753H90.7886V0.233398Z" fill="#92ABBB"/>
<path d="M104.694 0.233398H113.411V2.48885H107.221V4.82507H112.668V7.07967H107.221V9.49751H113.494V11.7521H104.694V0.233398Z" fill="#92ABBB"/>
<path d="M118.823 0.233398H121.168L126.582 7.32622V0.233398H129.091V11.7521H126.929L121.332 4.42975V11.7521H118.823V0.233398Z" fill="#92ABBB"/>
<path d="M78.1392 21.592H74.6226V19.2549H84.1986V21.592H80.681V30.7753H78.1392V21.592Z" fill="#92ABBB"/>
<path d="M89.6157 19.2549H98.3337V21.5103H92.1421V23.8483H97.5899V26.1012H92.1421V28.5207H98.4156V30.7753H89.6157V19.2549Z" fill="#92ABBB"/>
<path d="M103.269 25.0496V25.0148C103.269 21.7408 105.745 19.0586 109.295 19.0586C111.474 19.0586 112.779 19.7838 113.852 20.8371L112.233 22.6964C111.343 21.8913 110.433 21.3965 109.278 21.3965C107.33 21.3965 105.927 23.0084 105.927 24.985V25.0156C105.927 26.9914 107.297 28.6373 109.278 28.6373C110.6 28.6373 111.408 28.111 112.317 27.2872L113.934 28.9178C112.746 30.1837 111.424 30.9743 109.196 30.9743C105.795 30.9735 103.269 28.3559 103.269 25.0496Z" fill="#92ABBB"/>
<path d="M119.017 19.2549H121.559V23.8151H126.248V19.2549H128.791V30.7753H126.248V26.1505H121.559V30.7753H119.017V19.2549Z" fill="#92ABBB"/>
<path d="M134.855 19.2549H137.2L142.616 26.3477V19.2549H145.125V30.7753H142.962L137.366 23.4529V30.7753H134.855V19.2549Z" fill="#92ABBB"/>
<path d="M159.537 25.0496V25.0148C159.537 23.0416 158.083 21.3957 156.036 21.3957C153.989 21.3957 152.568 23.0076 152.568 24.9842V25.0148C152.568 26.9905 154.021 28.6364 156.069 28.6364C158.116 28.6364 159.537 27.0237 159.537 25.0496ZM149.911 25.0496V25.0148C149.911 21.7408 152.503 19.0586 156.069 19.0586C159.635 19.0586 162.194 21.7094 162.194 24.9842V25.0148C162.194 28.2912 159.602 30.9735 156.036 30.9735C152.47 30.9735 149.911 28.3236 149.911 25.0496Z" fill="#92ABBB"/>
<path d="M167.216 19.2549H169.759V28.4714H175.521V30.7753H167.216V19.2549Z" fill="#92ABBB"/>
<path d="M188.687 25.0496V25.0148C188.687 23.0416 187.234 21.3957 185.186 21.3957C183.139 21.3957 181.72 23.0076 181.72 24.9842V25.0148C181.72 26.9905 183.171 28.6364 185.219 28.6364C187.267 28.6364 188.687 27.0237 188.687 25.0496ZM179.062 25.0496V25.0148C179.062 21.7408 181.654 19.0586 185.22 19.0586C188.786 19.0586 191.346 21.7094 191.346 24.9842V25.0148C191.346 28.2912 188.753 30.9735 185.187 30.9735C181.62 30.9735 179.062 28.3236 179.062 25.0496Z" fill="#92ABBB"/>
<path d="M195.515 25.0496V25.0148C195.515 21.7408 198.075 19.0586 201.574 19.0586C203.655 19.0586 204.909 19.6188 206.115 20.6373L204.514 22.5638C203.622 21.8241 202.829 21.3957 201.493 21.3957C199.643 21.3957 198.173 23.0246 198.173 24.9842V25.0148C198.173 27.1223 199.626 28.6687 201.673 28.6687C202.598 28.6687 203.424 28.4383 204.068 27.9784V26.3316H201.509V24.1442H206.527V29.1465C205.338 30.1505 203.704 30.9735 201.592 30.9735C197.991 30.9735 195.515 28.4553 195.515 25.0496Z" fill="#92ABBB"/>
<path d="M215.016 26.2338L210.575 19.2549H213.548L216.304 23.8806L219.111 19.2549H222L217.559 26.1853V30.7753H215.016V26.2338Z" fill="#92ABBB"/>
<path d="M74.6211 38.2988H83.4201V40.6027H77.1629V43.0554H82.678V45.3593H77.1629V49.8192H74.6211V38.2988Z" fill="#92ABBB"/>
<path d="M88.46 44.8816V38.2988H91.0017V44.8169C91.0017 46.6907 91.9425 47.6624 93.4949 47.6624C95.0472 47.6624 95.988 46.7255 95.988 44.8994V38.2988H98.5298V44.7991C98.5298 48.2881 96.5655 49.9995 93.4616 49.9995C90.3586 49.9995 88.46 48.272 88.46 44.8816Z" fill="#92ABBB"/>
<path d="M103.665 38.2988H106.008L111.425 45.3925V38.2988H113.933V49.8192H111.771L106.174 42.4943V49.8192H103.665V38.2988Z" fill="#92ABBB"/>
<path d="M123.358 47.5306C125.438 47.5306 126.842 46.1313 126.842 44.0935V44.0578C126.842 42.0199 125.438 40.5857 123.358 40.5857H121.394V47.5306H123.358ZM118.852 38.2988H123.359C126.992 38.2988 129.501 40.7855 129.501 44.0263V44.0578C129.501 47.3002 126.992 49.8184 123.359 49.8184H118.852V38.2988Z" fill="#92ABBB"/>
<path d="M43.5259 0.419922H37.3071V6.61753H43.5259V0.419922Z" fill="#92ABBB"/>
<path d="M49.7438 37.6055H43.5259V43.8031H49.7438V37.6055Z" fill="#92ABBB"/>
<path d="M43.5259 43.8027H37.3071V49.9995H43.5259V43.8027Z" fill="#92ABBB"/>
<path d="M49.7438 6.61719H43.5259V12.8148H49.7438V6.61719Z" fill="#92ABBB"/>
<path d="M55.9606 12.8154H49.7427V37.6059H55.9606V12.8154Z" fill="#92ABBB"/>
</g>
<defs>
<clipPath id="clip0">
<rect width="222" height="50" fill="white"/>
</clipPath>
</defs>
</svg>