<svg width="105" height="28" viewBox="0 0 105 28" fill="none" xmlns="http://www.w3.org/2000/svg">
<path opacity="0.5" d="M46.1364 3.10672C44.3545 1.21672 41.9364 0.136719 39.3909 0.136719H25.4545V27.1367H35V10.2617H38.0545C38.8818 10.2617 39.7091 10.5992 40.2818 11.2742L43.5909 14.7842C44.1636 15.3917 44.5455 16.2692 44.5455 17.1467V27.1367H54.0909V15.7292C54.0909 13.0292 53.0727 10.4642 51.2909 8.57422L46.1364 3.10672ZM95.4545 0.136719V10.1267C95.4545 11.0042 95.1364 11.8817 94.5 12.4892L91.1909 15.9992C90.6182 16.6067 89.7909 17.0117 88.9636 17.0117H84.3818C85.3364 15.3917 85.9091 13.5017 85.9091 11.5442V0.136719H76.3636V10.1267C76.3636 11.0042 76.0455 11.8817 75.4091 12.4892L72.1 15.9992C71.5273 16.6067 70.7 17.0117 69.8727 17.0117H66.8182V0.136719H57.2727V27.1367H71.2091C73.7545 27.1367 76.1727 26.0567 77.9545 24.1667L81.1364 20.7917V27.1367H90.3C92.8455 27.1367 95.2636 26.0567 97.0455 24.1667L102.2 18.6992C103.982 16.8092 105 14.2442 105 11.5442V0.136719H95.4545ZM0 10.2617H6.36364V27.1367H15.9091V10.2617H22.2727V0.136719H0V10.2617Z" fill="#376180"/>
</svg>