<svg width="187" height="27" viewBox="0 0 187 27" fill="none" xmlns="http://www.w3.org/2000/svg">
<path d="M45.4128 26.7773H45.8029V0.22168H45.4128V26.7773Z" fill="#28A199"/>
<path d="M26.6266 0.22168L18.9031 10.6876L11.1796 0.22168H0V7.68422H2.88656V19.3071H0V26.7773H14.2378V19.3071H11.164V11.745L18.9031 22.1419L26.65 11.745V19.3071H23.5606V26.7773H37.7984V19.3071H34.9118V7.68422H37.7984V0.22934L26.6266 0.22168Z" fill="#28A199"/>
<path d="M58.7456 3.75426C58.7456 2.605 58.3321 2.06101 57.3647 2.06101C56.3895 2.06101 55.976 2.61266 55.976 3.74659V23.2457C55.976 24.3873 56.3895 24.9313 57.3647 24.9313C58.3321 24.9313 58.7456 24.3873 58.7456 23.2457V19.5298H61.2186V23.3224C61.2186 25.5596 59.947 27 57.3647 27C54.7746 27 53.5029 25.5596 53.5029 23.3224V3.67764C53.5029 1.43275 54.7746 0 57.3647 0C59.9392 0 61.2186 1.43275 61.2186 3.67764V7.1714H58.7456V3.75426Z" fill="#28A199"/>
<path d="M68.6693 3.86152C68.6693 2.83485 68.4041 2.06101 67.2494 2.06101C66.0792 2.06101 65.8218 2.82719 65.8218 3.86152V6.65806C65.8218 7.50085 65.9778 8.34365 66.3835 9.04853L70.3154 15.6683C70.9035 16.6479 71.2133 17.7644 71.2126 18.9015V23.1002C71.2126 25.5979 69.7147 27 67.2494 27C64.5111 27 63.2004 25.7818 63.2004 23.0925V19.4608H65.6735V22.9546C65.6735 24.2035 66.1572 24.939 67.2494 24.939C68.2636 24.939 68.7473 24.2035 68.7473 22.9469V19.2387C68.7576 18.3412 68.5087 17.4592 68.0296 16.695L64.4019 10.4889C63.7179 9.48703 63.3515 8.30865 63.3487 7.10244V3.89983C63.3487 1.29484 64.7373 0 67.2494 0C70.019 0 71.1424 1.28717 71.1424 3.71595V7.10244H68.6693V3.86152Z" fill="#28A199"/>
<path d="M74.3252 0.22168H80.8785V2.28269H76.7983V11.9518H80.699V14.0205H76.7983V24.7163H80.8785V26.7773H74.3252V0.22168Z" fill="#28A199"/>
<path d="M89.2105 2.52876C89.2183 2.06139 89.187 1.58636 88.9608 1.32586C88.7424 1.0577 88.2353 0.965759 88.0168 0.965759C87.1274 0.965759 86.7764 1.49442 86.7374 1.60935C86.7062 1.70129 86.4955 1.90815 86.4955 3.33324V5.55515C86.4955 7.58551 87.1742 7.82303 88.009 7.82303C88.3367 7.82303 89.3275 7.7081 89.3353 6.09147H90.4509C90.4977 8.71179 88.6175 8.71179 88.0636 8.71179C87.0104 8.71179 85.3955 8.63517 85.3955 5.4249V3.0804C85.3955 0.735908 86.4487 0.0693359 88.1104 0.0693359C89.7878 0.0693359 90.4275 0.919789 90.3261 2.52876H89.2105Z" fill="#28A199"/>
<path d="M92.0972 5.50918V2.7816C92.0972 1.12666 92.9631 0.0693359 94.7497 0.0693359C96.544 0.0693359 97.41 1.12666 97.41 2.7816V5.50918C97.41 7.8077 96.544 8.71179 94.7575 8.71179C92.9631 8.71179 92.0972 7.8077 92.0972 5.50918ZM96.31 5.54749V2.74329C96.31 1.01173 95.0929 0.950438 94.7497 0.950438C94.4142 0.950438 93.1972 1.01173 93.1972 2.74329V5.54749C93.1972 7.36332 93.7355 7.82303 94.7575 7.82303C95.7717 7.82303 96.31 7.36332 96.31 5.54749Z" fill="#28A199"/>
<path d="M100.312 8.53595H99.3057V0.238281H101.053L103.183 7.20281H103.206L105.36 0.238281H107.138V8.53595H106.062V1.15769H106.031L103.675 8.53595H102.653L100.335 1.15769H100.312V8.53595Z" fill="#28A199"/>
<path d="M109.159 8.53595V0.238281H111.663C112.802 0.238281 114.019 0.652016 114.019 2.60576C114.019 4.49055 112.514 4.8813 111.648 4.8813H110.236V8.53595H109.159ZM110.236 3.96189H111.421C111.866 3.96189 112.919 3.84697 112.919 2.55213C112.919 1.28794 111.952 1.15769 111.718 1.15769H110.236V3.96189Z" fill="#28A199"/>
<path d="M115.65 0.238281H116.727V5.54787C116.727 7.36371 117.288 7.82341 118.302 7.82341C119.324 7.82341 119.886 7.36371 119.886 5.54787V0.238281H120.963V5.5019C120.963 7.80043 120.097 8.70451 118.31 8.70451C116.516 8.70451 115.65 7.80043 115.65 5.5019V0.238281Z" fill="#28A199"/>
<path d="M127.937 0.238281V1.15769H125.714V8.53595H124.637V1.15769H122.414V0.238281H127.937Z" fill="#28A199"/>
<path d="M129.396 8.53595V0.238281H133.749V1.15769H130.473V3.83164H133.515V4.75105H130.473V7.62421H133.819V8.54362L129.396 8.53595Z" fill="#28A199"/>
<path d="M136.503 4.7204V8.53595H135.427V0.238281H138.337C139.842 0.238281 140.365 1.27261 140.365 2.30695C140.365 3.28765 139.819 4.03085 138.82 4.20707V4.23005C139.796 4.37562 140.147 4.69742 140.201 6.36768C140.217 6.72012 140.334 8.02262 140.498 8.53595H139.374C139.062 7.96132 139.14 6.88102 139.047 5.77773C138.961 4.76637 138.134 4.7204 137.767 4.7204H136.503ZM136.503 3.80099H138.118C138.898 3.80099 139.265 3.14974 139.265 2.42188C139.265 1.82426 138.961 1.15769 138.126 1.15769H136.503V3.80099Z" fill="#28A199"/>
<path d="M145.389 6.06848V6.31366C145.389 7.43228 146.115 7.79238 146.801 7.79238C147.659 7.79238 148.315 7.43228 148.315 6.45157C148.315 4.61275 144.523 4.81196 144.523 2.32189C144.523 0.850833 145.584 0.0693359 147.004 0.0693359C148.549 0.0693359 149.415 0.804862 149.345 2.49811H148.221C148.237 1.58636 147.94 0.988746 146.918 0.988746C146.279 0.988746 145.623 1.31054 145.623 2.20696C145.623 4.03046 149.415 3.76996 149.415 6.39794C149.415 8.15248 148.182 8.71179 146.794 8.71179C144.297 8.73477 144.297 6.86531 144.328 6.06848H145.389Z" fill="#28A199"/>
<path d="M154.899 2.52876C154.915 2.06139 154.876 1.58636 154.657 1.32586C154.431 1.0577 153.932 0.965759 153.706 0.965759C152.816 0.965759 152.465 1.49442 152.426 1.60935C152.395 1.70129 152.192 1.90815 152.192 3.33324V5.55515C152.192 7.58551 152.863 7.82303 153.698 7.82303C154.025 7.82303 155.016 7.7081 155.024 6.09147H156.14C156.186 8.71179 154.306 8.71179 153.752 8.71179C152.699 8.71179 151.084 8.63517 151.084 5.4249V3.0804C151.084 0.735908 152.137 0.0693359 153.799 0.0693359C155.476 0.0693359 156.116 0.919789 156.015 2.52876H154.899Z" fill="#28A199"/>
<path d="M157.88 8.53595H158.956V0.238281H157.88V8.53595Z" fill="#28A199"/>
<path d="M160.945 8.53595V0.238281H165.299V1.15769H162.022V3.83164H165.065V4.75105H162.022V7.62421H165.369V8.54362L160.945 8.53595Z" fill="#28A199"/>
<path d="M172.804 0.238281V8.53595H171.329L167.998 1.34157H167.975V8.53595H167.015V0.238281H168.536L171.821 7.34072H171.852V0.238281H172.804Z" fill="#28A199"/>
<path d="M178.499 2.52876C178.515 2.06139 178.476 1.58636 178.257 1.32586C178.031 1.0577 177.532 0.965759 177.305 0.965759C176.416 0.965759 176.065 1.49442 176.026 1.60935C175.995 1.70129 175.792 1.90815 175.792 3.33324V5.55515C175.792 7.58551 176.463 7.82303 177.298 7.82303C177.625 7.82303 178.616 7.7081 178.624 6.09147H179.739C179.786 8.71179 177.906 8.71179 177.352 8.71179C176.299 8.71179 174.684 8.63517 174.684 5.4249V3.0804C174.684 0.735908 175.737 0.0693359 177.399 0.0693359C179.076 0.0693359 179.716 0.919789 179.615 2.52876H178.499Z" fill="#28A199"/>
<path d="M181.417 8.53595V0.238281H185.77V1.15769H182.493V3.83164H185.536V4.75105H182.493V7.62421H185.84V8.54362L181.417 8.53595Z" fill="#28A199"/>
<path d="M87.4005 10.9639H88.7658L91.5119 19.2615H90.3105L89.702 17.2848H86.4409L85.8012 19.2615H84.7168L87.4005 10.9639ZM88.0558 11.9369H88.0324L86.7062 16.3654H89.4133L88.0558 11.9369Z" fill="#28A199"/>
<path d="M99.1105 10.9639V19.2615H97.6282L94.2891 12.0672H94.2657V19.2615H93.3062V10.9639H94.8274L98.1197 18.0663H98.1431V10.9639H99.1105Z" fill="#28A199"/>
<path d="M101.365 10.9639H103.963C105.04 10.9639 105.812 11.347 106.233 12.2281C106.577 12.9329 106.608 14.5802 106.608 14.8484C106.608 16.6106 106.444 17.6373 106.093 18.1889C105.64 18.9014 104.782 19.2615 103.308 19.2615H101.365V10.9639ZM102.442 18.3421H103.456C104.954 18.3421 105.508 17.7905 105.508 15.8597V14.1741C105.508 12.5039 104.977 11.8833 103.854 11.8833H102.442V18.3421Z" fill="#28A199"/>
<path d="M111.968 19.2615V10.9639H116.321V11.8833H113.044V14.5572H116.087V15.4766H113.044V18.3498H116.391V19.2692L111.968 19.2615Z" fill="#28A199"/>
<path d="M124.536 10.9639V19.2615H123.053L119.722 12.0672H119.699V19.2615H118.739V10.9639H120.26L123.545 18.0663H123.576V10.9639H124.536Z" fill="#28A199"/>
<path d="M131.268 13.1865C131.268 12.2135 130.863 11.6772 129.77 11.6772C129.435 11.6772 128.21 11.7384 128.21 13.47V16.2742C128.21 18.09 128.756 18.5497 129.77 18.5497C130.551 18.5497 131.058 18.3429 131.284 18.182V15.7072H129.724V14.7878H132.361V18.8256C131.666 19.1933 130.863 19.4462 129.77 19.4462C127.976 19.4462 127.118 18.5344 127.118 16.2436V13.516C127.118 11.861 127.976 10.8037 129.77 10.8037C131.596 10.8037 132.462 11.455 132.392 13.1942L131.268 13.1865Z" fill="#28A199"/>
<path d="M135.091 19.2615H136.168V10.9639H135.091V19.2615Z" fill="#28A199"/>
<path d="M144.672 10.9639V19.2615H143.197L139.866 12.0672H139.842V19.2615H138.883V10.9639H140.404L143.689 18.0663H143.72V10.9639H144.672Z" fill="#28A199"/>
<path d="M147.347 19.2615V10.9639H151.701V11.8833H148.424V14.5572H151.467V15.4766H148.424V18.3498H151.771V19.2692L147.347 19.2615Z" fill="#28A199"/>
<path d="M154.096 19.2615V10.9639H158.449V11.8833H155.172V14.5572H158.215V15.4766H155.172V18.3498H158.519V19.2692L154.096 19.2615Z" fill="#28A199"/>
<path d="M161.897 15.446V19.2615H160.821V10.9639H163.731C165.229 10.9639 165.759 11.9982 165.759 13.0325C165.759 14.0132 165.213 14.7564 164.214 14.9327V14.9556C165.19 15.1012 165.541 15.423 165.595 17.0933C165.611 17.4457 165.72 18.7482 165.884 19.2615H164.768C164.456 18.6869 164.534 17.6066 164.441 16.5033C164.355 15.492 163.528 15.446 163.161 15.446H161.897ZM161.897 14.5266H163.512C164.285 14.5266 164.659 13.8753 164.659 13.1475C164.659 12.5498 164.347 11.8833 163.52 11.8833H161.897V14.5266Z" fill="#28A199"/>
<path d="M168.302 19.2615H169.379V10.9639H168.302V19.2615Z" fill="#28A199"/>
<path d="M177.882 10.9639V19.2615H176.408L173.077 12.0672H173.053V19.2615H172.094V10.9639H173.615L176.899 18.0663H176.931V10.9639H177.882Z" fill="#28A199"/>
<path d="M184.623 13.1865C184.623 12.2135 184.217 11.6772 183.125 11.6772C182.789 11.6772 181.565 11.7384 181.565 13.47V16.2742C181.565 18.09 182.111 18.5497 183.125 18.5497C183.905 18.5497 184.412 18.3429 184.638 18.182V15.7072H183.078V14.7878H185.715V18.8256C185.021 19.1933 184.217 19.4462 183.125 19.4462C181.331 19.4462 180.472 18.5344 180.472 16.2436V13.516C180.472 11.861 181.331 10.8037 183.125 10.8037C184.951 10.8037 185.816 11.455 185.746 13.1942L184.623 13.1865Z" fill="#28A199"/>
<path d="M178.499 26.7621V26.5016C178.834 26.4786 179.092 26.4556 179.092 26.1798C179.092 26.0878 179.061 25.9806 179.037 25.8886L178.881 25.3906H177.134L176.978 25.812C176.946 25.9193 176.915 26.0189 176.915 26.1185C176.915 26.4632 177.29 26.4862 177.594 26.5016V26.7621H175.534V26.5016C176.057 26.4786 176.221 26.379 176.416 25.8656L177.765 22.234L177.687 22.119C178.257 21.9352 178.421 21.8432 178.67 21.667C178.772 21.9964 178.78 22.0424 178.897 22.3872L179.997 25.7124C180.192 26.3023 180.285 26.4479 180.816 26.5016V26.7621H178.499ZM178.054 22.8392L177.313 24.8773H178.756L178.054 22.8392ZM160.711 25.6741C160.485 26.0265 159.962 26.8846 158.582 26.8846C157.084 26.8846 156.116 25.8043 156.116 24.3793C156.116 23.0538 156.935 21.7589 158.613 21.7589C159.502 21.7589 159.97 22.119 160.259 22.3412L160.602 22.0348L160.626 23.5211L160.407 23.5594C160.304 23.2334 160.119 22.9382 159.869 22.7013C159.713 22.5481 159.346 22.2263 158.831 22.2263C157.926 22.2263 157.216 22.9465 157.216 24.2184C157.216 25.2833 157.801 26.287 158.956 26.287C159.822 26.287 160.15 25.8197 160.415 25.4442L160.711 25.6741ZM161.546 26.7621V26.5016C162.108 26.4556 162.116 26.333 162.116 25.8656L162.123 25.3446V23.2913C162.123 22.9772 162.123 22.6554 162.1 22.5021C162.077 22.211 161.936 22.1727 161.546 22.1344V21.8739H163.676V22.1344C163.262 22.1803 163.106 22.1957 163.052 22.4638C163.021 22.617 163.021 22.9848 163.021 23.276V23.9502C163.795 23.9968 164.571 23.9968 165.345 23.9502V23.1304C165.338 22.234 165.33 22.1957 164.651 22.1344V21.8739H166.812V22.1344C166.235 22.211 166.235 22.211 166.235 23.1457V25.2067C166.235 25.3983 166.235 26.0189 166.258 26.1644C166.297 26.4173 166.445 26.4709 166.804 26.5016V26.7621H164.651V26.5016C165.15 26.4479 165.283 26.4249 165.33 26.0955C165.345 25.9499 165.345 25.766 165.345 25.4136V24.5172C164.955 24.5018 164.62 24.4789 164.206 24.4789C163.777 24.4789 163.442 24.4942 163.021 24.5172V25.4136C163.021 26.4326 163.036 26.4326 163.684 26.5016V26.7621H161.546ZM167.694 26.7621V26.5016C168.177 26.4403 168.271 26.379 168.279 25.8733V23.2683C168.279 22.2493 168.279 22.2186 167.694 22.1344V21.8739H169.753V22.1344C169.168 22.1957 169.168 22.2186 169.168 23.2683V25.2374C169.168 25.4136 169.176 25.9652 169.192 26.1031C169.223 26.4096 169.363 26.4709 169.753 26.5016V26.7621H167.694ZM153.511 26.7621V26.5016C153.994 26.4403 154.088 26.379 154.096 25.8733V23.2683C154.096 22.2493 154.096 22.2186 153.511 22.1344V21.8739H155.562V22.1344C154.985 22.1957 154.985 22.2186 154.985 23.2683V25.2374C154.985 25.4136 154.985 25.9652 155.008 26.1031C155.04 26.4096 155.18 26.4709 155.562 26.5016V26.7621H153.511ZM150.374 26.7621V26.5016C150.998 26.4556 150.998 26.4249 150.998 25.5208V23.0691L149.267 26.8233H148.83L147.223 23.0155L147.191 25.8886C147.191 26.3713 147.246 26.4556 147.776 26.5016V26.7621H146.052V26.5016C146.442 26.4786 146.606 26.4249 146.63 26.0955C146.645 25.9652 146.669 25.5515 146.676 25.2833L146.747 23.23V22.663C146.747 22.1803 146.653 22.142 146.208 22.1344V21.8739H147.776L149.329 25.5898L151.037 21.8739H152.551V22.165C151.958 22.1957 151.95 22.2646 151.958 23.0231V25.0382C151.958 25.3753 151.958 25.789 151.989 26.0342C152.013 26.3943 152.153 26.4632 152.551 26.4939V26.7621H150.374ZM181.136 26.7621V26.5016C181.549 26.4786 181.705 26.4709 181.76 26.1951C181.83 25.8733 181.853 22.9772 181.853 22.4638C181.58 22.211 181.463 22.1573 181.136 22.1344V21.8739H182.634C183.047 22.4562 183.141 22.5864 183.874 23.4828L185.263 25.1684V22.9848C185.263 22.211 185.239 22.165 184.444 22.142V21.8739H186.41V22.1344C185.863 22.142 185.817 22.2569 185.809 23.0538L185.731 26.8233H185.442L184.997 26.2794L184.319 25.4519L182.353 23.0768V25.6051C182.353 26.3943 182.407 26.4249 183.172 26.5016V26.7621H181.136ZM137.112 26.9C136.765 26.9099 136.42 26.8493 136.099 26.722C135.777 26.5946 135.486 26.4033 135.244 26.1601C135.001 25.9168 134.812 25.6269 134.689 25.3086C134.567 24.9902 134.512 24.6503 134.529 24.3103C134.529 22.9695 135.442 21.7589 137.042 21.7666C137.384 21.7545 137.726 21.8125 138.044 21.9369C138.363 22.0613 138.652 22.2495 138.892 22.4894C139.133 22.7294 139.32 23.0158 139.442 23.3306C139.564 23.6454 139.618 23.9816 139.6 24.318C139.6 26.0035 138.43 26.9 137.104 26.9H137.112ZM138.103 25.8273C138.454 25.3063 138.524 24.816 138.5 24.18C138.512 23.6118 138.312 23.0588 137.939 22.6247C137.783 22.4562 137.471 22.211 137.049 22.2186C136.636 22.2186 136.324 22.4791 136.168 22.6477C135.806 23.0917 135.623 23.6505 135.653 24.2184C135.653 24.8619 135.739 25.3446 136.113 25.8656C136.425 26.31 136.831 26.4403 137.112 26.4403C137.4 26.4326 137.79 26.287 138.103 25.8273ZM140.1 26.4939C140.615 26.4479 140.677 26.3943 140.693 25.8656L140.708 25.0228V23.3066C140.708 23.1151 140.7 22.5711 140.669 22.4178C140.615 22.188 140.459 22.1727 140.1 22.1344V21.8739H143.751L143.829 23.0691H143.587C143.454 22.3029 143.142 22.3106 142.167 22.3106C141.855 22.3106 141.754 22.3106 141.574 22.3412V24.0268H142.23C142.838 24.0268 142.986 23.9808 143.01 23.4522H143.252V25.0611H143.018C142.978 24.5248 142.682 24.4712 142.128 24.4712H141.574V25.8656C141.582 26.402 141.652 26.4479 142.167 26.4939V26.7621H140.1V26.4939ZM97.3084 26.7544V26.4939C97.7921 26.4326 97.8935 26.379 97.9013 25.8656V23.2606C97.8935 22.2416 97.8935 22.211 97.3084 22.1344V21.8662H99.3758V22.1344C98.7907 22.188 98.7907 22.211 98.7907 23.2606V25.2374C98.7907 25.4059 98.7907 25.9576 98.8141 26.1031C98.8453 26.3943 98.9857 26.4632 99.3758 26.4862V26.7621L97.3084 26.7544ZM119.238 26.7544V26.4939C119.722 26.4326 119.824 26.379 119.831 25.8656V23.2606C119.831 22.2416 119.831 22.211 119.238 22.1344V21.8662H121.306V22.1344C120.721 22.188 120.721 22.211 120.721 23.2606V25.2374C120.721 25.4059 120.721 25.9576 120.744 26.1031C120.775 26.3943 120.916 26.4632 121.306 26.4862V26.7621L119.238 26.7544ZM91.2466 26.7544V26.4939C91.6523 26.4709 91.8083 26.4632 91.8707 26.1874C91.9331 25.8656 91.9487 22.9695 91.9644 22.4562C91.6835 22.211 91.5743 22.1573 91.2466 22.1344V21.8662H92.7367C93.158 22.4485 93.2438 22.5787 93.9849 23.4752L95.3658 25.1607V22.9848C95.3658 22.211 95.3424 22.165 94.5467 22.142V21.8739H96.5126V22.142C95.9665 22.142 95.9197 22.2569 95.9119 23.0538L95.8339 26.831H95.5452L95.1006 26.2794L94.4218 25.4519L92.4558 23.0768V25.6051C92.4558 26.402 92.5105 26.4249 93.275 26.5016V26.7697L91.2466 26.7544ZM115.119 25.2374L115.377 25.2067C115.65 26.0035 116.11 26.4326 116.859 26.4326C117.382 26.4326 117.85 26.2104 117.85 25.6817C117.85 25.1301 117.304 24.9156 117.07 24.816L116.461 24.5938C116.055 24.4482 115.291 24.1341 115.291 23.1917C115.291 22.2723 116.016 21.7589 116.867 21.7589C117.202 21.7589 117.585 21.8356 118.014 22.0961L118.31 21.8815L118.474 23.3373L118.224 23.3832C118.146 23.0614 118.076 22.9235 117.881 22.663C117.768 22.5175 117.621 22.4005 117.453 22.3219C117.285 22.2433 117.1 22.2052 116.914 22.211C116.383 22.211 116.071 22.4638 116.071 22.8546C116.071 23.4292 116.656 23.6284 117.21 23.8046C117.499 23.8966 117.725 23.9732 117.928 24.0881C118.318 24.318 118.646 24.747 118.646 25.337C118.646 26.1798 117.943 26.8846 116.898 26.8846C116.219 26.8846 115.806 26.6165 115.611 26.4939L115.197 26.1951L115.119 25.2374ZM123.311 26.7544V26.5475C123.763 26.5475 123.896 26.379 123.896 25.9882V22.3872H123.272C122.71 22.3872 122.336 22.3642 122.297 23.2377H122.039L122.078 21.8662H126.603L126.642 23.2377H126.385C126.346 22.3642 125.971 22.3872 125.409 22.3872H124.785V25.9882C124.785 26.3713 124.918 26.5399 125.37 26.5475V26.7544H123.311ZM87.4317 21.8662V22.1344C86.7685 22.1803 86.7685 22.2033 86.7607 23.2377V24.3869C86.7607 24.9845 86.7763 25.4979 87.0962 25.9576C87.3536 26.3177 87.7827 26.3636 88.0012 26.3636C88.7111 26.3636 89.109 26.0035 89.2806 25.4289C89.4211 24.9692 89.421 24.1111 89.421 23.5441V22.6247C89.3898 22.1803 89.1558 22.165 88.7189 22.1344V21.8662H90.6069V22.1344C90.1388 22.119 90.0452 22.2263 90.014 22.7167L89.9437 24.4022C89.9281 24.77 89.9125 25.1378 89.8267 25.4902C89.4913 26.808 88.1884 26.8693 87.8373 26.8693C87.5643 26.8693 86.9948 26.831 86.5345 26.5322C85.7933 26.0342 85.7856 25.3063 85.7856 24.5172V23.4062C85.7856 22.8775 85.7855 22.64 85.7621 22.5174C85.7231 22.211 85.5671 22.1497 85.1926 22.1344V21.8662H87.4317ZM105.094 21.8662V22.1344C104.611 22.2033 104.548 22.3336 104.135 23.2989L102.621 26.854H102.348L100.991 23.253C100.647 22.3182 100.601 22.211 100.101 22.1344V21.8662H102.473V22.1344C102.067 22.142 101.81 22.1573 101.81 22.4408C101.81 22.5787 101.841 22.7013 101.974 23.1074L102.847 25.5975L103.862 23.0231C103.924 22.8546 104.018 22.6324 104.018 22.5021C104.018 22.1497 103.659 22.1344 103.347 22.1344V21.8662H105.094ZM128.686 26.7544V26.4939C129.076 26.4556 129.232 26.4403 129.326 26.3407C129.435 26.2334 129.435 26.1108 129.443 25.5745V24.7164L128.117 22.7013C127.758 22.1727 127.75 22.165 127.274 22.1344V21.8585H129.864V22.1344C129.341 22.142 129.107 22.1573 129.107 22.3949C129.107 22.5251 129.201 22.6783 129.326 22.8852L130.09 24.1111L130.793 22.8852C130.917 22.6554 130.995 22.5021 130.995 22.3949C130.995 22.165 130.785 22.1497 130.441 22.1344V21.8585H132.392V22.1344C131.885 22.142 131.737 22.2876 131.167 23.207L130.387 24.4789V25.4979C130.387 26.3866 130.395 26.4556 131.136 26.4939V26.7544H128.686ZM105.555 26.7544V26.4862C106.069 26.4403 106.132 26.3943 106.148 25.858L106.163 25.0152V23.2989C106.163 23.1074 106.155 22.5711 106.116 22.4178C106.069 22.188 105.913 22.165 105.555 22.1267V21.8662H109.104L109.128 23.0308H108.909C108.792 22.3642 108.488 22.3029 107.638 22.3029H107.029V24.0268H107.575C108.215 24.0268 108.309 23.8812 108.355 23.4445H108.589V25.0535H108.355C108.355 24.5172 108.176 24.4635 107.567 24.4635H107.029V25.8273C107.029 26.1491 107.162 26.3253 107.825 26.3253C108.543 26.3253 109.042 26.3636 109.214 25.4902H109.448C109.409 25.8273 109.346 26.4096 109.346 26.7621L105.555 26.7544ZM175.285 24.6091V24.8619C174.832 24.8926 174.832 25.0152 174.816 25.9499V26.31C174.434 26.5475 173.88 26.8846 172.905 26.8846C171.189 26.8846 170.37 25.6128 170.37 24.3333C170.37 22.7626 171.446 21.7436 172.804 21.7436C173.654 21.7436 174.146 22.0577 174.551 22.3029L174.809 22.0118L174.848 23.5441L174.645 23.5748C174.522 23.1982 174.308 22.8564 174.021 22.5787C173.849 22.4255 173.529 22.2186 173.03 22.2186C172.164 22.2186 171.438 22.9388 171.438 24.3486C171.438 25.4672 172 26.4326 172.968 26.4326C173.529 26.4326 173.81 26.0495 173.841 26.0189C173.927 25.8886 173.951 25.7737 173.935 25.5592C173.919 24.9386 173.834 24.9232 173.28 24.8696V24.6014L175.285 24.6091ZM111.663 24.1341C111.796 24.1647 111.983 24.1877 112.131 24.1877C112.693 24.1877 113.122 23.751 113.145 23.3602C113.177 22.7933 112.88 22.3029 111.967 22.3029C111.835 22.3029 111.757 22.3029 111.655 22.3259L111.663 24.1341ZM111.663 25.2067C111.663 26.3177 111.663 26.4709 112.272 26.4862V26.7621H110.189V26.4862C110.727 26.4479 110.782 26.3636 110.789 25.835V23.4445C110.789 22.8622 110.789 22.6477 110.766 22.4945C110.727 22.2186 110.594 22.1727 110.189 22.1344V21.8739L112.451 21.8815C113.668 21.8815 114.058 22.4562 114.058 23.138C114.058 23.6054 113.762 24.2184 113.075 24.4252L113.957 25.9346C114.277 26.5092 114.448 26.6395 114.846 26.7008V26.8617L114.526 26.877C113.59 26.877 113.2 26.5552 112.81 25.7277L112.529 25.1607C112.233 24.5478 112.139 24.5785 111.663 24.5708V25.2067Z" fill="#28A199"/>
</svg>