<svg width="162" height="21" viewBox="0 0 162 21" fill="none" xmlns="http://www.w3.org/2000/svg">
<path opacity="0.5" d="M19.3532 0.136719V4.10055H18.5361C18.127 3.96854 17.9908 4.23256 17.9908 4.49708C16.764 8.59343 15.401 12.5578 14.0375 16.6481C13.7651 17.5732 13.4922 18.4983 13.0831 19.4233C13.0831 19.5553 12.8107 19.6874 12.674 19.6874H6.39709L6.26089 19.2908L1.48887 4.49208C1.35267 4.09555 1.21648 4.09555 0.80789 4.09555H0V0.136719H8.7248V4.10055H6.9527L9.81592 15.0675H9.95211L13.0877 4.10055H11.3156V0.136719H19.3532ZM33.1276 5.42216H38.9897L39.1259 7.40433C39.535 7.00779 39.8069 6.61176 40.0803 6.34724C41.7157 5.02613 43.6245 4.76211 45.6695 5.42216C47.1692 5.95071 47.8507 7.1398 47.8507 8.72544V15.728H49.0775V19.6919H42.5282V10.8396C42.5282 10.047 42.2558 9.65051 41.7105 9.5185C41.0296 9.38649 40.4837 9.5185 40.0752 10.047L39.8028 10.4436L39.6666 10.8401V15.729H40.621V19.6929H33.1219V15.7275H34.2125V9.38599H33.1219L33.1276 5.42216ZM68.844 9.25398H67.8896V5.29015H74.297V15.728H75.5238V19.6919H69.5255V18.2382C69.2531 18.5023 69.1164 18.7668 68.8445 18.8983C67.3448 20.2194 64.755 20.4834 62.9824 19.6909C61.6194 19.0308 60.9374 17.9732 60.9374 16.5196L60.8012 9.91304V9.38449H59.5744V5.42216H66.118V13.8729C66.118 14.2694 66.118 14.6654 66.2542 14.93C66.3904 15.4585 66.9352 15.7225 67.481 15.7225C68.0268 15.7225 68.4354 15.4585 68.7078 14.93C68.844 14.7979 68.844 14.5334 68.844 14.2699V9.25398ZM32.1675 13.4878H23.0347C23.0347 14.2804 23.0347 15.073 23.4438 15.734C23.7162 16.2626 24.3982 16.5266 24.9435 16.5266C25.4888 16.5266 26.1703 16.2626 26.4432 15.6015C26.5794 15.3375 26.5794 15.073 26.7156 14.6764H31.7595C31.6233 16.2616 30.9418 17.5832 29.5783 18.5083C28.6508 19.1502 27.5733 19.5588 26.4427 19.6974C24.943 19.9614 23.3071 19.8294 21.8079 19.4333C19.7629 18.7733 18.3999 17.4512 17.8546 15.6015C17.1736 13.4873 17.1736 11.3732 17.8546 9.25898C18.6723 6.74877 20.5811 5.29515 23.3076 4.89862C24.5344 4.76661 25.7612 4.76661 26.9885 5.16264C29.715 5.95521 31.2147 7.67285 31.7605 10.4481C32.0329 11.5052 32.0329 12.4302 32.1696 13.4873L32.1675 13.4878ZM23.1703 10.7126H26.7145C26.7145 9.92004 26.7145 9.25898 25.8968 8.86245C25.2159 8.46592 24.5339 8.46592 23.988 8.86245C23.1703 9.25898 23.1703 9.91954 23.1703 10.7126ZM103.186 13.4878H94.0578C94.0578 14.2804 94.0578 15.073 94.4669 15.734C94.876 16.3951 95.4213 16.5266 96.1023 16.5266C96.7833 16.5266 97.3291 16.1301 97.602 15.6015L97.8744 14.8089H102.918C102.646 17.7157 100.465 19.6979 97.4653 19.9624C95.9656 20.0944 94.6021 20.0944 93.2391 19.5658C91.1941 18.9058 89.8311 17.5837 89.1496 15.602C88.4686 13.4878 88.4686 11.5057 89.1496 9.39149C89.9673 6.74877 92.0128 5.42766 94.7388 5.03113C95.9656 4.89912 97.3286 4.89912 98.5564 5.29515C101.146 6.08772 102.51 7.80536 103.055 10.1841C103.191 11.3732 103.191 12.4302 103.191 13.4873L103.186 13.4878ZM94.3245 10.7126H97.8687C97.8687 9.25898 97.1877 8.46642 95.9599 8.59843C94.8693 8.73044 94.1878 9.5235 94.3245 10.7126ZM49.7528 5.28965H51.3882V2.51442C51.3882 1.98587 51.5244 1.85436 52.0692 1.72185L56.2954 0.796774V5.28915H58.6128V9.25298H56.2954V14.8034C56.4316 15.7285 57.1131 16.1246 57.9308 15.9925C58.067 15.9925 58.2032 15.9925 58.4761 15.8605V18.3707C58.4761 19.5598 58.4761 19.5598 57.2493 19.6919C56.0225 19.8239 54.7957 19.9559 53.4317 19.6919C51.6596 19.2953 50.8419 18.2382 50.8419 16.5206V9.25498H49.6151C49.7513 8.06588 49.7513 6.74477 49.7513 5.29115L49.7528 5.28965ZM76.6082 19.6924V15.728H77.835V9.38599H76.6082V5.42216H82.3336C82.3336 6.08222 82.4698 6.87578 82.4698 7.66835C82.606 7.53634 82.606 7.40433 82.606 7.27182C83.0151 6.08272 83.969 5.42166 85.1958 5.28965H87.1046C87.1751 5.29453 87.2416 5.32391 87.2916 5.37241C87.3416 5.42091 87.3719 5.48526 87.377 5.55367V9.91404C86.696 9.91404 85.8773 9.78203 85.1958 9.91404C83.6961 10.1781 83.0146 10.9711 82.8784 12.4242V15.5955H84.5138V19.5593C82.0602 19.6914 79.3342 19.6914 76.6072 19.6914L76.6082 19.6924ZM114.964 0.278231C115.782 0.410242 116.599 0.410242 117.281 0.674764C120.417 1.46733 122.053 5.16714 120.417 7.94187C120.008 8.60193 119.462 8.99896 118.782 9.39549C118.509 9.5275 118.236 9.65952 117.827 9.92404C117.963 10.056 118.099 10.056 118.236 10.056C120.417 10.7161 121.372 12.3022 121.508 14.2844C121.78 17.1911 119.873 19.3048 116.873 19.5698C115.919 19.7019 114.964 19.7019 114.147 19.7019H104.74V15.738H106.513V4.11005H104.74V0.14672C108.285 0.278731 111.556 0.278731 114.964 0.278731L114.964 0.278231ZM111.965 11.9062V15.738C111.97 15.8064 112 15.8708 112.05 15.9193C112.1 15.9678 112.167 15.9972 112.237 16.002H114.555C115.1 16.002 115.645 15.738 115.918 15.2095C116.599 14.0204 115.918 12.4342 114.555 12.1702C113.737 11.9062 112.919 11.9062 111.965 11.9062ZM111.965 8.20589C112.783 8.20589 113.465 8.20589 114.282 8.07388C115.237 7.94187 115.782 7.14881 115.782 6.22373C115.782 5.29865 115.237 4.50608 114.419 4.37357C113.601 4.24106 112.784 4.24156 111.966 4.24156L111.965 8.20589ZM161.859 9.527H159.814C159.743 9.53188 159.677 9.56127 159.627 9.60976C159.577 9.65826 159.546 9.72262 159.541 9.79103V14.8114C159.541 15.8685 160.222 16.3966 161.45 16.1326H161.722V19.3038C161.722 19.5678 161.722 19.7004 161.45 19.7004C159.95 19.9644 158.451 20.0969 156.815 19.8324C155.043 19.4358 154.225 18.5113 154.225 16.7931V9.39549H153.685C152.867 9.39549 153.004 9.5275 153.004 8.73544V5.43716H154.639V2.79444C154.639 1.86936 154.503 2.00187 155.457 1.86936C156.831 1.60932 158.195 1.30075 159.546 0.944286V5.43666H162C161.864 6.89028 161.864 8.21189 161.864 9.533L161.859 9.527ZM145.773 10.9806V9.65952C145.773 8.86695 145.228 8.33841 144.546 8.33841C143.865 8.33841 143.183 8.86695 143.183 9.5275V10.056H138.276C138.139 8.20589 139.093 6.62076 140.865 5.8277C143.455 4.77061 146.182 4.77061 148.772 5.95971C150.407 6.75227 151.226 7.94187 151.226 9.66002V15.6105H152.452V19.5743H146.313C146.313 19.0458 146.177 18.6493 146.177 17.9892C146.041 18.1212 145.905 18.2532 145.905 18.3857C144.269 20.2359 141.27 20.2359 139.634 19.4428C138.407 18.7828 137.862 17.5927 137.725 16.2716C137.589 13.3648 139.088 11.5147 142.224 10.9861L145.496 10.7221C145.359 10.9861 145.496 10.9861 145.768 10.9861L145.773 10.9806ZM145.773 13.4908H144.546C143.319 13.6228 142.774 14.5479 142.911 15.605C143.047 16.5301 143.865 17.0586 144.82 16.6621C145.365 16.5301 145.637 16.1336 145.774 15.605L145.773 13.4908ZM137.048 13.6228H127.915C127.915 14.5479 127.915 15.3405 128.46 16.001C128.869 16.5296 129.415 16.6611 130.096 16.6611C130.777 16.6611 131.186 16.2646 131.459 15.736L131.731 14.9435H136.775C136.639 16.5286 135.957 17.8502 134.594 18.7753C132.958 19.9644 131.186 20.2289 129.277 20.0964C128.459 20.0964 127.777 19.9644 126.959 19.6999C124.914 19.1713 123.688 17.8497 123.006 15.9995C122.325 13.7534 122.188 11.5072 123.142 9.26098C124.097 6.88278 126.006 5.56067 128.595 5.29715C129.822 5.16514 131.185 5.29715 132.413 5.56117C135.003 6.35374 136.366 8.20389 136.912 10.7146C136.912 11.6397 137.048 12.5648 137.048 13.6213L137.048 13.6228ZM131.731 10.9801C131.731 10.1876 131.595 9.39499 130.914 8.99796C130.232 8.60093 129.551 8.60143 128.869 9.12997C128.323 9.5265 128.188 10.1871 128.188 10.9801H131.731Z" fill="#376180"/>
</svg>