<svg width="325" height="63" viewBox="0 0 325 63" fill="none" xmlns="http://www.w3.org/2000/svg">
<path d="M89.0815 34.5762V35.774C89.0815 39.3674 88.3521 44.4779 80.693 44.4779C73.9458 44.4779 72.5781 40.8047 72.5781 35.9337V19.9632C72.5781 15.0922 75.1311 11.8182 80.7842 11.8182C87.6226 11.8182 88.8991 15.731 88.8991 20.1229V21.5603H83.3372V19.5639C83.3372 17.4878 82.7902 16.29 80.8754 16.29C78.9606 16.29 78.3224 17.4079 78.3224 19.6438V36.4128C78.3224 38.489 78.7783 40.0861 80.8754 40.0861C82.8813 40.0861 83.4284 38.6487 83.4284 36.333V34.5762H89.0815Z" fill="white"/>
<path d="M96.9229 33.0589V36.6523C96.9229 38.5687 97.3788 40.3255 99.5671 40.3255C101.755 40.3255 102.029 38.5687 102.029 36.812V36.7321H107.5V36.812C107.5 39.3673 106.861 44.4778 99.6582 44.4778C92.5463 44.4778 91.4521 40.5651 91.4521 35.6142V27.5491C91.4521 24.1953 92.6375 19.0847 99.6582 19.0847C105.676 19.0847 107.591 22.5982 107.591 27.4692C107.591 28.9066 107.591 31.6216 107.591 33.0589H96.9229ZM102.211 29.226V26.6707C102.211 24.4348 101.573 23.1572 99.5671 23.1572C97.7435 23.1572 96.9229 24.2751 96.9229 26.6707V29.1461H102.211V29.226Z" fill="white"/>
<path d="M110.782 27.07C110.782 22.0393 110.782 20.6019 110.691 19.484H116.07C116.162 20.0429 116.253 21.0012 116.253 21.7199C117.073 20.2825 118.532 19.0847 121.45 19.0847C124.824 19.0847 127.194 20.9213 127.194 25.5528V44.0786H121.632V26.511C121.632 24.2751 120.721 23.4766 119.262 23.4766C117.256 23.4766 116.435 24.4348 116.435 27.7088V43.9987H110.873V27.07H110.782Z" fill="white"/>
<path d="M135.674 36.3329V37.4508C135.674 38.968 136.13 40.2457 137.954 40.2457C139.504 40.2457 140.142 39.4472 140.142 37.7703C140.142 36.1732 139.595 35.0553 136.221 33.1388C132.392 30.9828 130.477 29.1462 130.477 25.6327C130.477 21.4803 133.03 18.925 137.954 18.925C143.242 18.925 145.339 21.4803 145.339 26.0319V26.9902H139.868V25.473C139.868 23.7961 139.23 23.0774 137.862 23.0774C136.495 23.0774 135.948 23.9558 135.948 25.2334C135.948 26.5909 136.495 27.2297 139.048 28.6671C143.971 31.3821 145.704 33.1388 145.704 37.1314C145.704 41.8427 142.968 44.2383 137.771 44.2383C131.48 44.2383 130.021 40.8047 130.021 37.2911V36.1732H135.674V36.3329Z" fill="white"/>
<path d="M164.395 26.9901V36.4127C164.395 41.683 161.386 44.398 156.098 44.398C150.627 44.398 147.892 41.6031 147.892 36.4926V26.8304C147.892 21.4803 151.356 19.0847 156.189 19.0847C161.386 19.0847 164.395 21.7997 164.395 26.9901ZM153.545 26.7506V36.6523C153.545 38.6486 154.274 40.0859 156.189 40.0859C158.012 40.0859 158.742 38.8882 158.742 36.5724V26.6707C158.742 24.7542 158.195 23.3968 156.098 23.3968C154.365 23.3968 153.545 24.5945 153.545 26.7506Z" fill="white"/>
<path d="M167.769 27.7886C167.769 23.7161 167.86 21.9594 167.678 19.484H172.966C173.057 19.9631 173.148 22.1191 173.148 23.4766C174.243 20.1228 176.704 19.1646 179.349 19.1646V25.2333C176.157 25.2333 173.331 25.952 173.331 30.9827V44.1584H167.769V27.7886Z" fill="white"/>
<path d="M186.46 33.0589V36.6523C186.46 38.5687 186.916 40.3255 189.105 40.3255C191.293 40.3255 191.566 38.5687 191.566 36.812V36.7321H197.037V36.812C197.037 39.3673 196.399 44.4778 189.196 44.4778C182.084 44.4778 180.99 40.5651 180.99 35.6142V27.5491C180.99 24.1953 182.175 19.0847 189.196 19.0847C195.214 19.0847 197.128 22.5982 197.128 27.4692C197.128 28.9066 197.128 31.6216 197.128 33.0589H186.46ZM191.749 29.226V26.6707C191.749 24.4348 191.111 23.1572 189.105 23.1572C187.281 23.1572 186.46 24.2751 186.46 26.6707V29.1461H191.749V29.226Z" fill="white"/>
<path d="M216.276 10.9398V37.2113C216.276 40.9644 216.276 42.7211 216.367 43.9988H210.988C210.896 43.36 210.805 42.0823 210.805 41.6831C209.893 43.2801 208.617 44.3981 205.882 44.3981C200.867 44.3981 199.864 40.8845 199.864 36.0934V26.5111C199.864 22.199 201.687 19.0848 206.337 19.0848C208.252 19.0848 209.985 19.5639 210.714 20.8415V10.9398H216.276ZM205.426 26.8305V36.5725C205.426 38.8084 206.064 40.086 207.979 40.086C210.258 40.086 210.714 38.3293 210.714 35.4546V27.8686C210.714 25.2334 210.441 23.4767 208.07 23.4767C206.155 23.4767 205.426 24.7543 205.426 26.8305Z" fill="white"/>
<path d="M227.126 12.2974H235.15C240.894 12.2974 243.812 14.7728 243.812 20.3625V22.1991C243.812 27.4694 241.715 30.903 234.785 30.903H232.597V43.919H227.035V12.2974H227.126ZM232.688 26.9902H234.238C237.703 26.9902 238.341 25.2335 238.341 22.1192V20.5222C238.341 18.2065 237.885 16.29 234.785 16.29H232.779V26.9902H232.688Z" fill="white"/>
<path d="M246.639 44.0786V10.9398H252.201V44.0786H246.639Z" fill="white"/>
<path d="M270.619 39.0479C270.619 40.5651 270.619 43.1203 270.71 44.0786H265.695C265.604 43.5995 265.421 42.6412 265.33 42.242C264.418 43.7592 262.868 44.398 260.68 44.398C256.486 44.398 254.753 40.9643 254.753 37.2911V36.8918C254.753 30.823 259.404 29.226 264.51 29.226C264.692 29.226 264.874 29.226 265.148 29.226V26.1117C265.148 24.1953 264.874 23.0773 263.142 23.0773C261.501 23.0773 261.136 24.1953 261.136 25.7125V26.1117H255.665V25.7923C255.665 22.199 257.215 19.0847 263.415 19.0847C268.795 19.0847 270.71 21.7199 270.71 25.7125V39.0479H270.619ZM265.239 32.8992C264.965 32.8992 264.51 32.8992 264.327 32.8992C261.774 32.8992 260.133 33.7776 260.133 36.812V37.2113C260.133 38.968 260.862 40.1658 262.595 40.1658C264.418 40.1658 265.33 39.0479 265.33 35.6941V32.8992H265.239Z" fill="white"/>
<path d="M274.904 27.07C274.904 22.0393 274.904 20.6019 274.812 19.484H280.192C280.283 20.0429 280.374 21.0012 280.374 21.7199C281.195 20.2825 282.654 19.0847 285.572 19.0847C288.945 19.0847 291.316 20.9213 291.316 25.5528V44.0786H285.754V26.511C285.754 24.2751 284.842 23.4766 283.383 23.4766C281.377 23.4766 280.557 24.4348 280.557 27.7088V43.9987H274.995V27.07H274.904Z" fill="white"/>
<path d="M300.069 33.0589V36.6523C300.069 38.5687 300.525 40.3255 302.714 40.3255C304.902 40.3255 305.175 38.5687 305.175 36.812V36.7321H310.646V36.812C310.646 39.3673 310.008 44.4778 302.805 44.4778C295.693 44.4778 294.599 40.5651 294.599 35.6142V27.5491C294.599 24.1953 295.784 19.0847 302.805 19.0847C308.823 19.0847 310.737 22.5982 310.737 27.4692C310.737 28.9066 310.737 31.6216 310.737 33.0589H300.069ZM305.449 29.226V26.6707C305.449 24.4348 304.811 23.1572 302.805 23.1572C300.981 23.1572 300.161 24.2751 300.161 26.6707V29.1461H305.449V29.226Z" fill="white"/>
<path d="M312.014 19.484H315.023V13.575H320.584V19.484H324.14V23.7961H320.584V38.3292C320.584 39.527 320.767 40.4054 322.499 40.4054C322.955 40.4054 323.685 40.3256 324.049 40.2457V43.9189C323.137 44.3182 321.679 44.398 320.676 44.398C317.211 44.398 315.114 43.4398 315.114 39.1278V23.7162H312.105V19.484H312.014Z" fill="white"/>
<path d="M32.9155 51.9042C24.1624 51.9042 15.8651 48.8698 9.66495 43.4398C3.46479 38.0098 0 30.7432 0 23.0774C0 15.4115 3.46479 8.14494 9.66495 2.71497L12.3091 5.03069C6.83841 9.82185 3.73833 16.2899 3.73833 23.0774C3.73833 29.9447 6.74723 36.3329 12.3091 41.1241C17.7799 45.9152 25.1653 48.6302 32.9155 48.6302C40.7569 48.6302 48.0512 45.9951 53.5219 41.1241L56.1661 43.4398C49.966 48.8698 41.7599 51.9042 32.9155 51.9042Z" fill="#CC4E24"/>
<path d="M33.9184 44.6376C19.8768 44.6376 8.47949 34.656 8.47949 22.3587C8.47949 10.0614 19.8768 0 33.9184 0C47.9599 0 59.3573 9.98157 59.3573 22.2789C59.3573 34.5762 47.9599 44.6376 33.9184 44.6376ZM33.9184 5.50983C23.3416 5.50983 14.6797 13.0958 14.6797 22.3587C14.6797 31.6216 23.3416 39.2076 33.9184 39.2076C44.4951 39.2076 53.2483 31.6216 53.2483 22.3587C53.2483 13.0958 44.5863 5.50983 33.9184 5.50983Z" fill="#CC4E24"/>
<path d="M47.5549 6.62329L15.9634 34.2905L20.3475 38.1301L51.939 10.4628L47.5549 6.62329Z" fill="#CC4E24"/>
<path d="M35.0127 48.7899H31.2744V61.0872H35.0127V48.7899Z" fill="#CC4E24"/>
<path d="M44.9512 59.1708H21.3359V62.4447H44.9512V59.1708Z" fill="#CC4E24"/>
</svg>
