<svg width="133" height="25" viewBox="0 0 133 25" fill="none" xmlns="http://www.w3.org/2000/svg">
<g opacity="0.5">
<path d="M33.7459 0.244632H36.0824V1.2806H34.7599V3.07197H35.7077V4.17269H34.7599V6.05039H36.0824V7.04319H33.7459V0.244632Z" fill="#376180"/>
<path d="M37.6473 0.244632V6.13672H38.9919V7.04319H36.6114V0.244632H37.6473Z" fill="#376180"/>
<path d="M39.5429 0.244632H41.8793V1.2806H40.5568V3.07197H41.5046V4.17269H40.5568V6.05039H41.8793V7.04319H39.5429V0.244632Z" fill="#376180"/>
<path d="M45.1415 4.71226V5.64032C45.1415 5.92089 45.0754 6.1583 44.9652 6.37413C44.877 6.56837 44.7448 6.74104 44.5684 6.87053C44.3701 7.02161 44.1276 7.10794 43.7749 7.10794C43.4443 7.10794 43.1798 7.02161 42.9814 6.87053C42.7831 6.74104 42.6729 6.54679 42.5847 6.37413C42.4745 6.1583 42.4304 5.92089 42.4084 5.64032V1.62593C42.4084 1.36693 42.4745 1.10794 42.5847 0.892114C42.6729 0.69787 42.7831 0.525208 42.9814 0.374129C43.1798 0.244632 43.4443 0.136719 43.7749 0.136719C44.1056 0.136719 44.3701 0.22305 44.5684 0.374129C44.7668 0.503625 44.8991 0.69787 44.9652 0.892114C45.0754 1.10794 45.1195 1.34535 45.1415 1.62593V2.55398H44.1937V1.62593C44.1937 1.43168 44.1497 1.30219 44.0394 1.19427C43.9954 1.15111 43.9072 1.12952 43.797 1.12952C43.6206 1.12952 43.5325 1.25902 43.4884 1.38852C43.4664 1.45327 43.4443 1.5396 43.4443 1.64751V5.6619C43.4443 5.85614 43.5104 5.98564 43.5986 6.09355C43.6427 6.13672 43.7088 6.1583 43.797 6.1583C44.0174 6.1583 44.1056 6.05039 44.1497 5.89931C44.1717 5.83456 44.1937 5.74823 44.1937 5.64032V4.71226H45.1415Z" fill="#376180"/>
<path d="M45.4501 1.25902V0.244632H48.4037V1.2806H47.4339V7.04319H46.42V1.25902H45.4501Z" fill="#376180"/>
<path fill-rule="evenodd" clip-rule="evenodd" d="M50.674 7.04319L50.145 4.17269H49.8805V7.04319H48.8666V0.244632H49.8805C51.0928 0.244632 51.6218 0.913697 51.6218 2.20866C51.6218 2.87773 51.4455 3.50363 51.0487 3.76262L51.71 7.06478H50.674V7.04319ZM49.8805 3.24463C50.0128 3.24463 50.2111 3.22305 50.3654 3.09355C50.5197 2.96406 50.6299 2.70506 50.6299 2.23024C50.6299 1.75542 50.4977 1.49643 50.3654 1.36693C50.2111 1.23744 50.0348 1.23744 49.8805 1.23744V3.24463Z" fill="#376180"/>
<path fill-rule="evenodd" clip-rule="evenodd" d="M54.9722 5.64032C54.9722 5.92089 54.906 6.1583 54.7958 6.37413C54.7077 6.56837 54.5754 6.74104 54.3991 6.87053C54.2007 7.02161 53.9582 7.10794 53.6056 7.10794C53.2749 7.10794 53.0104 7.02161 52.8121 6.87053C52.6137 6.74104 52.5035 6.54679 52.4153 6.37413C52.3051 6.1583 52.261 5.92089 52.239 5.64032V1.62593C52.239 1.36693 52.3051 1.10794 52.4153 0.892114C52.5035 0.69787 52.6137 0.525208 52.8121 0.374129C53.0104 0.244632 53.2749 0.136719 53.6056 0.136719C53.9362 0.136719 54.2007 0.22305 54.3991 0.374129C54.5974 0.503625 54.7297 0.69787 54.7958 0.892114C54.906 1.10794 54.9501 1.34535 54.9722 1.62593V5.64032ZM53.9582 1.62593C53.9582 1.43168 53.9142 1.30219 53.826 1.19427C53.7819 1.15111 53.6937 1.12952 53.6276 1.12952C53.4513 1.12952 53.3631 1.25902 53.319 1.38852C53.297 1.45327 53.2749 1.5396 53.2749 1.64751V5.6619C53.2749 5.85614 53.319 5.98564 53.4072 6.09355C53.4513 6.13672 53.5174 6.1583 53.6056 6.1583C53.7819 6.1583 53.8701 6.05039 53.9142 5.89931C53.9362 5.83456 53.9582 5.74823 53.9582 5.64032V1.62593Z" fill="#376180"/>
<path d="M56.8016 3.50363L56.7135 3.17988H56.6473V7.04319H55.6995V0.244632H56.6032L57.5951 3.7842L57.6833 4.10794H57.7494V0.244632H58.6972V7.04319H57.7935L56.8016 3.50363Z" fill="#376180"/>
<path d="M59.4907 0.244632H60.5046V7.04319H59.4907V0.244632Z" fill="#376180"/>
<path d="M63.9872 4.71226V5.64032C63.9872 5.92089 63.9211 6.1583 63.8109 6.37413C63.7227 6.56837 63.5905 6.74104 63.4142 6.87053C63.2158 7.02161 62.9733 7.10794 62.6206 7.10794C62.29 7.10794 62.0255 7.02161 61.8271 6.87053C61.6288 6.74104 61.5186 6.54679 61.4304 6.37413C61.3202 6.1583 61.2761 5.92089 61.2541 5.64032V1.62593C61.2541 1.36693 61.3202 1.10794 61.4304 0.892114C61.5186 0.69787 61.6288 0.525208 61.8271 0.374129C62.0255 0.244632 62.29 0.136719 62.6206 0.136719C62.9513 0.136719 63.2158 0.22305 63.4142 0.374129C63.6125 0.503625 63.7448 0.69787 63.8109 0.892114C63.9211 1.10794 63.9652 1.34535 63.9872 1.62593V2.55398H63.0394V1.62593C63.0394 1.43168 62.9954 1.30219 62.8851 1.19427C62.8411 1.15111 62.7529 1.12952 62.6427 1.12952C62.4664 1.12952 62.3782 1.25902 62.3341 1.38852C62.3121 1.45327 62.29 1.5396 62.29 1.64751V5.6619C62.29 5.85614 62.3561 5.98564 62.4443 6.09355C62.4884 6.13672 62.5545 6.1583 62.6427 6.1583C62.8631 6.1583 62.9513 6.05039 62.9954 5.89931C63.0174 5.83456 63.0394 5.74823 63.0394 5.64032V4.71226H63.9872Z" fill="#376180"/>
<path d="M36.0824 9.7842H34.7599V11.5756H35.7077V12.6115H34.7599V15.5684H33.7459V8.74823H36.0824V9.7842Z" fill="#376180"/>
<path fill-rule="evenodd" clip-rule="evenodd" d="M38.4629 15.5684L37.9339 12.6979H37.6694V15.5684H36.6555V8.74823H37.6694C38.8817 8.74823 39.4107 9.41729 39.4107 10.7123C39.4107 11.3813 39.2343 12.0072 38.8376 12.2662L39.4988 15.5684H38.4629ZM37.6694 11.7482C37.8016 11.7482 38 11.7266 38.1543 11.5971C38.3086 11.4677 38.4188 11.2087 38.4188 10.7338C38.4188 10.259 38.2865 10 38.1543 9.87053C38 9.74104 37.8237 9.74104 37.6694 9.74104V11.7482Z" fill="#376180"/>
<path fill-rule="evenodd" clip-rule="evenodd" d="M42.761 14.1655C42.761 14.4461 42.6949 14.6835 42.5847 14.8993C42.4965 15.0936 42.3643 15.2662 42.1879 15.3957C41.9896 15.5468 41.7471 15.6331 41.3944 15.6331C41.0638 15.6331 40.7993 15.5468 40.6009 15.3957C40.4026 15.2662 40.2923 15.072 40.2042 14.8993C40.094 14.6835 40.0499 14.4461 40.0278 14.1655V10.1511C40.0278 9.89212 40.094 9.63312 40.2042 9.41729C40.2923 9.22305 40.4026 9.05039 40.6009 8.89931C40.7993 8.76981 41.0638 8.6619 41.3944 8.6619C41.7251 8.6619 41.9896 8.74823 42.1879 8.89931C42.3863 9.0288 42.5186 9.22305 42.5847 9.41729C42.6949 9.63312 42.739 9.87053 42.761 10.1511V14.1655ZM41.7471 10.1511C41.7471 9.95686 41.703 9.82737 41.6148 9.71945C41.5708 9.67629 41.4826 9.6547 41.4165 9.6547C41.2401 9.6547 41.152 9.7842 41.1079 9.9137C41.0858 9.97845 41.0638 10.0648 41.0638 10.1727V14.1655C41.0638 14.3597 41.1079 14.4892 41.1961 14.5972C41.2401 14.6403 41.3063 14.6619 41.3944 14.6619C41.5708 14.6619 41.6589 14.554 41.703 14.4029C41.7251 14.3382 41.7471 14.2518 41.7471 14.1439V10.1511Z" fill="#376180"/>
<path d="M44.5905 12.0072L44.5023 11.6835H44.4362V15.5468H43.4884V8.74823H44.3921L45.384 12.2878L45.4722 12.6115H45.5383V8.74823H46.4861V15.5684H45.5824L44.5905 12.0072Z" fill="#376180"/>
<path d="M46.9269 9.7842V8.74823H49.8805V9.7842H48.9107V15.5684H47.8968V9.7842H46.9269Z" fill="#376180"/>
<path d="M50.3213 8.74823H51.3353V15.5684H50.3213V8.74823Z" fill="#376180"/>
<path d="M52.1508 8.74823H54.4872V9.7842H53.1647V11.5756H54.1125V12.6547H53.1647V14.5324H54.4872V15.5684H52.1508V8.74823Z" fill="#376180"/>
<path fill-rule="evenodd" clip-rule="evenodd" d="M56.9339 15.5684L56.4049 12.6979H56.1404V15.5684H55.1044V8.74823H56.1183C57.3306 8.74823 57.8596 9.41729 57.8596 10.7123C57.8596 11.3813 57.6833 12.0072 57.2865 12.2662L57.9478 15.5684H56.9339ZM56.1404 11.7482C56.2726 11.7482 56.471 11.7266 56.6253 11.5971C56.7796 11.4677 56.8898 11.2087 56.8898 10.7338C56.8898 10.259 56.7575 10 56.6253 9.87053C56.471 9.74104 56.2947 9.74104 56.1404 9.74104V11.7482Z" fill="#376180"/>
<path d="M36.0824 18.2878H34.7599V20.0792H35.7077V21.1151H34.7599V24.072H33.7459V17.2518H36.0824V18.2878Z" fill="#376180"/>
<path fill-rule="evenodd" clip-rule="evenodd" d="M39.3005 22.6691C39.3005 22.9497 39.2343 23.1871 39.1241 23.4029C39.036 23.5972 38.9037 23.7698 38.7274 23.8993C38.529 24.0504 38.2865 24.1367 37.9339 24.1367C37.6032 24.1367 37.3387 24.0504 37.1404 23.8993C36.942 23.7698 36.8318 23.5756 36.7436 23.4029C36.6334 23.1871 36.5893 22.9497 36.5673 22.6691V18.6547C36.5673 18.3957 36.6334 18.1367 36.7436 17.9209C36.8318 17.7266 36.942 17.554 37.1404 17.4029C37.3387 17.2734 37.6032 17.1655 37.9339 17.1655C38.2645 17.1655 38.529 17.2518 38.7274 17.4029C38.9258 17.5324 39.058 17.7266 39.1241 17.9209C39.2343 18.1367 39.2784 18.3741 39.3005 18.6547V22.6691ZM38.2865 18.6547C38.2865 18.4605 38.2425 18.331 38.1543 18.2231C38.1102 18.1799 38.022 18.1583 37.9559 18.1583C37.7796 18.1583 37.6914 18.2878 37.6473 18.4173C37.6253 18.482 37.6032 18.5684 37.6032 18.6763V22.6907C37.6032 22.8849 37.6473 23.0144 37.7355 23.1223C37.7796 23.1655 37.8457 23.1871 37.9339 23.1871C38.1102 23.1871 38.1984 23.0792 38.2425 22.9281C38.2645 22.8633 38.2865 22.777 38.2865 22.6691V18.6547Z" fill="#376180"/>
<path d="M42.761 17.2518V22.6691C42.761 22.9497 42.6949 23.1871 42.5847 23.4029C42.4965 23.5972 42.3643 23.7698 42.1879 23.8993C41.9896 24.0504 41.7471 24.1367 41.3944 24.1367C41.0638 24.1367 40.7993 24.0504 40.6009 23.8993C40.4026 23.7698 40.2923 23.5756 40.2042 23.4029C40.094 23.1871 40.0499 22.9497 40.0278 22.6691V17.2518H41.0418V22.6691C41.0418 22.8633 41.0858 22.9928 41.174 23.1007C41.2181 23.1439 41.2842 23.1655 41.3724 23.1655C41.5487 23.1655 41.6369 23.0576 41.681 22.9065C41.703 22.8418 41.7251 22.7554 41.7251 22.6475V17.2518H42.761Z" fill="#376180"/>
<path d="M44.6346 20.5108L44.5464 20.1871H44.4803V24.0504H43.5325V17.2518H44.4362L45.4281 20.7914L45.5162 21.1151H45.5824V17.2518H46.5302V24.072H45.6264L44.6346 20.5108Z" fill="#376180"/>
<path fill-rule="evenodd" clip-rule="evenodd" d="M47.3457 24.072V17.2518H48.1613C49.109 17.2518 49.616 17.4461 49.9025 17.9641C50.167 18.482 50.2111 19.3454 50.2111 20.6619C50.2111 22 50.167 22.8418 49.9025 23.3597C49.638 23.8777 49.109 24.072 48.1613 24.072H47.3457ZM48.3596 23.0576C48.7123 23.0576 48.9107 23.0144 49.0209 22.6907C49.065 22.5396 49.109 22.3022 49.109 21.9569V19.3238C49.109 19 49.065 18.7626 49.0209 18.59C48.9107 18.2662 48.7123 18.2231 48.3596 18.2231V23.0576Z" fill="#376180"/>
<path fill-rule="evenodd" clip-rule="evenodd" d="M50.5418 24.072L51.5998 17.2518H52.8561L53.9142 24.072H52.9002L52.7019 22.6907H51.71L51.5116 24.072H50.5418ZM52.2831 19.4748L52.261 19.3022H52.1949L52.1729 19.4748L51.8863 21.6331H52.5916L52.2831 19.4748Z" fill="#376180"/>
<path d="M53.7599 18.2878V17.2518H56.7135V18.2878H55.7436V24.072H54.7297V18.2878H53.7599Z" fill="#376180"/>
<path d="M57.3086 17.2518H58.3225V24.072H57.3086V17.2518Z" fill="#376180"/>
<path fill-rule="evenodd" clip-rule="evenodd" d="M61.7831 22.6691C61.7831 22.9497 61.7169 23.1871 61.6067 23.4029C61.5186 23.5972 61.3863 23.7698 61.21 23.8993C61.0116 24.0504 60.7691 24.1367 60.4165 24.1367C60.0858 24.1367 59.8213 24.0504 59.623 23.8993C59.4246 23.7698 59.3144 23.5756 59.2262 23.4029C59.116 23.1871 59.0719 22.9497 59.0499 22.6691V18.6547C59.0499 18.3957 59.116 18.1367 59.2262 17.9209C59.3144 17.7266 59.4246 17.554 59.623 17.4029C59.8213 17.2734 60.0858 17.1655 60.4165 17.1655C60.7471 17.1655 61.0116 17.2518 61.21 17.4029C61.4084 17.5324 61.5406 17.7266 61.6067 17.9209C61.7169 18.1367 61.761 18.3741 61.7831 18.6547V22.6691ZM60.7691 18.6547C60.7691 18.4605 60.7251 18.331 60.6369 18.2231C60.5928 18.1799 60.5046 18.1583 60.4385 18.1583C60.2622 18.1583 60.174 18.2878 60.1299 18.4173C60.1079 18.482 60.0858 18.5684 60.0858 18.6763V22.6907C60.0858 22.8849 60.1299 23.0144 60.2181 23.1223C60.2622 23.1655 60.3283 23.1871 60.4165 23.1871C60.5928 23.1871 60.681 23.0792 60.7251 22.9281C60.7471 22.8633 60.7691 22.777 60.7691 22.6691V18.6547Z" fill="#376180"/>
<path d="M63.6125 20.5108L63.5244 20.1871H63.4582V24.0504H62.5104V17.2518H63.4142L64.406 20.7914L64.4942 21.1151H64.5603V17.2518H65.5081V24.072H64.6044L63.6125 20.5108Z" fill="#376180"/>
<path d="M0 0.244617V24.072H32.0046V17.2518H10.4258V15.5468H32.0046V8.74821H10.4258V7.04318H32.0046V0.244617H0Z" fill="#376180"/>
<path d="M67.2494 0.244617V24.072H77.6752V15.5468H99.254V8.74821H77.6752V7.04318H99.254V0.244617H67.2494Z" fill="#376180"/>
<path d="M100.995 24.072V0.244617H133V7.04318H111.421V8.74821H133V15.5468H111.421V24.072H100.995Z" fill="#376180"/>
</g>
</svg>