<svg width="109" height="29" viewBox="0 0 109 29" fill="none" xmlns="http://www.w3.org/2000/svg">
<g opacity="0.5">
<path d="M66.5045 8.71068C64.7581 8.71068 63.3863 9.08532 62.0139 9.83315C62.0139 5.84109 62.0139 2.22368 62.1392 0.976562L53.7798 2.47295V3.22151L54.653 3.34615C55.7747 3.59543 56.1508 4.21862 56.3979 5.71646C56.6493 8.71068 56.5233 24.6796 56.3979 27.2999C58.6436 27.7992 61.0146 28.1738 63.3856 28.1738C69.998 28.1738 73.99 24.0564 73.99 17.5687C73.99 12.4542 70.7465 8.71068 66.5045 8.71068ZM63.6349 26.8007C63.1356 26.8007 62.511 26.8007 62.1378 26.6767C62.0124 24.9303 61.8885 17.5687 62.0124 11.0817C62.761 10.8317 63.2595 10.7071 63.8842 10.7071C66.6306 10.7071 68.1277 13.9506 68.1277 17.9419C68.127 22.934 66.2552 26.8007 63.6349 26.8007ZM22.339 1.47512H0.380859V2.59759L1.62869 2.72223C3.24972 2.97151 3.87436 3.96934 4.12292 6.33965C4.49828 10.831 4.37292 18.9412 4.12292 22.8072C3.87364 25.1782 3.25044 26.3014 1.62869 26.4246L0.380859 26.6753V27.6731H14.4788V26.6753L12.9817 26.4246C11.3599 26.3007 10.736 25.1782 10.4867 22.8072C10.3614 21.1847 10.2367 18.5644 10.2367 15.3216L13.2309 15.4462C15.1027 15.4462 15.9752 16.9434 16.3498 19.0637H17.473V10.2085H16.3498C15.9745 12.3295 15.1027 13.8259 13.2309 13.8259L10.2374 13.9513C10.2374 9.70923 10.3621 5.71718 10.4874 3.34687H14.8534C18.223 3.34687 19.9694 5.46718 21.2165 9.21068L22.4643 8.83604L22.339 1.47512Z" fill="#376180"/>
<path d="M29.451 8.46127C35.6894 8.46127 38.8083 12.7033 38.8083 18.3171C38.8083 23.6817 35.3148 28.1744 29.0763 28.1744C22.8386 28.1744 19.7197 23.9317 19.7197 18.3171C19.7197 12.9526 23.2125 8.46127 29.451 8.46127ZM29.0763 9.7091C26.3314 9.7091 25.5828 13.4519 25.5828 18.3171C25.5828 23.0577 26.8306 26.9252 29.3263 26.9252C32.1937 26.9252 32.9437 23.1824 32.9437 18.3171C32.9437 13.5765 31.6973 9.7091 29.0763 9.7091ZM75.6114 18.4425C75.6114 13.3272 78.8549 8.46127 85.218 8.46127C90.4565 8.46127 92.9528 12.3294 92.9528 17.4439H81.3499C81.2245 22.0599 83.4702 25.4288 87.9622 25.4288C89.9586 25.4288 90.9565 24.9309 92.205 24.057L92.7028 24.6802C91.455 26.4266 88.7108 28.1744 85.218 28.1744C79.6035 28.1737 75.6114 24.1817 75.6114 18.4425ZM81.3499 16.0722L87.2137 15.9468C87.2137 13.4519 86.839 9.7091 84.7187 9.7091C82.5984 9.7091 81.4738 13.2019 81.3499 16.0722ZM107.801 9.45982C106.304 8.83519 104.309 8.46127 102.063 8.46127C97.4478 8.46127 94.5767 11.2055 94.5767 14.4497C94.5767 17.6939 96.6956 19.0657 99.6934 20.0642C102.812 21.186 103.686 22.0599 103.686 23.557C103.686 25.0541 102.562 26.4259 100.566 26.4259C98.1963 26.4259 96.4485 25.0541 95.0767 21.3106L94.2028 21.5614L94.3282 27.0505C95.8253 27.6737 98.5695 28.1737 100.941 28.1737C105.807 28.1737 108.926 25.6773 108.926 21.8106C108.926 19.1903 107.553 17.6939 104.309 16.4454C100.815 15.0736 99.5688 14.2004 99.5688 12.578C99.5688 10.9562 100.693 9.83302 102.191 9.83302C104.435 9.83302 105.932 11.2055 107.057 14.5744L107.929 14.3251L107.801 9.45982ZM55.0265 8.96055C52.9062 7.71415 49.1627 8.33663 47.167 12.8287L47.2909 8.46199L38.9329 10.0837V10.8323L39.8061 10.9569C40.93 11.0823 41.4278 11.7055 41.5532 13.328C41.8025 16.3222 41.6778 21.5628 41.5532 24.1824C41.4278 25.6781 40.93 26.4266 39.8061 26.552L38.9329 26.6773V27.6752H50.5352V26.6773L49.038 26.552C47.7909 26.4266 47.4163 25.6781 47.2909 24.1824C47.0417 21.8114 47.0417 17.0707 47.167 14.0765C47.7902 13.2026 50.5352 12.4548 53.0301 14.0765L55.0265 8.96055Z" fill="#376180"/>
</g>
</svg>