<svg width="156" height="52" viewBox="0 0 156 52" fill="none" xmlns="http://www.w3.org/2000/svg">
<path d="M66.3858 26.6674C66.3858 33.8852 60.6563 39.2039 53.6248 39.2039C46.5933 39.2039 40.8638 33.8852 40.8638 26.6674C40.8638 19.3987 46.5933 14.1309 53.6248 14.1309C60.6563 14.1309 66.3858 19.3987 66.3858 26.6674ZM60.7997 26.6674C60.7997 22.1569 57.4789 19.0709 53.6248 19.0709C49.7707 19.0709 46.4499 22.1569 46.4499 26.6674C46.4499 31.1326 49.7707 34.2639 53.6248 34.2639C57.4789 34.2639 60.7997 31.1269 60.7997 26.6674Z" fill="#92ABBB"/>
<path d="M93.9156 26.6674C93.9156 33.8852 88.1861 39.2039 81.1546 39.2039C74.1231 39.2039 68.3936 33.8852 68.3936 26.6674C68.3936 19.4043 74.1231 14.1309 81.1546 14.1309C88.1861 14.1309 93.9156 19.3987 93.9156 26.6674ZM88.3294 26.6674C88.3294 22.1569 85.0087 19.0709 81.1546 19.0709C77.3005 19.0709 73.9797 22.1569 73.9797 26.6674C73.9797 31.1326 77.3005 34.2639 81.1546 34.2639C85.0087 34.2639 88.3294 31.1269 88.3294 26.6674Z" fill="#92ABBB"/>
<path d="M120.298 14.8883V37.3952C120.298 46.6535 114.757 50.4348 108.208 50.4348C102.042 50.4348 98.3314 46.3709 96.932 43.0474L101.796 41.0522C102.662 43.0926 104.784 45.5004 108.202 45.5004C112.394 45.5004 114.992 42.9513 114.992 38.1526V36.3496H114.797C113.547 37.87 111.138 39.1983 108.099 39.1983C101.738 39.1983 95.9111 33.7383 95.9111 26.7126C95.9111 19.6361 101.738 14.1309 108.099 14.1309C111.133 14.1309 113.541 15.4591 114.797 16.9343H114.992V14.8939H120.298V14.8883ZM115.388 26.7126C115.388 22.2983 112.4 19.0709 108.598 19.0709C104.743 19.0709 101.515 22.2983 101.515 26.7126C101.515 31.0817 104.743 34.2639 108.598 34.2639C112.4 34.2639 115.388 31.0817 115.388 26.7126Z" fill="#92ABBB"/>
<path d="M129.044 1.69531V38.4344H123.596V1.69531H129.044Z" fill="#92ABBB"/>
<path d="M150.276 30.7933L154.612 33.642C153.212 35.6824 149.84 39.198 144.013 39.198C136.787 39.198 131.39 33.6928 131.39 26.6615C131.39 19.2063 136.832 14.125 143.388 14.125C149.989 14.125 153.218 19.3024 154.273 22.1002L154.853 23.5246L137.848 30.4654C139.15 32.9806 141.174 34.2637 144.013 34.2637C146.858 34.2637 148.831 32.8846 150.276 30.7933ZM136.93 26.2828L148.297 21.6311C147.672 20.0654 145.791 18.9746 143.577 18.9746C140.738 18.9746 136.787 21.4446 136.93 26.2828Z" fill="#92ABBB"/>
<path d="M20.2399 23.4056V18.0869H38.4265C38.6043 19.0139 38.6961 20.1104 38.6961 21.2974C38.6961 25.2878 37.5892 30.2222 34.0218 33.7378C30.552 37.2987 26.1186 39.1978 20.2457 39.1978C9.36007 39.1978 0.206543 30.4595 0.206543 19.7317C0.206543 9.00389 9.36007 0.265625 20.2457 0.265625C26.2677 0.265625 30.5577 2.59432 33.781 5.62954L29.9727 9.38258C27.6614 7.24606 24.5299 5.58432 20.2399 5.58432C12.2908 5.58432 6.07375 11.8978 6.07375 19.7317C6.07375 27.5656 12.2908 33.8791 20.2399 33.8791C25.396 33.8791 28.3324 31.8387 30.2136 29.9848C31.7392 28.4813 32.7429 26.3335 33.1386 23.4L20.2399 23.4056Z" fill="#92ABBB"/>
</svg>