<svg width="103" height="34" viewBox="0 0 103 34" fill="none" xmlns="http://www.w3.org/2000/svg">
<g opacity="0.5">
<g clip-path="url(#clip0)">
<path d="M12.7686 0.160156H13.6751C16.8224 0.228576 19.9184 1.49433 22.142 3.73507C21.321 4.57321 20.4829 5.37713 19.679 6.21527C18.4303 5.08635 16.9251 4.214 15.283 3.90612C12.8541 3.39297 10.2371 3.8548 8.2016 5.2403C5.97797 6.69421 4.47274 9.15731 4.14775 11.7915C3.78855 14.3914 4.52405 17.1282 6.21743 19.1465C7.8424 21.1136 10.3226 22.3451 12.8883 22.4307C15.283 22.5675 17.7803 21.832 19.525 20.1557C20.8934 18.9755 21.5263 17.1795 21.7315 15.4348C18.8921 15.4348 16.0527 15.4519 13.2133 15.4348V11.9112H25.1696C25.7854 15.6914 24.8959 19.9505 22.0223 22.653C20.1066 24.5688 17.4553 25.6977 14.7528 25.9201C12.1357 26.1766 9.43315 25.6806 7.10689 24.4148C4.3188 22.9267 2.09517 20.4123 1.00046 17.4532C-0.0258354 14.7335 -0.0429402 11.6546 0.914931 8.91784C1.78728 6.42053 3.46355 4.214 5.61876 2.67457C7.68845 1.15224 10.2029 0.3141 12.7686 0.160156Z" fill="#376180"/>
<path d="M81.3591 1.04883H85.0196V25.4746C83.8051 25.4746 82.5736 25.4917 81.3591 25.4575C81.3762 17.3326 81.3591 9.19074 81.3591 1.04883Z" fill="#376180"/>
<path d="M33.3117 9.51501C35.5695 9.08739 38.0155 9.56633 39.88 10.9176C41.5733 12.1149 42.7536 13.9965 43.1128 16.0491C43.5746 18.4266 42.9931 21.0266 41.4536 22.9081C39.7944 25.012 37.0748 26.1409 34.4235 25.9699C31.9946 25.833 29.6342 24.6186 28.1974 22.6344C26.5724 20.445 26.179 17.4346 27.0684 14.8688C27.9579 12.1149 30.4723 10.0111 33.3117 9.51501ZM33.8249 12.7649C32.9012 13.0044 32.0459 13.5347 31.4302 14.2873C29.771 16.2714 29.8736 19.5042 31.7039 21.3516C32.7472 22.4121 34.3209 22.9081 35.7748 22.6173C37.1261 22.3779 38.3063 21.4713 38.9563 20.274C40.0852 18.2385 39.7602 15.4333 38.0326 13.8425C36.9208 12.8162 35.2959 12.3886 33.8249 12.7649Z" fill="#376180"/>
<path d="M51.443 9.51627C54.0259 9.02023 56.8482 9.73864 58.781 11.5517C61.9283 14.3741 62.2704 19.6594 59.585 22.9094C57.96 24.962 55.3258 26.0909 52.7259 25.9711C50.2457 25.9027 47.7997 24.6712 46.3287 22.6357C44.6695 20.395 44.3103 17.3161 45.2511 14.699C46.1919 12.0307 48.655 9.99521 51.443 9.51627ZM51.9562 12.7662C51.0325 13.0057 50.1773 13.5359 49.5615 14.2714C47.9194 16.2214 47.9879 19.4029 49.7497 21.2673C50.7931 22.3791 52.418 22.9265 53.9232 22.6186C55.2574 22.362 56.4548 21.4726 57.1048 20.2752C58.2166 18.2226 57.8916 15.4174 56.1469 13.8267C55.0351 12.8004 53.4101 12.3899 51.9562 12.7662Z" fill="#376180"/>
<path d="M66.8202 10.5069C68.7873 9.27538 71.4043 8.93329 73.5253 9.99379C74.1924 10.2846 74.7398 10.7806 75.27 11.2767C75.2871 10.8148 75.27 10.3359 75.2871 9.85695C76.4331 9.87405 77.5792 9.85695 78.7423 9.87405V24.9605C78.7252 27.2355 78.1436 29.6473 76.5016 31.3064C74.7056 33.1367 71.9517 33.7011 69.4715 33.3248C66.8202 32.9314 64.511 30.9985 63.4848 28.5526C64.511 28.0565 65.5887 27.6631 66.6492 27.2013C67.2478 28.6039 68.4623 29.8012 69.9846 30.0749C71.5069 30.3486 73.2687 29.9723 74.2608 28.7065C75.3213 27.4065 75.3213 25.6276 75.27 24.0369C74.4832 24.8066 73.5766 25.4908 72.4819 25.7474C70.1043 26.4144 67.4873 25.5934 65.6571 23.9856C63.8098 22.3777 62.715 19.8975 62.8177 17.4344C62.869 14.6463 64.4426 11.9608 66.8202 10.5069ZM70.3609 12.6964C69.3175 12.8674 68.3425 13.449 67.6755 14.2529C66.0676 16.1686 66.0676 19.2304 67.6926 21.1119C68.6162 22.2238 70.1043 22.8395 71.5412 22.6856C72.8924 22.5487 74.1411 21.6935 74.8082 20.5133C75.9371 18.512 75.749 15.7923 74.2266 14.0476C73.2859 12.97 71.7806 12.4398 70.3609 12.6964Z" fill="#376180"/>
<path d="M89.4157 11.3802C91.4683 9.46445 94.6327 8.81446 97.2668 9.82365C99.7641 10.7644 101.355 13.142 102.159 15.588C98.4471 17.1274 94.7524 18.6498 91.0407 20.1892C91.5538 21.1642 92.3406 22.0536 93.4011 22.4128C94.8893 22.9431 96.6682 22.7549 97.9168 21.7628C98.4129 21.3865 98.8063 20.8905 99.1826 20.4116C100.123 21.0444 101.064 21.6602 102.005 22.2931C100.671 24.2944 98.43 25.697 96.0182 25.9193C93.3498 26.2443 90.5104 25.218 88.7828 23.1312C85.9434 19.8471 86.2171 14.3393 89.4157 11.3802ZM91.2459 14.5446C90.6644 15.3827 90.4249 16.409 90.442 17.4182C92.9222 16.3919 95.4024 15.3656 97.8826 14.3222C97.4721 13.3644 96.48 12.7828 95.4708 12.6288C93.8459 12.3381 92.1525 13.2104 91.2459 14.5446Z" fill="#376180"/>
</g>
</g>
<defs>
<clipPath id="clip0">
<rect width="101.945" height="33.2748" fill="white" transform="translate(0.213867 0.15625)"/>
</clipPath>
</defs>
</svg>