<svg width="104" height="35" viewBox="0 0 104 35" fill="none" xmlns="http://www.w3.org/2000/svg">
<g opacity="0.5">
<path d="M35.0766 18.7271C35.0766 16.0847 36.3259 14.5637 38.3374 14.5637C40.1979 14.5637 41.6899 15.8373 41.6953 18.6648C41.6953 21.3366 40.3543 23.0133 38.3122 23.0133C36.1731 23.0133 35.0766 21.1497 35.0766 18.7271Z" fill="#376180"/>
<path d="M90.509 21.6152C90.509 22.5168 90.9351 23.2314 92.1269 23.2314C93.529 23.2314 95.0228 22.2052 95.1127 19.8761C94.4584 19.7692 93.7978 19.708 93.1353 19.6929C91.7278 19.6911 90.509 20.0942 90.509 21.6152Z" fill="#376180"/>
<path fill-rule="evenodd" clip-rule="evenodd" d="M0 0.136719V34.1367H104V0.136719H0ZM29.441 25.7787H23.6887V17.888C23.6887 15.4655 22.896 14.5328 21.3429 14.5328C19.4536 14.5328 18.6914 15.8998 18.6914 17.8569V22.7386H20.5106V25.7824H14.7583V17.888C14.7583 15.4655 13.9673 14.5328 12.4124 14.5328C10.5231 14.5328 9.76095 15.8998 9.76095 17.8569V22.7386H12.3747V25.7824H3.99426V22.7386H5.82242V14.8131H3.84506V11.7694H9.75376V13.8804C10.5771 12.3906 12.0097 11.489 13.9278 11.489C15.9051 11.489 17.7369 12.4529 18.4074 14.5034C19.1696 12.6398 20.7227 11.489 22.887 11.489C25.3551 11.489 27.6111 13.0118 27.6111 16.3359V22.7386H29.4393L29.441 25.7787ZM38.1864 26.0884C33.9512 26.0884 31.0247 23.4478 31.0247 18.9747C31.0247 14.8736 33.4623 11.4872 38.3949 11.4872C43.3275 11.4872 45.7399 14.8736 45.7399 18.7878C45.7435 23.2627 42.5743 26.0903 38.1864 26.0903V26.0884ZM60.0667 25.7787H48.0588L47.6633 23.6659L55.2132 14.8113H50.9169L50.3076 16.9865L47.4727 16.6768L47.9599 11.7675H60.0398L60.3435 13.8804L52.7217 22.7386H57.1636L57.8035 20.5635L60.9116 20.8732L60.0667 25.7787ZM67.5016 25.7787H63.3869V20.7467H67.5016V25.7787ZM67.5016 16.7995H63.3869V11.7694H67.5016V16.7995ZM69.6587 25.7787L75.6069 4.41375H79.4772L73.5343 25.7787H69.6587ZM77.6436 25.7787L83.5883 4.41375H87.4585L81.5192 25.7787H77.6436ZM98.1218 26.0884C96.2937 26.0884 95.2888 24.9999 95.1055 23.2921C94.3127 24.7214 92.9106 26.0884 90.687 26.0884C88.7096 26.0884 86.4519 24.9999 86.4519 22.0808C86.4519 18.632 89.7127 17.8257 92.8513 17.8257C93.6051 17.8191 94.3586 17.8607 95.1073 17.9503V17.4849C95.1073 16.0556 95.0767 14.3477 92.8513 14.3477C92.028 14.3477 91.3881 14.41 90.7481 14.7508L90.2394 16.7391L87.1008 16.3964L87.7102 12.7626C90.1171 11.7675 91.3359 11.4798 93.5919 11.4798C96.549 11.4798 99.0476 13.0338 99.0476 16.2333V22.3227C99.0476 23.1308 99.3514 23.4112 99.9932 23.4112C100.189 23.4082 100.384 23.3767 100.572 23.3177L100.603 25.4306C99.8424 25.8526 98.9927 26.0791 98.1272 26.0903L98.1218 26.0884Z" fill="#376180"/>
</g>
</svg>