<svg width="141" height="55" viewBox="0 0 141 55" fill="none" xmlns="http://www.w3.org/2000/svg">
<g opacity="0.5">
<path d="M38.2147 31.5501H38.4461C39.2415 31.5501 40.1287 31.4063 40.1287 30.3916C40.1287 29.3805 39.2415 29.2302 38.4461 29.2302H38.2147V31.5501ZM43.5352 36.6905H40.5254L38.2382 33.1088H38.2147V36.6905H35.7952V27.3789H39.4095C41.2509 27.3789 42.6472 28.2554 42.6472 30.2435C42.6472 31.5302 41.9345 32.6431 40.6079 32.8717L43.5352 36.6905Z" fill="#376180"/>
<path d="M45.5127 33.5268C45.5127 34.3293 46.0418 34.9509 46.9575 34.9509C47.8718 34.9509 48.4015 34.3293 48.4015 33.5268C48.4015 32.7464 47.8718 32.0941 46.9575 32.0941C46.0418 32.0941 45.5127 32.7464 45.5127 33.5268ZM50.5769 36.6891H48.3289V35.987H48.3054C47.9081 36.6164 47.1291 36.9005 46.3878 36.9005C44.5101 36.9005 43.1929 35.329 43.1929 33.5147C43.1929 31.7011 44.4859 30.1445 46.3672 30.1445C47.0935 30.1445 47.8597 30.4144 48.3289 30.9712V30.3546H50.5769V36.6891" fill="#376180"/>
<path d="M53.6493 33.5273C53.6493 34.3298 54.1797 34.9478 55.0976 34.9478C56.0126 34.9478 56.5424 34.3298 56.5424 33.5273C56.5424 32.7504 56.0126 32.0946 55.0976 32.0946C54.1797 32.0946 53.6493 32.7504 53.6493 33.5273ZM56.4662 35.9859H56.4426C56.0489 36.614 55.2692 36.901 54.5286 36.901C52.6545 36.901 51.3301 35.3294 51.3301 33.5152C51.3301 31.7016 52.6267 30.1464 54.5009 30.1464C55.2314 30.1464 56.0005 30.4148 56.4662 30.9717V26.4395H58.7141V36.6895H56.4662V35.9859" fill="#376180"/>
<path d="M62.3713 36.691H60.1255V30.3565H62.3713V36.691ZM62.5052 27.9227C62.5052 28.6169 61.9377 29.183 61.2449 29.183C60.5556 29.183 59.988 28.6169 59.988 27.9227C59.988 27.2334 60.5556 26.6602 61.2449 26.6602C61.9377 26.6602 62.5052 27.2334 62.5052 27.9227Z" fill="#376180"/>
<path d="M65.6297 33.5268C65.6297 34.3293 66.1602 34.9509 67.0766 34.9509C67.9895 34.9509 68.5185 34.3293 68.5185 33.5268C68.5185 32.7464 67.9895 32.0941 67.0766 32.0941C66.1602 32.0941 65.6297 32.7464 65.6297 33.5268ZM70.894 33.5268C70.894 35.6744 69.1124 36.9005 67.0766 36.9005C65.0487 36.9005 63.2593 35.6865 63.2593 33.5268C63.2593 31.365 65.0373 30.1445 67.0766 30.1445C69.1124 30.1445 70.894 31.365 70.894 33.5268Z" fill="#376180"/>
<path d="M74.2506 29.4289V30.9848H76.9058V33.0348H74.2506V36.6905H71.8296V27.3789H77.1778V29.4289H74.2506Z" fill="#376180"/>
<path d="M80.2282 31.3905H80.2517C80.6818 30.6186 81.4252 30.2676 82.3017 30.2676H82.7354V32.4287C82.4277 32.2606 82.1301 32.2179 81.7848 32.2179C80.5344 32.2179 80.2282 33.0467 80.2282 34.1333V36.6903H77.9802V30.3559H80.2282V31.3905" fill="#376180"/>
<path d="M87.9924 32.6047C87.8842 31.9973 87.3266 31.6042 86.7214 31.6042C86.0663 31.6042 85.5244 31.946 85.3884 32.6047H87.9924ZM90.083 33.8999H85.3521C85.3521 34.8114 85.8306 35.3083 86.7605 35.3083C87.2412 35.3083 87.5865 35.1446 87.8322 34.7274H89.999C89.6344 36.2198 88.2139 36.9005 86.7726 36.9005C84.6699 36.9005 83.1013 35.7143 83.1013 33.5304C83.1013 31.417 84.5496 30.1445 86.6146 30.1445C88.8099 30.1445 90.083 31.5039 90.083 33.6642V33.8999Z" fill="#376180"/>
<path d="M95.5273 32.6047C95.4183 31.9973 94.8616 31.6042 94.257 31.6042C93.5984 31.6042 93.0558 31.946 92.9219 32.6047H95.5273ZM97.6165 33.8999H92.8842C92.8842 34.8114 93.3655 35.3083 94.2941 35.3083C94.7754 35.3083 95.1179 35.1446 95.3671 34.7274H97.5289C97.17 36.2198 95.7494 36.9005 94.3047 36.9005C92.2056 36.9005 90.6355 35.7143 90.6355 33.5304C90.6355 31.417 92.0845 30.1445 94.1431 30.1445C96.3419 30.1445 97.6165 31.5039 97.6165 33.6642V33.8999" fill="#376180"/>
<path d="M100.925 29.4289V30.9848H103.653V33.0348H100.925V34.6405H103.804V36.6905H98.5073V27.3789H103.804V29.4289H100.925Z" fill="#376180"/>
<path d="M107.024 30.3535V33.7386C107.024 34.5418 107.224 35.1079 108.148 35.1079C109.072 35.1079 109.271 34.5418 109.271 33.7386V30.3535H111.519V34.1687C111.519 36.2544 110.047 36.8994 108.148 36.8994C106.246 36.8994 104.778 36.2544 104.778 34.1687V30.3535H107.024" fill="#376180"/>
<path d="M115.016 31.3905H115.04C115.473 30.6186 116.21 30.2676 117.09 30.2676H117.524V32.4287C117.216 32.2606 116.913 32.2179 116.574 32.2179C115.325 32.2179 115.016 33.0467 115.016 34.1333V36.6903H112.77V30.3559H115.016V31.3905Z" fill="#376180"/>
<path d="M120.162 33.5268C120.162 34.3293 120.696 34.9509 121.612 34.9509C122.527 34.9509 123.056 34.3293 123.056 33.5268C123.056 32.7464 122.527 32.0941 121.612 32.0941C120.696 32.0941 120.162 32.7464 120.162 33.5268ZM125.425 33.5268C125.425 35.6744 123.65 36.9005 121.612 36.9005C119.583 36.9005 117.793 35.6865 117.793 33.5268C117.793 31.365 119.572 30.1445 121.612 30.1445C123.65 30.1445 125.425 31.365 125.425 33.5268Z" fill="#376180"/>
<path d="M128.352 33.5304C128.352 34.3293 128.882 34.9509 129.801 34.9509C130.715 34.9509 131.242 34.3293 131.242 33.5304C131.242 32.7499 130.715 32.0963 129.801 32.0963C128.882 32.0963 128.352 32.7499 128.352 33.5304ZM128.429 31.0716H128.453C128.858 30.4414 129.621 30.1445 130.367 30.1445C132.257 30.1445 133.563 31.726 133.563 33.541C133.563 35.3682 132.27 36.9005 130.391 36.9005C129.661 36.9005 128.914 36.6406 128.429 36.0838V39.852H126.18V30.3546H128.429V31.0716Z" fill="#376180"/>
<path d="M138.91 32.6047C138.802 31.9973 138.245 31.6042 137.639 31.6042C136.984 31.6042 136.442 31.946 136.306 32.6047H138.91ZM141 33.8999H136.268C136.268 34.8114 136.752 35.3083 137.678 35.3083C138.159 35.3083 138.505 35.1446 138.747 34.7274H140.913C140.552 36.2198 139.131 36.9005 137.691 36.9005C135.591 36.9005 134.019 35.7143 134.019 33.5304C134.019 31.417 135.468 30.1445 137.53 30.1445C139.725 30.1445 141 31.5039 141 33.6642V33.8999" fill="#376180"/>
<path d="M38.2147 46.3839H38.4461C39.2415 46.3839 40.1287 46.2366 40.1287 45.2219C40.1287 44.2108 39.2415 44.0626 38.4461 44.0626H38.2147V46.3839ZM43.5352 51.5207H40.5254L38.2382 47.9384H38.2147V51.5207H35.7952V42.207H39.4095C41.2509 42.207 42.6472 43.0829 42.6472 45.0738C42.6472 46.3605 41.9345 47.4712 40.6079 47.7049L43.5352 51.5207Z" fill="#376180"/>
<path d="M45.5127 48.3611C45.5127 49.1601 46.0418 49.7774 46.9575 49.7774C47.8718 49.7774 48.4015 49.1601 48.4015 48.3611C48.4015 47.5807 47.8718 46.927 46.9575 46.927C46.0418 46.927 45.5127 47.5807 45.5127 48.3611ZM50.5769 51.5198H48.3289V50.8163H48.3054C47.9081 51.4443 47.1291 51.7277 46.3878 51.7277C44.5101 51.7277 43.1929 50.1626 43.1929 48.3454C43.1929 46.5312 44.4859 44.9746 46.3672 44.9746C47.0935 44.9746 47.8597 45.2445 48.3289 45.7985V45.1832H50.5769V51.5198" fill="#376180"/>
<path d="M53.6493 48.3616C53.6493 49.1605 54.1797 49.7822 55.0976 49.7822C56.0126 49.7822 56.5424 49.1605 56.5424 48.3616C56.5424 47.5812 56.0126 46.9275 55.0976 46.9275C54.1797 46.9275 53.6493 47.5812 53.6493 48.3616ZM56.4662 50.8168H56.4426C56.0489 51.4448 55.2692 51.7318 54.5286 51.7318C52.6545 51.7318 51.3301 50.1631 51.3301 48.3459C51.3301 46.5316 52.6267 44.9751 54.5009 44.9751C55.2314 44.9751 56.0005 45.2421 56.4662 45.8031V41.2695H58.7141V51.5167H56.4662V50.8168" fill="#376180"/>
<path d="M62.3713 51.519H60.1255V45.1839H62.3713V51.519ZM62.5052 42.7508C62.5052 43.4422 61.9377 44.0111 61.2449 44.0111C60.5556 44.0111 59.988 43.4422 59.988 42.7508C59.988 42.0572 60.5556 41.4883 61.2449 41.4883C61.9377 41.4883 62.5052 42.0572 62.5052 42.7508Z" fill="#376180"/>
<path d="M65.6297 48.3611C65.6297 49.1601 66.1602 49.7817 67.0766 49.7817C67.9895 49.7817 68.5185 49.1601 68.5185 48.3611C68.5185 47.5807 67.9895 46.927 67.0766 46.927C66.1602 46.927 65.6297 47.5807 65.6297 48.3611ZM70.894 48.3611C70.894 50.5051 69.1124 51.7313 67.0766 51.7313C65.0487 51.7313 63.2593 50.5208 63.2593 48.3611C63.2593 46.1958 65.0373 44.9746 67.0766 44.9746C69.1124 44.9746 70.894 46.1958 70.894 48.3611Z" fill="#376180"/>
<path d="M74.2506 49.4692H77.1536V51.517H71.8296V42.209H74.2506V49.4692Z" fill="#376180"/>
<path d="M80.2004 51.519H77.9567V45.1839H80.2004V51.519ZM80.34 42.7508C80.34 43.4422 79.7703 44.0111 79.0796 44.0111C78.3897 44.0111 77.8171 43.4422 77.8171 42.7508C77.8171 42.0572 78.3897 41.4883 79.0796 41.4883C79.7703 41.4883 80.34 42.0572 80.34 42.7508Z" fill="#376180"/>
<path d="M83.7222 48.3616C83.7222 49.1605 84.2556 49.7779 85.167 49.7779C86.0813 49.7779 86.611 49.1605 86.611 48.3616C86.611 47.5812 86.0813 46.9275 85.167 46.9275C84.2556 46.9275 83.7222 47.5812 83.7222 48.3616ZM81.5491 41.2695H83.7942V45.7989C84.2755 45.2449 85.031 44.9751 85.7623 44.9751C87.6364 44.9751 88.931 46.5316 88.931 48.3459C88.931 50.1723 87.6257 51.7282 85.7345 51.7282C84.9947 51.7282 84.2314 51.4448 83.8219 50.8168H83.7942V51.5202H81.5491V41.2695Z" fill="#376180"/>
<path d="M94.3448 47.4312C94.2308 46.8288 93.6741 46.4314 93.0716 46.4314C92.4187 46.4314 91.8732 46.7775 91.7359 47.4312H94.3448ZM96.4304 48.7272H91.6995C91.6995 49.6414 92.1844 50.1356 93.108 50.1356C93.5928 50.1356 93.9347 49.9739 94.1846 49.5581H96.3407C95.9847 51.0506 94.5641 51.7313 93.1201 51.7313C91.0217 51.7313 89.4558 50.5486 89.4558 48.3611C89.4558 46.2442 90.8963 44.9746 92.9599 44.9746C95.1579 44.9746 96.4304 46.3318 96.4304 48.4914V48.7272" fill="#376180"/>
<path d="M99.3911 46.2186H99.4231C99.8518 45.4396 100.592 45.0957 101.468 45.0957H101.902V47.2575C101.594 47.0858 101.297 47.0489 100.95 47.0489C99.7008 47.0489 99.3911 47.8741 99.3911 48.9614V51.5149H97.146V45.1818H99.3911V46.2186" fill="#376180"/>
<path d="M105.667 51.5183H103.42V47.0366H102.69V45.1817H103.42V43.2812H105.667V45.1817H106.935V47.0366H105.667V51.5183Z" fill="#376180"/>
<path d="M107.283 45.1836H109.88L111.569 48.4341L113.226 45.1836H115.778L110.703 54.6789H108.186L110.349 50.6565L107.283 45.1836Z" fill="#376180"/>
<path d="M18.7234 24.9647C18.7234 24.9647 24.684 20.2516 22.1426 13.3133C20.2222 8.07406 16.4868 4.36205 18.4456 0C18.4456 0 12.485 4.71029 15.0299 11.6486C16.9482 16.8879 20.6822 20.5991 18.7234 24.9647Z" fill="#376180"/>
<path d="M18.3766 23.8682C18.3766 23.8682 19.0381 16.2976 12.2408 13.3889C7.1133 11.1986 1.85266 11.3737 0.017689 6.95117C0.017689 6.95117 -0.645984 14.5239 6.15702 17.4326C11.2853 19.6243 16.5438 19.4471 18.3766 23.8682Z" fill="#376180"/>
<path d="M14.3684 29.0542C14.3684 29.0542 21.3893 31.9665 26.2113 26.3569C29.8464 22.1294 31.2634 17.0632 36.0335 16.6438C36.0335 16.6438 29.0119 13.7336 24.1905 19.3396C20.5555 23.5685 19.1349 28.6362 14.3684 29.0542Z" fill="#376180"/>
<path d="M10.5833 30.3945V36.6172H23.8382L26.9357 30.3945H10.5833Z" fill="#376180"/>
<path d="M12.6743 37.4629V54.9567H13.7936L21.3977 37.4643L12.6743 37.4629Z" fill="#376180"/>
</g>
</svg>
