<svg width="198" height="39" viewBox="0 0 198 39" fill="none" xmlns="http://www.w3.org/2000/svg">
<path d="M27.2919 31.7149L16.5319 17.0018V27.7033H20.8361V38.2705H0.930664V27.7033H4.96542V11.2494H0.930664V0.681401H16.5664L27.3446 15.5285L38.146 0.681401H53.7806V11.2494H49.7453V27.7033H53.7806V38.2705H33.8762V27.7033H38.1792V17.0018L27.2919 31.7149Z" fill="#FFCB05"/>
<path d="M133.705 1.19824C131.617 1.19824 129.818 2.46194 129.818 4.71806C129.818 7.05893 131.702 7.82752 132.704 8.18603C133.188 8.37385 133.706 8.52724 134.191 8.71391C134.778 8.95555 136.107 9.50033 136.107 10.8666C136.107 12.1665 134.968 12.7115 133.671 12.7115C131.841 12.7115 130.717 11.6521 130.042 9.68919L129.421 9.75541L129.598 12.1318L130.614 12.8673C131.096 13.1742 132.116 13.8229 133.774 13.8229C136.347 13.8229 138.075 12.0993 138.075 10.015C138.075 8.56283 137.28 7.50353 136.313 6.93897C135.813 6.64923 135.244 6.45919 134.553 6.23931C133.188 5.79381 131.754 5.31285 131.754 3.87902C131.754 2.9227 132.513 2.30793 133.808 2.30793C134.776 2.30793 135.605 2.65716 136.192 3.40846C136.675 4.04292 136.832 4.40867 137.039 5.1943L137.641 5.07619L137.245 1.48839L136.504 2.01627C135.469 1.36692 134.518 1.19824 133.705 1.19824ZM181.211 1.28235C177.294 1.26402 175.066 4.23752 175.066 7.53461C175.066 11.3803 177.836 13.9086 181.376 13.9086C184.606 13.9086 187.473 11.7223 187.473 7.55248C187.473 3.89578 184.899 1.29957 181.211 1.28235ZM157.294 1.43624V2.10191C158.468 2.17062 158.484 2.20434 159.364 3.50304L162.608 8.47584V10.5927C162.592 11.9097 162.592 12.2169 162.315 12.4895C162.072 12.7288 161.711 12.764 160.761 12.8671V13.5166H166.766V12.8671C164.955 12.764 164.937 12.594 164.937 10.4066V7.89251L166.835 4.75025C168.233 2.49533 168.594 2.13737 169.82 2.10191V1.43625H165.058V2.10191C165.904 2.15345 166.403 2.17084 166.403 2.75148C166.403 3.02633 166.232 3.38479 165.92 3.98265L164.196 6.98528L162.332 3.96469C162.022 3.45163 161.798 3.07556 161.798 2.75148C161.798 2.17084 162.367 2.13742 163.643 2.10191V1.43625L157.294 1.43624ZM117.977 1.44876V2.10012C118.978 2.18372 119.307 2.3044 119.392 2.96979C119.444 3.3626 119.461 3.87366 119.461 5.32467V9.68913C119.461 10.185 119.46 10.7465 119.443 11.2423C119.425 12.5388 119.289 12.746 117.977 12.8457V13.5167H123.064V12.8457C121.598 12.8148 121.596 12.4417 121.579 9.67484L121.58 8.10733C122.737 8.12565 122.978 8.03102 123.702 9.54959L124.376 10.9686C125.343 13.0002 126.292 13.787 128.586 13.787C128.863 13.787 129.119 13.7713 129.379 13.753V13.3432C128.395 13.2092 127.983 12.8821 127.206 11.4643L125.048 7.7494C126.722 7.23519 127.446 5.72306 127.446 4.5606C127.446 2.88745 126.498 1.47029 123.496 1.47029L117.977 1.44876ZM107.267 1.45055V2.10011C108.148 2.18715 108.527 2.23747 108.648 2.79978C108.734 3.17542 108.751 4.50774 108.751 4.98645V9.22741C108.751 9.55151 108.734 11.0044 108.717 11.2942C108.682 12.6113 108.527 12.729 107.267 12.8493V13.5168H116.552C116.552 12.6464 116.706 11.2094 116.81 10.3906H116.223C115.808 12.5437 114.583 12.4378 112.822 12.4378C111.201 12.4378 110.874 12.0113 110.874 11.2245V7.85149H112.186C113.687 7.85149 114.118 7.97882 114.118 9.33132H114.705V5.348H114.118C113.997 6.42452 113.773 6.77597 112.202 6.77597H110.874V2.52604H112.376C114.444 2.52604 115.187 2.68086 115.462 4.32086H116.015L115.944 1.45062L107.267 1.45055ZM145.194 1.45055L145.091 4.83441H145.731C145.834 2.68136 146.746 2.73184 148.127 2.73184H149.647V11.6182C149.647 12.5767 149.337 12.9878 148.214 13.005V13.5168H153.253L153.252 13.005C152.13 12.9878 151.82 12.5768 151.82 11.6182V2.73184H153.338C154.719 2.73184 155.633 2.68138 155.736 4.83441H156.376L156.271 1.45055H145.194ZM59.9751 1.45413V2.10191C60.8899 2.15344 61.269 2.30862 61.3719 3.06107C61.4066 3.36799 61.407 3.94613 61.4243 5.246V7.97845C61.4243 9.92764 61.442 11.7402 63.253 12.9531C64.3921 13.7055 65.7717 13.8049 66.446 13.8049C67.2902 13.8049 70.4842 13.6362 71.3123 10.3906C71.5193 9.51905 71.5685 8.61107 71.6032 7.69029C71.6205 7.17837 71.7593 3.82901 71.7767 3.53702C71.846 2.34368 72.0879 2.08587 73.2259 2.1019V1.45412H68.5837V2.1019C69.6719 2.18894 70.2399 2.22143 70.3093 3.31512C70.3267 3.70908 70.3274 5.14402 70.3274 5.58947C70.3274 6.99014 70.3106 9.10791 69.966 10.2348C69.552 11.6526 68.5942 12.5503 66.8526 12.5503C66.3171 12.5503 65.2569 12.4347 64.6336 11.5357C63.8519 10.4031 63.8241 9.14172 63.8241 7.67234V4.83609C63.8415 2.27304 63.8399 2.2221 65.4612 2.10181V1.45403L59.9751 1.45413ZM74.147 1.45413V2.10191C74.9588 2.17062 75.2345 2.29151 75.9088 2.90536C75.8914 4.15367 75.839 11.3109 75.6667 12.114C75.529 12.7977 75.1485 12.8158 74.147 12.8673V13.5169H79.1162V12.8673C77.2531 12.6807 77.1159 12.612 77.1159 10.6628V4.40696L81.9279 10.2871C82.4795 10.9536 83.0333 11.638 83.5849 12.3217L84.6709 13.6709H85.3973L85.5707 4.35877C85.5881 2.39354 85.7074 2.11951 87.0362 2.10228V1.45451H82.2387V2.10228C84.1723 2.171 84.2235 2.27392 84.2409 4.18872V9.58747L80.842 5.41633C79.0482 3.21289 78.8232 2.88837 77.8044 1.45454L74.147 1.45413ZM88.3485 1.45413V2.10191C89.7802 2.30805 89.7804 2.37426 89.7977 4.88804V9.77317V11.3121C89.7803 12.5775 89.5373 12.7125 88.3485 12.8671V13.5167H93.4062V12.8671C92.4591 12.7984 92.1131 12.6278 92.0275 11.8937C91.9928 11.5341 91.9751 10.1836 91.9751 9.7553V4.88804C91.9751 2.30787 91.9745 2.24044 93.4063 2.10191V1.45413H88.3485ZM94.5663 1.45413V2.10191C95.7911 2.29202 95.894 2.56473 96.7221 4.85405L100.052 13.7565H100.708L104.418 4.98827C105.418 2.59812 105.575 2.27369 106.747 2.10191V1.45413H102.485V2.10191C103.243 2.11909 104.107 2.15258 104.107 3.02524C104.107 3.33217 103.9 3.87866 103.744 4.3047L101.261 10.6447L99.1381 4.51222C98.8108 3.50331 98.7225 3.21261 98.7225 2.87132C98.7225 2.17044 99.3621 2.13737 100.345 2.10187V1.4541L94.5663 1.45413ZM138.872 1.45413V2.10191C140.305 2.30805 140.306 2.37426 140.325 4.88804V9.77317V11.3121C140.306 12.5775 140.063 12.7125 138.872 12.8671V13.5167H143.93V12.8671C142.983 12.7984 142.637 12.6278 142.551 11.8937C142.517 11.5341 142.499 10.1836 142.499 9.7553V4.88804C142.499 2.30787 142.498 2.24044 143.93 2.10191V1.45413H138.872ZM188.068 1.54003V2.1878C188.948 2.27255 189.326 2.32516 189.446 2.88747C189.534 3.26425 189.551 4.59607 189.551 5.07597L189.549 9.31519C189.549 9.63929 189.532 11.0905 189.513 11.3802C189.481 12.6938 189.324 12.8149 188.066 12.9352V13.6009H193.111V12.9352C191.851 12.815 191.696 12.6938 191.662 11.3802L191.669 7.93733H193.017C194.378 7.93733 195.102 8.06631 195.189 9.41542H195.778V5.43393H195.189C195.12 6.73382 194.759 6.8619 193.275 6.8619H191.669L191.671 2.68536C192.103 2.63267 192.345 2.61557 193.122 2.61557C195.503 2.61557 196.27 2.60483 196.589 4.49449H197.195L197.003 1.54014L188.068 1.54003ZM181.228 2.3918C182.243 2.36088 183.017 2.97279 183.409 3.38852C184.304 4.33449 184.743 5.66874 184.791 7.22507C184.84 8.79524 184.663 9.99664 183.801 11.3068C183.048 12.4383 182.078 12.7779 181.389 12.7974C180.701 12.7974 179.723 12.4899 178.935 11.3802C178.034 10.0975 177.82 8.90426 177.82 7.33071C177.82 5.77547 178.215 4.42354 179.081 3.45119C179.462 3.02516 180.213 2.3918 181.228 2.3918ZM122.331 2.51713C124.574 2.51713 125.286 3.72797 125.212 5.12974C125.161 6.09522 124.113 7.17248 122.727 7.1679C122.382 7.1679 121.916 7.11443 121.589 7.04801V2.58698C121.83 2.53545 122.02 2.51713 122.331 2.51713ZM170.421 18.5578C169.507 19.2323 168.907 19.5418 166.767 20.2381L167.053 20.6783L162.069 34.2223C161.364 36.1326 160.737 36.5226 158.806 36.6005V37.5829H166.402V36.6005C165.281 36.549 163.896 36.472 163.896 35.1779C163.896 34.7931 164 34.4292 164.131 34.0398L164.702 32.4633H171.2L171.753 34.3261C171.857 34.6617 171.962 35.0504 171.962 35.4123C171.962 36.4201 170.996 36.5226 169.743 36.6005V37.5829H177.817H178.356H185.334V36.6005C182.515 36.3153 182.306 36.2123 182.306 33.2668V23.8007L189.588 32.696C190.424 33.7061 191.257 34.7379 192.092 35.772L193.739 37.8155H194.835L195.096 23.7291C195.121 20.7584 195.305 20.3413 197.315 20.3184V19.3342H190.058V20.3184C192.981 20.4215 193.06 20.5756 193.086 23.4697V31.6367L187.943 25.3289C185.229 21.995 184.889 21.5056 183.35 19.3342H177.817V20.3184C179.044 20.4215 179.461 20.6017 180.479 21.5316C180.452 23.4179 180.374 34.2465 180.114 35.4641C179.925 36.3992 179.398 36.5053 178.188 36.5754C176.39 36.3509 176.037 35.7822 175.329 33.6532L171.258 21.2452C170.84 19.9534 170.788 19.7992 170.421 18.5578ZM150.441 18.8674C145.436 18.8674 141.442 22.6664 141.442 28.5066C141.442 33.2868 144.473 38.046 150.815 38.046C154.433 38.046 156.476 36.7777 157.909 35.9005V34.5297C157.957 31.0665 157.957 30.6012 159.624 30.4981V29.5157H152.201V30.4981C154.246 30.7066 154.563 30.7566 154.646 33.0803C154.674 33.8843 154.599 34.323 154.27 34.8143C154.175 34.9174 153.117 36.3389 151.074 36.3389C147.479 36.3389 145.391 32.7473 145.391 28.5603C145.391 23.3116 148.068 20.6242 151.287 20.6242C153.142 20.6242 154.317 21.3862 154.928 21.9806C156.313 23.3514 156.879 24.6044 157.253 25.6901L158.005 25.5612L157.864 19.8476L156.903 20.9337C155.399 20.029 153.589 18.8674 150.441 18.8674ZM103.15 18.8942C96.9275 18.8942 93.8774 23.7554 93.8774 28.691C93.8774 34.0164 97.4746 38.0728 103.028 38.0728C108.112 38.0728 110.071 34.8412 110.888 33.5241L109.792 32.701C108.825 34.0707 107.615 35.8522 104.392 35.8522C100.126 35.8522 97.9685 32.0783 97.9685 28.07C97.9685 23.339 100.598 20.6545 103.921 20.6545C105.854 20.6545 107.218 21.8413 107.789 22.4368C108.979 23.7286 109.45 24.5801 109.772 25.6416L110.59 25.4842L110.491 19.953L109.226 21.0911C108.161 20.2666 106.423 18.8942 103.15 18.8942ZM60.7024 19.3344V20.3186C62.3457 20.3415 62.7118 20.4726 62.7118 22.2798C62.7118 22.9268 62.7131 23.8059 62.6865 24.4003L62.4263 32.0501C62.3985 33.0579 62.3211 34.5841 62.2691 35.0743C62.1638 36.3157 61.5891 36.5228 60.1006 36.6007V37.5831H66.4974V36.6007C64.5395 36.4461 64.3308 36.1094 64.3308 34.3263L64.4682 23.595L70.3861 37.8152H72.0051L78.4507 23.7791V32.9575C78.4241 36.344 78.4249 36.4462 76.1015 36.6009V37.5833H84.1661V36.6009C82.7043 36.4714 82.1831 36.2132 82.079 34.8687C82.0004 33.9377 81.9742 32.3881 81.9742 31.1467V23.6257C81.9488 20.782 81.9734 20.5491 84.1661 20.4208V19.3347H78.5553L72.2399 33.1884L66.4954 19.3347L60.7024 19.3344ZM85.9727 19.3344V20.3186C88.1387 20.6278 88.138 20.7304 88.1645 24.5291V31.9231V34.2458C88.1379 36.1606 87.7744 36.3682 85.9727 36.6007V37.5831H93.6235V36.6007C92.1882 36.4976 91.6652 36.2371 91.5346 35.1262C91.4825 34.5845 91.4569 32.5415 91.4569 31.8945V24.5291C91.4569 20.6273 91.4574 20.5247 93.6235 20.3186V19.3344H85.9727ZM112.25 19.3344V20.3186C113.685 20.4457 114.206 20.6012 114.31 21.6857C114.388 22.2549 114.389 23.4442 114.389 24.6329V32.2846C114.389 32.9294 114.389 33.5755 114.364 34.2225C114.364 35.9781 114.337 36.4197 112.25 36.6007V37.5831H120.137V36.6007C117.762 36.343 117.71 36.3433 117.683 32.5422V29.196C119.276 29.117 120.517 29.0672 122.109 29.0672C123.622 29.0672 124.837 29.1445 126.299 29.196V32.5422C126.299 33.8615 126.299 34.5589 126.247 35.0743C126.088 36.3432 125.593 36.3911 123.74 36.6007V37.5831H131.731V36.6007C130.373 36.4713 129.825 36.2917 129.694 35.3319C129.616 34.7925 129.59 32.4912 129.59 31.7674V24.0639C129.59 20.6018 129.589 20.5763 131.731 20.3186V19.3344H123.74V20.3186C126.246 20.5499 126.272 20.6782 126.299 24.0119V27.0772C124.732 27.154 123.492 27.2061 121.926 27.2061C120.387 27.2061 119.276 27.154 117.683 27.0772V24.5559C117.683 23.4691 117.71 22.1249 117.84 21.5317C118.023 20.5239 118.597 20.4731 120.137 20.3185V19.3343L112.25 19.3344ZM133.256 19.3344V20.3186C135.424 20.6278 135.425 20.7304 135.451 24.5291V31.9231V34.2458C135.425 36.1606 135.059 36.3682 133.256 36.6007V37.5831H140.916V36.6007C139.482 36.4976 138.961 36.2371 138.83 35.1262C138.777 34.5845 138.749 32.5415 138.749 31.8945V24.5291C138.749 20.6273 138.75 20.5247 140.916 20.3186V19.3344H133.256ZM168.092 22.9348L170.678 30.4987H165.384L168.092 22.9348Z" fill="white"/>
</svg>
