<svg width="198" height="39" viewBox="0 0 198 39" fill="none" xmlns="http://www.w3.org/2000/svg">
<path d="M27.2929 31.7153L16.5329 17.0022V27.7037H20.8371V38.2709H0.931641V27.7037H4.9664V11.2498H0.931641V0.681828H16.5674L27.3456 15.5289L38.147 0.681828H53.7815V11.2498H49.7463V27.7037H53.7815V38.2709H33.8772V27.7037H38.1802V17.0022L27.2929 31.7153Z" fill="#FFCB05"/>
<path d="M133.707 1.19836C131.618 1.19836 129.82 2.46207 129.82 4.71818C129.82 7.05905 131.703 7.82764 132.706 8.18615C133.189 8.37397 133.707 8.52736 134.193 8.71403C134.779 8.95568 136.108 9.50045 136.108 10.8667C136.108 12.1666 134.97 12.7116 133.672 12.7116C131.843 12.7116 130.718 11.6523 130.044 9.68931L129.422 9.75553L129.599 12.1319L130.615 12.8674C131.097 13.1743 132.117 13.823 133.775 13.823C136.348 13.823 138.076 12.0994 138.076 10.0151C138.076 8.56295 137.281 7.50365 136.314 6.9391C135.815 6.64935 135.246 6.45931 134.554 6.23943C133.189 5.79393 131.755 5.31298 131.755 3.87914C131.755 2.92282 132.514 2.30805 133.81 2.30805C134.778 2.30805 135.607 2.65728 136.193 3.40858C136.676 4.04304 136.834 4.40879 137.041 5.19442L137.642 5.07631L137.247 1.48851L136.506 2.01639C135.471 1.36704 134.52 1.19862 133.707 1.19862L133.707 1.19836ZM181.213 1.28247C177.296 1.26414 175.067 4.23764 175.067 7.53474C175.067 11.3804 177.837 13.9087 181.377 13.9087C184.607 13.9087 187.474 11.7225 187.474 7.5526C187.474 3.8959 184.901 1.2996 181.213 1.28238L181.213 1.28247ZM157.295 1.43636V2.10203C158.469 2.17074 158.486 2.20446 159.366 3.50316L162.61 8.47596V10.5928C162.593 11.9098 162.593 12.217 162.317 12.4896C162.074 12.729 161.712 12.7641 160.763 12.8672V13.5167H166.767V12.8672C164.956 12.7641 164.939 12.5941 164.939 10.4068V7.89264L166.836 4.75038C168.234 2.49545 168.595 2.13749 169.821 2.10204V1.43637H165.06V2.10204C165.905 2.15357 166.404 2.17097 166.404 2.7516C166.404 3.02645 166.234 3.38491 165.922 3.98277L164.198 6.98541L162.333 3.96482C162.023 3.45175 161.8 3.07568 161.8 2.7516C161.8 2.17096 162.368 2.13754 163.645 2.10204V1.43637H157.295L157.295 1.43636ZM117.979 1.44889V2.10024C118.979 2.18385 119.308 2.30453 119.394 2.96991C119.446 3.36273 119.462 3.87379 119.462 5.32479V9.68925C119.462 10.1851 119.462 10.7466 119.444 11.2425C119.427 12.5389 119.29 12.7461 117.979 12.8458V13.5168H123.065V12.8458C121.599 12.8149 121.597 12.4418 121.58 9.67496L121.582 8.10745C122.738 8.12577 122.979 8.03115 123.703 9.54972L124.377 10.9687C125.344 13.0004 126.293 13.7871 128.588 13.7871C128.864 13.7871 129.121 13.7714 129.381 13.7531V13.3433C128.397 13.2093 127.984 12.8822 127.207 11.4644L125.05 7.74952C126.723 7.23531 127.447 5.72318 127.447 4.56072C127.447 2.88757 126.5 1.47041 123.497 1.47041L117.979 1.44894L117.979 1.44889ZM107.269 1.45067V2.10023C108.149 2.18727 108.528 2.23759 108.649 2.7999C108.735 3.17554 108.752 4.50786 108.752 4.98657V9.22753C108.752 9.55163 108.735 11.0046 108.718 11.2944C108.683 12.6114 108.528 12.7291 107.269 12.8494V13.5169H116.553C116.553 12.6465 116.707 11.2095 116.811 10.3907H116.224C115.809 12.5438 114.585 12.4379 112.823 12.4379C111.202 12.4379 110.875 12.0114 110.875 11.2247V7.85161H112.187C113.688 7.85161 114.119 7.97894 114.119 9.33144H114.706V5.34812H114.119C113.999 6.42464 113.774 6.77609 112.204 6.77609H110.875V2.52616H112.377C114.446 2.52616 115.188 2.68098 115.463 4.32098H116.016L115.946 1.45074H107.269L107.269 1.45067ZM145.196 1.45067L145.093 4.83453H145.732C145.835 2.68148 146.748 2.73197 148.128 2.73197H149.648V11.6183C149.648 12.5768 149.338 12.9879 148.215 13.0051V13.5169H153.255L153.253 13.0051C152.131 12.9879 151.822 12.5769 151.822 11.6183V2.73197H153.34C154.721 2.73197 155.635 2.6815 155.738 4.83453H156.377L156.272 1.45067H145.195H145.196ZM59.9766 1.45426V2.10203C60.8913 2.15357 61.2704 2.30874 61.3734 3.06119C61.4081 3.36811 61.4084 3.94625 61.4258 5.24612V7.97857C61.4258 9.92776 61.4434 11.7404 63.2545 12.9532C64.3936 13.7056 65.7732 13.805 66.4475 13.805C67.2917 13.805 70.4857 13.6363 71.3137 10.3907C71.5207 9.51918 71.57 8.61119 71.6047 7.69042C71.622 7.17849 71.7608 3.82913 71.7781 3.53714C71.8475 2.3438 72.0894 2.08599 73.2273 2.10202V1.45425H68.5851V2.10202C69.6733 2.18906 70.2414 2.22156 70.3108 3.31524C70.3281 3.7092 70.3289 5.14414 70.3289 5.58959C70.3289 6.99026 70.3121 9.10804 69.9675 10.235C69.5534 11.6528 68.5957 12.5504 66.8541 12.5504C66.3186 12.5504 65.2584 12.4348 64.6351 11.5359C63.8533 10.4033 63.8256 9.14185 63.8256 7.67246V4.83621C63.8429 2.27316 63.8413 2.22222 65.4627 2.10193V1.45415H59.9767L59.9766 1.45426ZM74.1484 1.45426V2.10203C74.9603 2.17074 75.236 2.29164 75.9103 2.90548C75.8929 4.15379 75.8404 11.3111 75.6681 12.1141C75.5305 12.7978 75.1499 12.8159 74.1484 12.8675V13.517H79.1176V12.8675C77.2545 12.6808 77.1173 12.6121 77.1173 10.6629V4.40708L81.9294 10.2872C82.481 10.9537 83.0348 11.6381 83.5864 12.3218L84.6723 13.6711H85.3987L85.5722 4.35889C85.5896 2.39366 85.7089 2.11963 87.0377 2.10241V1.45463H82.2402V2.10241C84.1738 2.17112 84.225 2.27404 84.2424 4.18885V9.58759L80.8434 5.41645C79.0497 3.21301 78.8247 2.8885 77.8059 1.45466H74.1486L74.1484 1.45426ZM88.3499 1.45426V2.10203C89.7816 2.30817 89.7818 2.37439 89.7991 4.88816V9.77329V11.3122C89.7818 12.5777 89.5388 12.7126 88.3499 12.8673V13.5168H93.4077V12.8673C92.4606 12.7986 92.1146 12.6279 92.029 11.8938C91.9943 11.5342 91.9766 10.1837 91.9766 9.75543V4.88816C91.9766 2.30799 91.976 2.24056 93.4077 2.10203V1.45426H88.35H88.3499ZM94.5678 1.45426V2.10203C95.7925 2.29214 95.8955 2.56485 96.7235 4.85417L100.054 13.7566H100.71L104.42 4.9884C105.42 2.59824 105.576 2.27382 106.749 2.10203V1.45426H102.486V2.10203C103.245 2.11921 104.109 2.15271 104.109 3.02537C104.109 3.33229 103.902 3.87878 103.746 4.30483L101.263 10.6448L99.1395 4.51234C98.8123 3.50343 98.7239 3.21273 98.7239 2.87145C98.7239 2.17056 99.3636 2.1375 100.347 2.10199V1.45422H94.5678L94.5678 1.45426ZM138.874 1.45426V2.10203C140.307 2.30817 140.308 2.37439 140.326 4.88816V9.77329V11.3122C140.308 12.5777 140.065 12.7126 138.874 12.8673V13.5168H143.931V12.8673C142.984 12.7986 142.638 12.6279 142.553 11.8938C142.518 11.5342 142.5 10.1837 142.5 9.75543V4.88816C142.5 2.30799 142.5 2.24056 143.931 2.10203V1.45426H138.874H138.874ZM188.069 1.54015V2.18792C188.949 2.27267 189.327 2.32528 189.448 2.88759C189.536 3.26437 189.553 4.59619 189.553 5.07609L189.551 9.31531C189.551 9.63941 189.533 11.0906 189.515 11.3803C189.482 12.6939 189.325 12.8151 188.067 12.9354V13.601H193.112V12.9354C191.853 12.8151 191.698 12.6939 191.663 11.3803L191.67 7.93745H193.018C194.38 7.93745 195.104 8.06643 195.191 9.41554H195.78V5.43405H195.191C195.121 6.73394 194.761 6.86202 193.277 6.86202H191.67L191.672 2.68548C192.105 2.6328 192.346 2.61569 193.123 2.61569C195.505 2.61569 196.272 2.60495 196.591 4.49461H197.196L197.005 1.54027H188.069L188.069 1.54015ZM181.23 2.39192C182.245 2.361 183.019 2.97291 183.411 3.38865C184.306 4.33461 184.744 5.66886 184.793 7.22519C184.841 8.79536 184.664 9.99676 183.803 11.3069C183.05 12.4384 182.08 12.778 181.39 12.7976C180.702 12.7976 179.724 12.4901 178.937 11.3803C178.036 10.0976 177.822 8.90439 177.822 7.33083C177.822 5.7756 178.217 4.42367 179.083 3.45131C179.463 3.02528 180.214 2.39201 181.23 2.39201V2.39192ZM122.333 2.51726C124.575 2.51726 125.287 3.72809 125.213 5.12987C125.162 6.09535 124.114 7.1726 122.729 7.16802C122.384 7.16802 121.917 7.11455 121.59 7.04813V2.58711C121.832 2.53557 122.022 2.51732 122.333 2.51732L122.333 2.51726ZM170.423 18.5579C169.509 19.2325 168.908 19.5419 166.769 20.2382L167.054 20.6784L162.071 34.2225C161.365 36.1327 160.739 36.5227 158.807 36.6006V37.583H166.404V36.6006C165.282 36.5491 163.897 36.4721 163.897 35.178C163.897 34.7932 164.002 34.4293 164.132 34.04L164.703 32.4635H171.201L171.754 34.3263C171.858 34.6618 171.964 35.0506 171.964 35.4124C171.964 36.4202 170.997 36.5227 169.745 36.6006V37.583H177.819H178.357H185.336V36.6006C182.516 36.3154 182.307 36.2125 182.307 33.2669V23.8008L189.589 32.6961C190.425 33.7062 191.259 34.738 192.094 35.7721L193.74 37.8157H194.837L195.097 23.7292C195.122 20.7585 195.306 20.3414 197.316 20.3185V19.3344H190.059V20.3185C192.983 20.4216 193.061 20.5757 193.088 23.4698V31.6368L187.945 25.329C185.231 21.9952 184.891 21.5057 183.352 19.3344H177.819V20.3185C179.045 20.4216 179.463 20.6018 180.48 21.5318C180.454 23.418 180.375 34.2466 180.115 35.4643C179.926 36.3993 179.4 36.5054 178.189 36.5755C176.391 36.351 176.038 35.7823 175.33 33.6533L171.259 21.2454C170.842 19.9535 170.789 19.7991 170.423 18.5576L170.423 18.5579ZM150.442 18.8675C145.437 18.8675 141.444 22.6665 141.444 28.5067C141.444 33.287 144.474 38.0461 150.817 38.0461C154.434 38.0461 156.478 36.7778 157.911 35.9006V34.5299C157.958 31.0667 157.958 30.6013 159.626 30.4983V29.5158H152.203V30.4983C154.247 30.7067 154.564 30.7567 154.647 33.0804C154.675 33.8844 154.6 34.3231 154.272 34.8144C154.177 34.9175 153.119 36.3391 151.075 36.3391C147.481 36.3391 145.392 32.7474 145.392 28.5604C145.392 23.3117 148.07 20.6243 151.288 20.6243C153.143 20.6243 154.319 21.3863 154.929 21.9807C156.315 23.3515 156.88 24.6045 157.255 25.6902L158.007 25.5613L157.866 19.8477L156.904 20.9338C155.401 20.0291 153.59 18.867 150.442 18.867V18.8675ZM103.152 18.8943C96.929 18.8943 93.8789 23.7556 93.8789 28.6912C93.8789 34.0165 97.4761 38.073 103.029 38.073C108.113 38.073 110.072 34.8413 110.89 33.5243L109.793 32.7011C108.826 34.0708 107.617 35.8523 104.394 35.8523C100.128 35.8523 97.9699 32.0785 97.9699 28.0701C97.9699 23.3391 100.6 20.6547 103.922 20.6547C105.856 20.6547 107.22 21.8414 107.791 22.4369C108.981 23.7288 109.452 24.5802 109.773 25.6418L110.592 25.4843L110.492 19.9532L109.227 21.0912C108.162 20.2667 106.425 18.8939 103.152 18.8939L103.152 18.8943ZM60.7038 19.3345V20.3187C62.3471 20.3416 62.7132 20.4727 62.7132 22.2799C62.7132 22.927 62.7145 23.806 62.6879 24.4004L62.4277 32.0503C62.4 33.0581 62.3226 34.5843 62.2705 35.0744C62.1653 36.3159 61.5905 36.5229 60.1021 36.6008V37.5832H66.4989V36.6008C64.541 36.4462 64.3323 36.1096 64.3323 34.3264L64.4696 23.5951L70.3875 37.8153H72.0066L78.4521 23.7793V32.9577C78.4255 36.3441 78.4264 36.4463 76.103 36.601V37.5834H84.1676V36.601C82.7058 36.4716 82.1846 36.2133 82.0805 34.8688C82.0018 33.9378 81.9757 32.3882 81.9757 31.1468V23.6258C81.9502 20.7821 81.9749 20.5492 84.1675 20.421V19.3348H78.5568L72.2413 33.1885L66.4969 19.3348H60.7037L60.7038 19.3345ZM85.9742 19.3345V20.3187C88.1402 20.6279 88.1395 20.7305 88.166 24.5292V31.9232V34.2459C88.1394 36.1607 87.7759 36.3684 85.9742 36.6008V37.5832H93.6249V36.6008C92.1897 36.4977 91.6667 36.2372 91.5361 35.1263C91.484 34.5846 91.4584 32.5416 91.4584 31.8946V24.5292C91.4584 20.6274 91.4589 20.5249 93.6249 20.3187V19.3345H85.9742H85.9742ZM112.251 19.3345V20.3187C113.686 20.4458 114.207 20.6013 114.311 21.6858C114.39 22.255 114.391 23.4443 114.391 24.633V32.2847C114.391 32.9295 114.391 33.5756 114.365 34.2226C114.365 35.9782 114.339 36.4198 112.251 36.6008V37.5832H120.139V36.6008C117.763 36.3431 117.711 36.3434 117.685 32.5423V29.1961C119.277 29.1171 120.519 29.0673 122.11 29.0673C123.624 29.0673 124.839 29.1446 126.3 29.1961V32.5423C126.3 33.8617 126.3 34.5591 126.248 35.0744C126.09 36.3433 125.594 36.3913 123.742 36.6008V37.5832H131.732V36.6008C130.375 36.4714 129.826 36.2918 129.696 35.3321C129.617 34.7926 129.591 32.4913 129.591 31.7675V24.064C129.591 20.6019 129.59 20.5764 131.732 20.3187V19.3345H123.742V20.3187C126.248 20.55 126.274 20.6783 126.3 24.0121V27.0774C124.733 27.1541 123.493 27.2062 121.927 27.2062C120.388 27.2062 119.277 27.1541 117.685 27.0774V24.556C117.685 23.4692 117.711 22.1251 117.842 21.5318C118.025 20.524 118.598 20.4732 120.139 20.3186V19.3344H112.251L112.251 19.3345ZM133.257 19.3345V20.3187C135.426 20.6279 135.426 20.7305 135.453 24.5292V31.9232V34.2459C135.426 36.1607 135.06 36.3684 133.257 36.6008V37.5832H140.917V36.6008C139.483 36.4977 138.963 36.2372 138.832 35.1263C138.779 34.5846 138.75 32.5416 138.75 31.8946V24.5292C138.75 20.6274 138.751 20.5249 140.917 20.3187V19.3345H133.257ZM168.094 22.9349L170.68 30.4989H165.385L168.094 22.9349H168.094Z" fill="#00274C"/>
</svg>
